<svg xmlns="http://www.w3.org/2000/svg" xmlns:xlink="http://www.w3.org/1999/xlink" width="1080" zoomAndPan="magnify" viewBox="0 0 810 1012.49997" height="1350" preserveAspectRatio="xMidYMid meet" version="1.0"><defs><filter x="0%" y="0%" width="100%" height="100%" id="db1558633b"><feColorMatrix values="0 0 0 0 1 0 0 0 0 1 0 0 0 0 1 0 0 0 1 0" color-interpolation-filters="sRGB"/></filter><clipPath id="bbf2bc92a4"><path d="M 25.949219 251 L 783.828125 251 L 783.828125 814 L 25.949219 814 Z M 25.949219 251 " clip-rule="nonzero"/></clipPath><mask id="294a499356"><g filter="url(#db1558633b)"><rect x="-81" width="972" fill="#000000" y="-101.249997" height="1214.999964" fill-opacity="0.72"/></g></mask><clipPath id="7ee7763ffd"><rect x="0" width="83" y="0" height="58"/></clipPath><mask id="6713b4ee45"><g filter="url(#db1558633b)"><rect x="-81" width="972" fill="#000000" y="-101.249997" height="1214.999964" fill-opacity="0.72"/></g></mask><clipPath id="f4ce7158ba"><rect x="0" width="83" y="0" height="58"/></clipPath></defs><path fill="#996b4d" d="M 504.203125 205.035156 L 504.203125 296.296875 L 468.378906 296.296875 L 468.378906 220.046875 L 341.609375 220.046875 L 341.609375 296.296875 L 305.789062 296.296875 L 305.789062 205.035156 C 305.785156 204.484375 305.8125 203.933594 305.867188 203.386719 C 305.917969 202.839844 306 202.296875 306.105469 201.757812 C 306.214844 201.214844 306.347656 200.683594 306.503906 200.15625 C 306.664062 199.628906 306.847656 199.113281 307.058594 198.601562 C 307.269531 198.09375 307.503906 197.597656 307.761719 197.109375 C 308.019531 196.625 308.300781 196.152344 308.605469 195.695312 C 308.910156 195.238281 309.238281 194.792969 309.585938 194.367188 C 309.933594 193.941406 310.304688 193.535156 310.691406 193.144531 C 311.082031 192.753906 311.488281 192.386719 311.910156 192.035156 C 312.335938 191.683594 312.777344 191.355469 313.234375 191.050781 C 313.691406 190.742188 314.160156 190.460938 314.648438 190.199219 C 315.132812 189.9375 315.628906 189.703125 316.136719 189.492188 C 316.644531 189.277344 317.160156 189.09375 317.6875 188.933594 C 318.214844 188.769531 318.746094 188.636719 319.285156 188.527344 C 319.824219 188.417969 320.367188 188.335938 320.917969 188.28125 C 321.464844 188.226562 322.011719 188.195312 322.5625 188.195312 L 487.425781 188.195312 C 487.976562 188.195312 488.523438 188.226562 489.074219 188.28125 C 489.621094 188.335938 490.164062 188.417969 490.703125 188.527344 C 491.242188 188.636719 491.777344 188.769531 492.300781 188.933594 C 492.828125 189.09375 493.34375 189.277344 493.851562 189.492188 C 494.359375 189.703125 494.855469 189.9375 495.34375 190.199219 C 495.828125 190.460938 496.296875 190.742188 496.753906 191.050781 C 497.210938 191.355469 497.652344 191.683594 498.078125 192.035156 C 498.503906 192.386719 498.910156 192.753906 499.296875 193.144531 C 499.683594 193.535156 500.054688 193.941406 500.402344 194.367188 C 500.75 194.792969 501.078125 195.238281 501.382812 195.695312 C 501.6875 196.152344 501.96875 196.625 502.226562 197.109375 C 502.488281 197.597656 502.71875 198.09375 502.929688 198.601562 C 503.140625 199.113281 503.324219 199.628906 503.484375 200.15625 C 503.644531 200.683594 503.777344 201.214844 503.882812 201.757812 C 503.988281 202.296875 504.070312 202.839844 504.121094 203.386719 C 504.175781 203.933594 504.203125 204.484375 504.203125 205.035156 Z M 504.203125 205.035156 " fill-opacity="1" fill-rule="nonzero"/><g clip-path="url(#bbf2bc92a4)"><path fill="#ff3333" d="M 57.863281 251.769531 L 752.125 251.769531 C 753.171875 251.769531 754.210938 251.820312 755.253906 251.921875 C 756.292969 252.023438 757.324219 252.179688 758.351562 252.382812 C 759.375 252.585938 760.386719 252.839844 761.386719 253.144531 C 762.386719 253.445312 763.371094 253.796875 764.335938 254.199219 C 765.304688 254.597656 766.246094 255.042969 767.167969 255.535156 C 768.089844 256.03125 768.984375 256.566406 769.855469 257.148438 C 770.722656 257.726562 771.5625 258.347656 772.371094 259.011719 C 773.179688 259.675781 773.953125 260.375 774.691406 261.117188 C 775.429688 261.855469 776.128906 262.628906 776.792969 263.4375 C 777.457031 264.246094 778.078125 265.082031 778.660156 265.953125 C 779.238281 266.820312 779.777344 267.714844 780.269531 268.636719 C 780.761719 269.558594 781.207031 270.503906 781.609375 271.46875 C 782.007812 272.433594 782.359375 273.417969 782.664062 274.417969 C 782.964844 275.417969 783.21875 276.429688 783.425781 277.457031 C 783.628906 278.480469 783.78125 279.511719 783.882812 280.554688 C 783.988281 281.59375 784.039062 282.636719 784.039062 283.679688 L 784.039062 781.925781 C 784.039062 782.96875 783.984375 784.011719 783.882812 785.054688 C 783.78125 786.09375 783.628906 787.125 783.425781 788.152344 C 783.21875 789.175781 782.96875 790.1875 782.664062 791.1875 C 782.359375 792.1875 782.007812 793.171875 781.609375 794.136719 C 781.207031 795.101562 780.761719 796.046875 780.269531 796.96875 C 779.777344 797.890625 779.238281 798.785156 778.660156 799.65625 C 778.078125 800.523438 777.457031 801.363281 776.792969 802.171875 C 776.128906 802.976562 775.429688 803.75 774.691406 804.492188 C 773.953125 805.230469 773.179688 805.929688 772.371094 806.59375 C 771.5625 807.257812 770.722656 807.878906 769.855469 808.460938 C 768.984375 809.039062 768.089844 809.578125 767.167969 810.070312 C 766.246094 810.5625 765.304688 811.007812 764.335938 811.410156 C 763.371094 811.808594 762.390625 812.160156 761.390625 812.464844 C 760.386719 812.765625 759.375 813.019531 758.351562 813.222656 C 757.324219 813.429688 756.292969 813.582031 755.253906 813.683594 C 754.210938 813.785156 753.171875 813.835938 752.125 813.835938 L 57.863281 813.835938 C 56.820312 813.835938 55.777344 813.785156 54.734375 813.683594 C 53.695312 813.582031 52.664062 813.429688 51.636719 813.222656 C 50.613281 813.019531 49.601562 812.765625 48.601562 812.464844 C 47.601562 812.160156 46.617188 811.808594 45.652344 811.410156 C 44.6875 811.007812 43.742188 810.5625 42.820312 810.070312 C 41.898438 809.578125 41.003906 809.039062 40.132812 808.460938 C 39.265625 807.878906 38.425781 807.257812 37.617188 806.59375 C 36.8125 805.929688 36.039062 805.230469 35.296875 804.492188 C 34.558594 803.75 33.859375 802.976562 33.195312 802.171875 C 32.53125 801.363281 31.910156 800.523438 31.328125 799.65625 C 30.75 798.785156 30.210938 797.890625 29.71875 796.96875 C 29.226562 796.046875 28.78125 795.101562 28.378906 794.136719 C 27.980469 793.171875 27.628906 792.1875 27.324219 791.1875 C 27.023438 790.1875 26.769531 789.175781 26.5625 788.152344 C 26.359375 787.125 26.207031 786.09375 26.105469 785.054688 C 26.003906 784.011719 25.949219 782.96875 25.949219 781.925781 L 25.949219 283.679688 C 25.949219 282.636719 26.003906 281.59375 26.105469 280.554688 C 26.207031 279.511719 26.359375 278.480469 26.5625 277.457031 C 26.769531 276.429688 27.023438 275.417969 27.324219 274.417969 C 27.628906 273.417969 27.980469 272.433594 28.378906 271.46875 C 28.78125 270.503906 29.226562 269.558594 29.71875 268.636719 C 30.210938 267.714844 30.75 266.820312 31.328125 265.953125 C 31.910156 265.082031 32.53125 264.242188 33.195312 263.4375 C 33.859375 262.628906 34.558594 261.855469 35.296875 261.117188 C 36.035156 260.375 36.808594 259.675781 37.617188 259.011719 C 38.425781 258.347656 39.265625 257.726562 40.132812 257.148438 C 41.003906 256.566406 41.898438 256.03125 42.820312 255.535156 C 43.742188 255.042969 44.6875 254.597656 45.652344 254.199219 C 46.617188 253.796875 47.601562 253.445312 48.601562 253.144531 C 49.601562 252.839844 50.613281 252.585938 51.636719 252.382812 C 52.664062 252.179688 53.695312 252.023438 54.734375 251.921875 C 55.777344 251.820312 56.820312 251.769531 57.863281 251.769531 Z M 57.863281 251.769531 " fill-opacity="1" fill-rule="nonzero"/></g><path fill="#996b4d" d="M 242.085938 254.859375 L 242.085938 810.746094 C 242.089844 811.574219 242.015625 812.394531 241.855469 813.203125 C 241.699219 814.015625 241.460938 814.804688 241.148438 815.570312 C 240.835938 816.332031 240.449219 817.058594 239.992188 817.75 C 239.535156 818.4375 239.015625 819.074219 238.433594 819.660156 C 237.847656 820.246094 237.214844 820.769531 236.527344 821.230469 C 235.839844 821.691406 235.117188 822.082031 234.351562 822.398438 C 233.589844 822.714844 232.804688 822.957031 231.992188 823.117188 C 231.183594 823.28125 230.363281 823.359375 229.535156 823.359375 L 162.9375 823.359375 C 162.105469 823.363281 161.285156 823.285156 160.472656 823.125 C 159.660156 822.964844 158.867188 822.726562 158.101562 822.414062 C 157.335938 822.097656 156.609375 821.707031 155.917969 821.25 C 155.230469 820.789062 154.589844 820.265625 154.003906 819.679688 C 153.417969 819.09375 152.894531 818.453125 152.433594 817.765625 C 151.976562 817.074219 151.585938 816.347656 151.269531 815.582031 C 150.957031 814.816406 150.71875 814.023438 150.558594 813.210938 C 150.398438 812.398438 150.320312 811.578125 150.324219 810.746094 L 150.324219 254.859375 C 150.320312 254.03125 150.398438 253.207031 150.558594 252.394531 C 150.71875 251.582031 150.957031 250.792969 151.269531 250.023438 C 151.585938 249.257812 151.976562 248.53125 152.433594 247.839844 C 152.894531 247.152344 153.417969 246.511719 154.003906 245.925781 C 154.589844 245.339844 155.230469 244.816406 155.917969 244.359375 C 156.609375 243.898438 157.335938 243.511719 158.101562 243.195312 C 158.867188 242.878906 159.660156 242.640625 160.472656 242.480469 C 161.285156 242.320312 162.105469 242.242188 162.9375 242.246094 L 229.535156 242.246094 C 230.363281 242.246094 231.183594 242.328125 231.992188 242.488281 C 232.804688 242.652344 233.589844 242.890625 234.351562 243.207031 C 235.117188 243.527344 235.839844 243.914062 236.527344 244.375 C 237.214844 244.835938 237.847656 245.359375 238.433594 245.945312 C 239.015625 246.53125 239.535156 247.167969 239.992188 247.855469 C 240.449219 248.546875 240.835938 249.273438 241.148438 250.039062 C 241.460938 250.800781 241.699219 251.589844 241.855469 252.402344 C 242.015625 253.214844 242.089844 254.03125 242.085938 254.859375 Z M 242.085938 254.859375 " fill-opacity="1" fill-rule="nonzero"/><path fill="#996b4d" d="M 659.667969 254.859375 L 659.667969 810.746094 C 659.667969 811.578125 659.589844 812.398438 659.429688 813.210938 C 659.269531 814.023438 659.035156 814.816406 658.71875 815.582031 C 658.402344 816.347656 658.015625 817.074219 657.554688 817.765625 C 657.09375 818.457031 656.570312 819.09375 655.984375 819.679688 C 655.398438 820.265625 654.761719 820.789062 654.070312 821.25 C 653.378906 821.707031 652.652344 822.097656 651.886719 822.414062 C 651.121094 822.726562 650.328125 822.964844 649.515625 823.125 C 648.703125 823.285156 647.882812 823.363281 647.050781 823.359375 L 580.453125 823.359375 C 579.625 823.359375 578.808594 823.28125 577.996094 823.117188 C 577.1875 822.957031 576.398438 822.714844 575.636719 822.398438 C 574.871094 822.082031 574.148438 821.691406 573.460938 821.230469 C 572.773438 820.769531 572.140625 820.246094 571.558594 819.660156 C 570.972656 819.074219 570.453125 818.4375 569.996094 817.75 C 569.539062 817.058594 569.152344 816.332031 568.839844 815.570312 C 568.527344 814.804688 568.289062 814.015625 568.132812 813.203125 C 567.976562 812.394531 567.898438 811.574219 567.902344 810.746094 L 567.902344 254.859375 C 567.898438 254.03125 567.976562 253.214844 568.132812 252.402344 C 568.289062 251.589844 568.527344 250.800781 568.839844 250.039062 C 569.152344 249.273438 569.539062 248.546875 569.996094 247.855469 C 570.453125 247.167969 570.972656 246.53125 571.558594 245.945312 C 572.140625 245.359375 572.773438 244.835938 573.460938 244.375 C 574.148438 243.914062 574.871094 243.527344 575.636719 243.207031 C 576.398438 242.890625 577.1875 242.652344 577.996094 242.488281 C 578.808594 242.328125 579.625 242.246094 580.453125 242.246094 L 647.050781 242.246094 C 647.882812 242.242188 648.703125 242.320312 649.515625 242.480469 C 650.328125 242.640625 651.121094 242.878906 651.886719 243.195312 C 652.652344 243.511719 653.378906 243.898438 654.070312 244.359375 C 654.761719 244.816406 655.398438 245.339844 655.984375 245.925781 C 656.570312 246.511719 657.09375 247.152344 657.554688 247.839844 C 658.011719 248.53125 658.402344 249.257812 658.71875 250.023438 C 659.035156 250.792969 659.269531 251.582031 659.429688 252.394531 C 659.589844 253.207031 659.667969 254.03125 659.667969 254.859375 Z M 659.667969 254.859375 " fill-opacity="1" fill-rule="nonzero"/><path fill="#ddaf52" d="M 234.414062 429.597656 L 157.996094 429.597656 C 156.972656 429.597656 155.957031 429.496094 154.953125 429.296875 C 153.949219 429.097656 152.972656 428.800781 152.027344 428.40625 C 151.078125 428.015625 150.179688 427.53125 149.328125 426.964844 C 148.476562 426.394531 147.6875 425.746094 146.964844 425.023438 C 146.238281 424.296875 145.589844 423.511719 145.019531 422.65625 C 144.453125 421.804688 143.96875 420.90625 143.578125 419.960938 C 143.183594 419.015625 142.886719 418.039062 142.6875 417.035156 C 142.488281 416.027344 142.386719 415.011719 142.382812 413.988281 L 142.382812 337.574219 C 142.386719 336.546875 142.488281 335.535156 142.6875 334.527344 C 142.886719 333.523438 143.183594 332.546875 143.578125 331.601562 C 143.96875 330.65625 144.453125 329.757812 145.023438 328.902344 C 145.589844 328.050781 146.238281 327.265625 146.964844 326.539062 C 147.6875 325.816406 148.476562 325.167969 149.328125 324.597656 C 150.179688 324.027344 151.078125 323.546875 152.027344 323.15625 C 152.972656 322.761719 153.949219 322.464844 154.953125 322.265625 C 155.957031 322.066406 156.972656 321.964844 157.996094 321.964844 L 234.414062 321.964844 C 235.4375 321.964844 236.453125 322.066406 237.457031 322.265625 C 238.460938 322.464844 239.4375 322.761719 240.386719 323.15625 C 241.332031 323.546875 242.230469 324.027344 243.082031 324.597656 C 243.933594 325.167969 244.722656 325.816406 245.449219 326.539062 C 246.171875 327.265625 246.820312 328.050781 247.390625 328.902344 C 247.957031 329.757812 248.441406 330.65625 248.832031 331.601562 C 249.226562 332.546875 249.523438 333.523438 249.722656 334.527344 C 249.925781 335.535156 250.023438 336.546875 250.027344 337.574219 L 250.027344 413.988281 C 250.023438 415.011719 249.925781 416.027344 249.722656 417.035156 C 249.523438 418.039062 249.226562 419.015625 248.832031 419.960938 C 248.441406 420.90625 247.957031 421.804688 247.390625 422.65625 C 246.820312 423.511719 246.171875 424.296875 245.449219 425.023438 C 244.722656 425.746094 243.933594 426.394531 243.082031 426.964844 C 242.230469 427.53125 241.332031 428.015625 240.386719 428.40625 C 239.4375 428.800781 238.460938 429.097656 237.457031 429.296875 C 236.453125 429.496094 235.4375 429.597656 234.414062 429.597656 Z M 157.996094 331.421875 C 157.59375 331.421875 157.195312 331.464844 156.796875 331.542969 C 156.402344 331.621094 156.015625 331.738281 155.644531 331.894531 C 155.269531 332.046875 154.917969 332.238281 154.582031 332.460938 C 154.246094 332.6875 153.933594 332.941406 153.648438 333.226562 C 153.363281 333.511719 153.109375 333.820312 152.882812 334.15625 C 152.660156 334.492188 152.46875 334.847656 152.316406 335.21875 C 152.160156 335.59375 152.042969 335.976562 151.964844 336.375 C 151.886719 336.769531 151.84375 337.167969 151.84375 337.574219 L 151.84375 413.988281 C 151.84375 414.390625 151.886719 414.792969 151.964844 415.1875 C 152.042969 415.585938 152.160156 415.96875 152.316406 416.339844 C 152.46875 416.714844 152.660156 417.070312 152.882812 417.40625 C 153.109375 417.738281 153.363281 418.050781 153.648438 418.335938 C 153.933594 418.621094 154.246094 418.875 154.582031 419.101562 C 154.917969 419.324219 155.273438 419.515625 155.644531 419.667969 C 156.015625 419.824219 156.402344 419.941406 156.796875 420.019531 C 157.195312 420.097656 157.59375 420.136719 157.996094 420.136719 L 234.414062 420.136719 C 234.816406 420.136719 235.214844 420.097656 235.613281 420.019531 C 236.007812 419.941406 236.394531 419.824219 236.765625 419.667969 C 237.140625 419.515625 237.492188 419.324219 237.828125 419.101562 C 238.164062 418.875 238.476562 418.621094 238.761719 418.335938 C 239.046875 418.050781 239.300781 417.738281 239.527344 417.40625 C 239.75 417.070312 239.941406 416.714844 240.09375 416.339844 C 240.25 415.96875 240.367188 415.585938 240.445312 415.1875 C 240.527344 414.792969 240.566406 414.394531 240.566406 413.988281 L 240.566406 337.574219 C 240.566406 337.167969 240.527344 336.769531 240.445312 336.375 C 240.367188 335.976562 240.25 335.59375 240.09375 335.21875 C 239.941406 334.847656 239.75 334.492188 239.527344 334.15625 C 239.300781 333.820312 239.046875 333.511719 238.761719 333.226562 C 238.476562 332.941406 238.164062 332.6875 237.828125 332.460938 C 237.492188 332.238281 237.140625 332.046875 236.765625 331.894531 C 236.394531 331.738281 236.007812 331.621094 235.613281 331.542969 C 235.214844 331.464844 234.816406 331.425781 234.414062 331.421875 Z M 157.996094 331.421875 " fill-opacity="1" fill-rule="nonzero"/><path fill="#ddaf52" d="M 196.203125 380.511719 C 195.890625 380.511719 195.585938 380.480469 195.28125 380.421875 C 194.976562 380.359375 194.679688 380.269531 194.390625 380.152344 C 194.105469 380.03125 193.832031 379.886719 193.574219 379.714844 C 193.316406 379.539062 193.078125 379.34375 192.859375 379.125 C 192.636719 378.90625 192.441406 378.667969 192.269531 378.410156 C 192.097656 378.148438 191.953125 377.878906 191.832031 377.589844 C 191.714844 377.304688 191.625 377.007812 191.5625 376.703125 C 191.503906 376.398438 191.472656 376.089844 191.472656 375.78125 L 191.472656 348.695312 C 191.472656 348.386719 191.503906 348.078125 191.5625 347.773438 C 191.625 347.46875 191.714844 347.171875 191.832031 346.886719 C 191.949219 346.597656 192.097656 346.328125 192.269531 346.070312 C 192.441406 345.808594 192.636719 345.570312 192.859375 345.351562 C 193.078125 345.132812 193.316406 344.9375 193.574219 344.761719 C 193.832031 344.589844 194.105469 344.445312 194.390625 344.328125 C 194.679688 344.207031 194.976562 344.117188 195.28125 344.058594 C 195.585938 343.996094 195.890625 343.964844 196.203125 343.964844 C 196.511719 343.964844 196.820312 343.996094 197.125 344.058594 C 197.429688 344.117188 197.726562 344.207031 198.011719 344.328125 C 198.300781 344.445312 198.570312 344.589844 198.832031 344.761719 C 199.089844 344.9375 199.328125 345.132812 199.546875 345.351562 C 199.765625 345.570312 199.960938 345.808594 200.136719 346.070312 C 200.308594 346.328125 200.453125 346.597656 200.574219 346.886719 C 200.691406 347.171875 200.78125 347.46875 200.839844 347.773438 C 200.902344 348.078125 200.933594 348.386719 200.933594 348.695312 L 200.933594 375.78125 C 200.933594 376.089844 200.902344 376.398438 200.839844 376.703125 C 200.78125 377.007812 200.691406 377.304688 200.570312 377.589844 C 200.453125 377.878906 200.308594 378.148438 200.136719 378.410156 C 199.960938 378.667969 199.765625 378.90625 199.546875 379.125 C 199.328125 379.34375 199.089844 379.539062 198.828125 379.714844 C 198.570312 379.886719 198.300781 380.03125 198.011719 380.152344 C 197.726562 380.269531 197.429688 380.359375 197.125 380.421875 C 196.820312 380.480469 196.511719 380.511719 196.203125 380.511719 Z M 196.203125 380.511719 " fill-opacity="1" fill-rule="nonzero"/><path fill="#ddaf52" d="M 651.992188 429.597656 L 575.574219 429.597656 C 574.550781 429.597656 573.535156 429.496094 572.53125 429.296875 C 571.527344 429.097656 570.550781 428.800781 569.605469 428.40625 C 568.65625 428.015625 567.757812 427.53125 566.90625 426.964844 C 566.054688 426.394531 565.265625 425.746094 564.542969 425.023438 C 563.816406 424.296875 563.167969 423.511719 562.597656 422.65625 C 562.03125 421.804688 561.546875 420.90625 561.15625 419.960938 C 560.761719 419.015625 560.464844 418.039062 560.265625 417.035156 C 560.066406 416.027344 559.964844 415.011719 559.960938 413.988281 L 559.960938 337.574219 C 559.964844 336.546875 560.066406 335.535156 560.265625 334.527344 C 560.464844 333.523438 560.761719 332.546875 561.15625 331.601562 C 561.546875 330.65625 562.03125 329.757812 562.597656 328.902344 C 563.167969 328.050781 563.816406 327.265625 564.542969 326.539062 C 565.265625 325.816406 566.054688 325.167969 566.90625 324.597656 C 567.757812 324.027344 568.65625 323.546875 569.605469 323.15625 C 570.550781 322.761719 571.527344 322.464844 572.53125 322.265625 C 573.535156 322.066406 574.550781 321.964844 575.574219 321.964844 L 651.992188 321.964844 C 653.015625 321.964844 654.03125 322.066406 655.035156 322.265625 C 656.039062 322.464844 657.015625 322.761719 657.964844 323.15625 C 658.910156 323.546875 659.808594 324.027344 660.660156 324.597656 C 661.511719 325.167969 662.300781 325.816406 663.027344 326.539062 C 663.75 327.265625 664.398438 328.050781 664.96875 328.902344 C 665.535156 329.757812 666.019531 330.65625 666.410156 331.601562 C 666.804688 332.546875 667.101562 333.523438 667.300781 334.527344 C 667.503906 335.535156 667.601562 336.546875 667.605469 337.574219 L 667.605469 413.988281 C 667.601562 415.011719 667.503906 416.027344 667.300781 417.035156 C 667.101562 418.039062 666.804688 419.015625 666.410156 419.960938 C 666.019531 420.90625 665.535156 421.804688 664.96875 422.65625 C 664.398438 423.511719 663.75 424.296875 663.027344 425.023438 C 662.300781 425.746094 661.511719 426.394531 660.660156 426.964844 C 659.808594 427.53125 658.910156 428.015625 657.964844 428.40625 C 657.015625 428.800781 656.039062 429.097656 655.035156 429.296875 C 654.03125 429.496094 653.015625 429.597656 651.992188 429.597656 Z M 575.574219 331.421875 C 575.171875 331.421875 574.773438 331.464844 574.375 331.542969 C 573.980469 331.621094 573.59375 331.738281 573.222656 331.894531 C 572.847656 332.046875 572.496094 332.238281 572.160156 332.460938 C 571.824219 332.6875 571.511719 332.941406 571.226562 333.226562 C 570.941406 333.511719 570.6875 333.820312 570.460938 334.15625 C 570.238281 334.492188 570.046875 334.847656 569.894531 335.21875 C 569.738281 335.59375 569.621094 335.976562 569.542969 336.375 C 569.464844 336.769531 569.421875 337.167969 569.421875 337.574219 L 569.421875 413.988281 C 569.421875 414.394531 569.464844 414.792969 569.542969 415.1875 C 569.621094 415.585938 569.738281 415.96875 569.894531 416.339844 C 570.046875 416.714844 570.238281 417.070312 570.460938 417.40625 C 570.6875 417.738281 570.941406 418.050781 571.226562 418.335938 C 571.511719 418.621094 571.824219 418.875 572.160156 419.101562 C 572.496094 419.324219 572.847656 419.515625 573.222656 419.667969 C 573.59375 419.824219 573.980469 419.941406 574.375 420.019531 C 574.773438 420.097656 575.171875 420.136719 575.574219 420.136719 L 651.992188 420.136719 C 652.394531 420.136719 652.792969 420.097656 653.191406 420.019531 C 653.585938 419.941406 653.972656 419.824219 654.34375 419.667969 C 654.71875 419.515625 655.070312 419.324219 655.40625 419.101562 C 655.742188 418.875 656.054688 418.621094 656.339844 418.335938 C 656.625 418.050781 656.878906 417.738281 657.105469 417.40625 C 657.328125 417.070312 657.519531 416.714844 657.671875 416.339844 C 657.828125 415.96875 657.945312 415.585938 658.023438 415.1875 C 658.105469 414.792969 658.144531 414.394531 658.144531 413.988281 L 658.144531 337.574219 C 658.144531 337.167969 658.101562 336.769531 658.023438 336.375 C 657.945312 335.976562 657.828125 335.59375 657.671875 335.21875 C 657.519531 334.847656 657.328125 334.492188 657.105469 334.15625 C 656.878906 333.820312 656.625 333.511719 656.339844 333.226562 C 656.054688 332.941406 655.742188 332.6875 655.40625 332.460938 C 655.070312 332.238281 654.71875 332.046875 654.34375 331.894531 C 653.972656 331.738281 653.585938 331.621094 653.191406 331.542969 C 652.792969 331.464844 652.394531 331.425781 651.992188 331.421875 Z M 575.574219 331.421875 " fill-opacity="1" fill-rule="nonzero"/><path fill="#ddaf52" d="M 613.785156 380.511719 C 613.476562 380.511719 613.167969 380.480469 612.863281 380.417969 C 612.558594 380.359375 612.261719 380.269531 611.976562 380.152344 C 611.691406 380.03125 611.417969 379.886719 611.160156 379.714844 C 610.902344 379.539062 610.660156 379.34375 610.441406 379.125 C 610.222656 378.90625 610.027344 378.667969 609.855469 378.410156 C 609.679688 378.148438 609.535156 377.878906 609.417969 377.589844 C 609.296875 377.304688 609.207031 377.007812 609.148438 376.703125 C 609.085938 376.398438 609.054688 376.089844 609.054688 375.78125 L 609.054688 348.695312 C 609.054688 348.386719 609.085938 348.078125 609.148438 347.773438 C 609.207031 347.46875 609.296875 347.171875 609.417969 346.886719 C 609.535156 346.597656 609.679688 346.328125 609.851562 346.070312 C 610.027344 345.808594 610.222656 345.570312 610.441406 345.351562 C 610.660156 345.132812 610.898438 344.9375 611.160156 344.761719 C 611.417969 344.589844 611.6875 344.445312 611.976562 344.328125 C 612.261719 344.207031 612.558594 344.117188 612.863281 344.058594 C 613.167969 343.996094 613.476562 343.964844 613.785156 343.964844 C 614.097656 343.964844 614.40625 343.996094 614.710938 344.058594 C 615.015625 344.117188 615.308594 344.207031 615.597656 344.328125 C 615.882812 344.445312 616.15625 344.589844 616.414062 344.761719 C 616.671875 344.9375 616.910156 345.132812 617.132812 345.351562 C 617.351562 345.570312 617.546875 345.808594 617.71875 346.070312 C 617.890625 346.328125 618.039062 346.597656 618.15625 346.886719 C 618.273438 347.171875 618.363281 347.46875 618.425781 347.773438 C 618.484375 348.078125 618.515625 348.386719 618.515625 348.695312 L 618.515625 375.78125 C 618.515625 376.089844 618.484375 376.398438 618.425781 376.703125 C 618.363281 377.007812 618.273438 377.304688 618.15625 377.589844 C 618.039062 377.878906 617.890625 378.148438 617.71875 378.410156 C 617.546875 378.667969 617.351562 378.90625 617.128906 379.125 C 616.910156 379.34375 616.671875 379.539062 616.414062 379.714844 C 616.15625 379.886719 615.882812 380.03125 615.597656 380.152344 C 615.308594 380.269531 615.015625 380.359375 614.710938 380.421875 C 614.40625 380.480469 614.097656 380.511719 613.785156 380.511719 Z M 613.785156 380.511719 " fill-opacity="1" fill-rule="nonzero"/><g mask="url(#294a499356)"><g transform="matrix(1, 0, 0, 1, 253, 501)"><g clip-path="url(#7ee7763ffd)"><path fill="#f27e8c" d="M 76.464844 30.265625 C 76.464844 31.105469 76.40625 31.949219 76.292969 32.785156 C 76.179688 33.625 76.011719 34.457031 75.789062 35.28125 C 75.5625 36.109375 75.285156 36.925781 74.949219 37.730469 C 74.617188 38.539062 74.230469 39.332031 73.789062 40.109375 C 73.347656 40.886719 72.855469 41.648438 72.3125 42.390625 C 71.773438 43.132812 71.179688 43.855469 70.542969 44.558594 C 69.902344 45.257812 69.21875 45.933594 68.488281 46.585938 C 67.757812 47.234375 66.984375 47.859375 66.171875 48.457031 C 65.359375 49.050781 64.507812 49.617188 63.617188 50.152344 C 62.726562 50.683594 61.804688 51.1875 60.847656 51.65625 C 59.890625 52.121094 58.90625 52.554688 57.890625 52.953125 C 56.875 53.347656 55.835938 53.710938 54.773438 54.03125 C 53.710938 54.355469 52.628906 54.636719 51.527344 54.882812 C 50.425781 55.125 49.3125 55.332031 48.183594 55.496094 C 47.054688 55.660156 45.917969 55.785156 44.773438 55.867188 C 43.625 55.949219 42.476562 55.988281 41.328125 55.988281 C 40.175781 55.988281 39.027344 55.949219 37.882812 55.867188 C 36.738281 55.785156 35.601562 55.660156 34.472656 55.496094 C 33.34375 55.332031 32.230469 55.125 31.128906 54.882812 C 30.027344 54.636719 28.945312 54.355469 27.882812 54.03125 C 26.820312 53.710938 25.78125 53.347656 24.765625 52.953125 C 23.75 52.554688 22.765625 52.121094 21.808594 51.65625 C 20.851562 51.1875 19.925781 50.683594 19.039062 50.152344 C 18.148438 49.617188 17.296875 49.050781 16.484375 48.457031 C 15.667969 47.859375 14.898438 47.234375 14.167969 46.585938 C 13.4375 45.933594 12.753906 45.257812 12.113281 44.558594 C 11.472656 43.855469 10.882812 43.132812 10.339844 42.390625 C 9.796875 41.648438 9.308594 40.886719 8.867188 40.109375 C 8.425781 39.332031 8.039062 38.539062 7.703125 37.730469 C 7.371094 36.925781 7.089844 36.109375 6.867188 35.28125 C 6.644531 34.457031 6.472656 33.625 6.359375 32.785156 C 6.25 31.949219 6.191406 31.105469 6.191406 30.265625 C 6.191406 29.421875 6.25 28.582031 6.359375 27.742188 C 6.472656 26.902344 6.644531 26.070312 6.867188 25.246094 C 7.089844 24.417969 7.371094 23.601562 7.703125 22.796875 C 8.039062 21.988281 8.425781 21.199219 8.867188 20.417969 C 9.308594 19.640625 9.796875 18.878906 10.339844 18.136719 C 10.882812 17.394531 11.472656 16.671875 12.113281 15.972656 C 12.753906 15.269531 13.4375 14.59375 14.167969 13.945312 C 14.898438 13.292969 15.667969 12.667969 16.484375 12.074219 C 17.296875 11.476562 18.148438 10.914062 19.039062 10.378906 C 19.925781 9.84375 20.851562 9.34375 21.808594 8.875 C 22.765625 8.40625 23.75 7.972656 24.765625 7.578125 C 25.78125 7.179688 26.820312 6.820312 27.882812 6.496094 C 28.945312 6.175781 30.027344 5.890625 31.128906 5.644531 C 32.230469 5.402344 33.34375 5.199219 34.472656 5.03125 C 35.601562 4.867188 36.738281 4.746094 37.882812 4.664062 C 39.027344 4.578125 40.175781 4.539062 41.328125 4.539062 C 42.476562 4.539062 43.625 4.578125 44.773438 4.664062 C 45.917969 4.746094 47.054688 4.867188 48.183594 5.03125 C 49.3125 5.199219 50.425781 5.402344 51.527344 5.644531 C 52.628906 5.890625 53.710938 6.175781 54.773438 6.496094 C 55.835938 6.820312 56.875 7.179688 57.890625 7.574219 C 58.90625 7.972656 59.890625 8.40625 60.847656 8.875 C 61.804688 9.34375 62.726562 9.84375 63.617188 10.378906 C 64.507812 10.914062 65.359375 11.476562 66.171875 12.074219 C 66.984375 12.667969 67.757812 13.292969 68.488281 13.945312 C 69.21875 14.59375 69.902344 15.269531 70.542969 15.972656 C 71.179688 16.671875 71.773438 17.394531 72.3125 18.136719 C 72.855469 18.878906 73.347656 19.640625 73.789062 20.417969 C 74.230469 21.199219 74.617188 21.988281 74.949219 22.796875 C 75.285156 23.601562 75.5625 24.417969 75.789062 25.246094 C 76.011719 26.070312 76.179688 26.902344 76.292969 27.742188 C 76.40625 28.582031 76.464844 29.421875 76.464844 30.265625 Z M 76.464844 30.265625 " fill-opacity="1" fill-rule="nonzero"/></g></g></g><g mask="url(#6713b4ee45)"><g transform="matrix(1, 0, 0, 1, 474, 501)"><g clip-path="url(#f4ce7158ba)"><path fill="#f27e8c" d="M 76.796875 30.265625 C 76.796875 31.105469 76.742188 31.949219 76.628906 32.785156 C 76.515625 33.625 76.347656 34.457031 76.121094 35.28125 C 75.898438 36.109375 75.617188 36.925781 75.285156 37.730469 C 74.949219 38.539062 74.5625 39.332031 74.121094 40.109375 C 73.683594 40.886719 73.191406 41.648438 72.648438 42.390625 C 72.105469 43.132812 71.515625 43.855469 70.875 44.558594 C 70.234375 45.257812 69.550781 45.933594 68.820312 46.585938 C 68.089844 47.234375 67.320312 47.859375 66.503906 48.457031 C 65.691406 49.050781 64.839844 49.617188 63.949219 50.152344 C 63.0625 50.683594 62.136719 51.1875 61.179688 51.65625 C 60.222656 52.121094 59.238281 52.554688 58.222656 52.953125 C 57.210938 53.347656 56.171875 53.710938 55.105469 54.03125 C 54.042969 54.355469 52.960938 54.636719 51.859375 54.882812 C 50.757812 55.125 49.644531 55.332031 48.515625 55.496094 C 47.386719 55.660156 46.25 55.785156 45.105469 55.867188 C 43.960938 55.949219 42.8125 55.988281 41.660156 55.988281 C 40.511719 55.988281 39.363281 55.949219 38.21875 55.867188 C 37.070312 55.785156 35.933594 55.660156 34.804688 55.496094 C 33.679688 55.332031 32.5625 55.125 31.460938 54.882812 C 30.359375 54.636719 29.277344 54.355469 28.214844 54.03125 C 27.152344 53.710938 26.113281 53.347656 25.097656 52.953125 C 24.082031 52.554688 23.097656 52.121094 22.140625 51.65625 C 21.183594 51.1875 20.261719 50.683594 19.371094 50.152344 C 18.480469 49.617188 17.628906 49.050781 16.816406 48.457031 C 16.003906 47.859375 15.230469 47.234375 14.5 46.585938 C 13.769531 45.933594 13.085938 45.257812 12.445312 44.558594 C 11.808594 43.855469 11.214844 43.132812 10.675781 42.390625 C 10.132812 41.648438 9.640625 40.886719 9.199219 40.109375 C 8.757812 39.332031 8.371094 38.539062 8.039062 37.730469 C 7.703125 36.925781 7.425781 36.109375 7.199219 35.28125 C 6.976562 34.457031 6.808594 33.625 6.695312 32.785156 C 6.582031 31.949219 6.527344 31.105469 6.527344 30.265625 C 6.527344 29.421875 6.582031 28.582031 6.695312 27.742188 C 6.808594 26.902344 6.976562 26.070312 7.199219 25.246094 C 7.425781 24.417969 7.703125 23.601562 8.039062 22.796875 C 8.371094 21.988281 8.757812 21.199219 9.199219 20.417969 C 9.640625 19.640625 10.132812 18.878906 10.675781 18.136719 C 11.214844 17.394531 11.808594 16.671875 12.445312 15.972656 C 13.085938 15.269531 13.769531 14.59375 14.5 13.945312 C 15.230469 13.292969 16.003906 12.667969 16.816406 12.074219 C 17.628906 11.476562 18.480469 10.914062 19.371094 10.378906 C 20.261719 9.84375 21.183594 9.34375 22.140625 8.875 C 23.097656 8.40625 24.082031 7.972656 25.097656 7.578125 C 26.113281 7.179688 27.152344 6.820312 28.214844 6.496094 C 29.277344 6.175781 30.359375 5.890625 31.460938 5.644531 C 32.5625 5.402344 33.679688 5.199219 34.804688 5.03125 C 35.933594 4.867188 37.070312 4.746094 38.21875 4.664062 C 39.363281 4.578125 40.511719 4.539062 41.660156 4.539062 C 42.8125 4.539062 43.960938 4.578125 45.105469 4.664062 C 46.25 4.746094 47.386719 4.867188 48.515625 5.03125 C 49.644531 5.199219 50.757812 5.402344 51.859375 5.644531 C 52.960938 5.890625 54.042969 6.175781 55.105469 6.496094 C 56.171875 6.820312 57.210938 7.179688 58.222656 7.574219 C 59.238281 7.972656 60.222656 8.40625 61.179688 8.875 C 62.136719 9.34375 63.0625 9.84375 63.949219 10.378906 C 64.839844 10.914062 65.691406 11.476562 66.503906 12.074219 C 67.320312 12.667969 68.089844 13.292969 68.820312 13.945312 C 69.550781 14.59375 70.234375 15.269531 70.875 15.972656 C 71.515625 16.671875 72.105469 17.394531 72.648438 18.136719 C 73.191406 18.878906 73.683594 19.640625 74.121094 20.417969 C 74.5625 21.199219 74.949219 21.988281 75.285156 22.796875 C 75.617188 23.601562 75.898438 24.417969 76.121094 25.246094 C 76.347656 26.070312 76.515625 26.902344 76.628906 27.742188 C 76.742188 28.582031 76.796875 29.421875 76.796875 30.265625 Z M 76.796875 30.265625 " fill-opacity="1" fill-rule="nonzero"/></g></g></g><path fill="#1d1d1b" d="M 357.070312 501.148438 C 357.070312 502.136719 357.019531 503.121094 356.921875 504.101562 C 356.828125 505.082031 356.683594 506.058594 356.488281 507.023438 C 356.296875 507.992188 356.058594 508.945312 355.773438 509.890625 C 355.484375 510.835938 355.152344 511.761719 354.777344 512.671875 C 354.398438 513.585938 353.976562 514.476562 353.511719 515.34375 C 353.046875 516.214844 352.539062 517.058594 351.992188 517.878906 C 351.445312 518.699219 350.859375 519.492188 350.234375 520.253906 C 349.605469 521.015625 348.945312 521.746094 348.246094 522.445312 C 347.550781 523.140625 346.820312 523.804688 346.058594 524.429688 C 345.296875 525.054688 344.503906 525.640625 343.683594 526.1875 C 342.863281 526.738281 342.019531 527.242188 341.148438 527.707031 C 340.28125 528.171875 339.390625 528.59375 338.476562 528.972656 C 337.566406 529.347656 336.640625 529.679688 335.695312 529.96875 C 334.75 530.253906 333.796875 530.492188 332.828125 530.6875 C 331.859375 530.878906 330.886719 531.023438 329.90625 531.121094 C 328.921875 531.214844 327.9375 531.265625 326.953125 531.265625 C 325.964844 531.265625 324.984375 531.214844 324 531.121094 C 323.019531 531.023438 322.046875 530.878906 321.078125 530.6875 C 320.109375 530.492188 319.15625 530.253906 318.210938 529.96875 C 317.265625 529.679688 316.339844 529.347656 315.429688 528.972656 C 314.515625 528.59375 313.625 528.171875 312.757812 527.707031 C 311.886719 527.242188 311.042969 526.738281 310.222656 526.1875 C 309.402344 525.640625 308.609375 525.054688 307.847656 524.429688 C 307.085938 523.804688 306.355469 523.140625 305.660156 522.445312 C 304.960938 521.746094 304.300781 521.015625 303.671875 520.253906 C 303.046875 519.492188 302.460938 518.699219 301.914062 517.878906 C 301.363281 517.058594 300.859375 516.214844 300.394531 515.34375 C 299.929688 514.476562 299.507812 513.585938 299.128906 512.671875 C 298.753906 511.761719 298.421875 510.835938 298.132812 509.890625 C 297.847656 508.945312 297.609375 507.992188 297.417969 507.023438 C 297.222656 506.058594 297.078125 505.082031 296.984375 504.101562 C 296.886719 503.121094 296.835938 502.136719 296.835938 501.148438 C 296.835938 500.164062 296.886719 499.179688 296.984375 498.195312 C 297.078125 497.214844 297.222656 496.242188 297.417969 495.273438 C 297.609375 494.304688 297.847656 493.351562 298.132812 492.40625 C 298.421875 491.464844 298.753906 490.535156 299.128906 489.625 C 299.507812 488.714844 299.929688 487.824219 300.394531 486.953125 C 300.859375 486.082031 301.363281 485.238281 301.914062 484.417969 C 302.460938 483.597656 303.046875 482.804688 303.671875 482.042969 C 304.300781 481.28125 304.960938 480.550781 305.660156 479.855469 C 306.355469 479.15625 307.085938 478.496094 307.847656 477.871094 C 308.609375 477.242188 309.402344 476.65625 310.222656 476.109375 C 311.042969 475.5625 311.886719 475.054688 312.757812 474.589844 C 313.625 474.125 314.515625 473.703125 315.429688 473.324219 C 316.339844 472.949219 317.265625 472.617188 318.210938 472.332031 C 319.15625 472.042969 320.109375 471.804688 321.078125 471.613281 C 322.046875 471.417969 323.019531 471.273438 324 471.179688 C 324.984375 471.082031 325.964844 471.035156 326.953125 471.035156 C 327.9375 471.035156 328.921875 471.082031 329.90625 471.179688 C 330.886719 471.273438 331.859375 471.417969 332.828125 471.613281 C 333.796875 471.804688 334.75 472.042969 335.695312 472.332031 C 336.640625 472.617188 337.566406 472.949219 338.476562 473.324219 C 339.390625 473.703125 340.28125 474.125 341.148438 474.589844 C 342.019531 475.054688 342.863281 475.5625 343.683594 476.109375 C 344.503906 476.65625 345.296875 477.242188 346.058594 477.871094 C 346.820312 478.496094 347.550781 479.15625 348.246094 479.855469 C 348.945312 480.550781 349.605469 481.28125 350.234375 482.042969 C 350.859375 482.804688 351.445312 483.597656 351.992188 484.417969 C 352.539062 485.238281 353.046875 486.082031 353.511719 486.953125 C 353.976562 487.824219 354.398438 488.714844 354.777344 489.625 C 355.152344 490.535156 355.484375 491.464844 355.773438 492.40625 C 356.058594 493.351562 356.296875 494.304688 356.488281 495.273438 C 356.683594 496.242188 356.828125 497.214844 356.921875 498.195312 C 357.019531 499.179688 357.070312 500.164062 357.070312 501.148438 Z M 357.070312 501.148438 " fill-opacity="1" fill-rule="nonzero"/><path fill="#1d1d1b" d="M 404.996094 556.386719 C 387.589844 556.386719 373.421875 545.117188 373.421875 531.265625 C 373.421875 530.976562 373.449219 530.6875 373.503906 530.402344 C 373.5625 530.117188 373.644531 529.839844 373.753906 529.570312 C 373.863281 529.300781 374 529.046875 374.160156 528.804688 C 374.320312 528.5625 374.503906 528.339844 374.710938 528.132812 C 374.914062 527.925781 375.140625 527.742188 375.378906 527.582031 C 375.621094 527.417969 375.875 527.28125 376.144531 527.171875 C 376.414062 527.058594 376.691406 526.976562 376.976562 526.917969 C 377.261719 526.863281 377.546875 526.832031 377.839844 526.832031 C 378.128906 526.832031 378.417969 526.863281 378.703125 526.917969 C 378.988281 526.976562 379.265625 527.058594 379.53125 527.171875 C 379.800781 527.28125 380.054688 527.417969 380.296875 527.582031 C 380.539062 527.742188 380.761719 527.925781 380.96875 528.132812 C 381.171875 528.339844 381.355469 528.5625 381.515625 528.804688 C 381.679688 529.046875 381.8125 529.300781 381.925781 529.570312 C 382.035156 529.839844 382.117188 530.117188 382.171875 530.402344 C 382.230469 530.6875 382.257812 530.976562 382.253906 531.265625 C 382.253906 540.25 392.453125 547.554688 404.996094 547.554688 C 417.535156 547.554688 427.734375 540.25 427.734375 531.265625 C 427.734375 530.976562 427.757812 530.6875 427.816406 530.402344 C 427.871094 530.117188 427.953125 529.839844 428.066406 529.570312 C 428.175781 529.300781 428.3125 529.046875 428.472656 528.804688 C 428.632812 528.5625 428.816406 528.339844 429.019531 528.132812 C 429.226562 527.925781 429.449219 527.742188 429.691406 527.582031 C 429.933594 527.417969 430.1875 527.28125 430.457031 527.171875 C 430.722656 527.058594 431 526.976562 431.285156 526.917969 C 431.570312 526.863281 431.859375 526.832031 432.148438 526.832031 C 432.441406 526.832031 432.726562 526.863281 433.011719 526.917969 C 433.296875 526.976562 433.574219 527.058594 433.84375 527.171875 C 434.113281 527.28125 434.367188 527.417969 434.609375 527.582031 C 434.851562 527.742188 435.074219 527.925781 435.277344 528.132812 C 435.484375 528.339844 435.667969 528.5625 435.828125 528.804688 C 435.988281 529.046875 436.125 529.300781 436.234375 529.570312 C 436.34375 529.839844 436.429688 530.117188 436.484375 530.402344 C 436.539062 530.6875 436.566406 530.976562 436.566406 531.265625 C 436.566406 545.117188 422.398438 556.386719 404.996094 556.386719 Z M 404.996094 556.386719 " fill-opacity="1" fill-rule="nonzero"/><path fill="#1d1d1b" d="M 513.152344 501.148438 C 513.152344 502.136719 513.101562 503.121094 513.007812 504.101562 C 512.910156 505.082031 512.765625 506.058594 512.570312 507.023438 C 512.378906 507.992188 512.140625 508.945312 511.855469 509.890625 C 511.566406 510.835938 511.234375 511.761719 510.859375 512.671875 C 510.480469 513.585938 510.058594 514.476562 509.59375 515.34375 C 509.128906 516.214844 508.625 517.058594 508.074219 517.878906 C 507.527344 518.699219 506.941406 519.492188 506.316406 520.253906 C 505.6875 521.015625 505.027344 521.746094 504.332031 522.445312 C 503.632812 523.140625 502.902344 523.804688 502.140625 524.429688 C 501.378906 525.054688 500.585938 525.640625 499.765625 526.1875 C 498.945312 526.738281 498.101562 527.242188 497.230469 527.707031 C 496.363281 528.171875 495.472656 528.59375 494.558594 528.972656 C 493.648438 529.347656 492.722656 529.679688 491.777344 529.96875 C 490.832031 530.253906 489.878906 530.492188 488.910156 530.6875 C 487.945312 530.878906 486.96875 531.023438 485.988281 531.121094 C 485.007812 531.214844 484.023438 531.265625 483.035156 531.265625 C 482.050781 531.265625 481.066406 531.214844 480.082031 531.121094 C 479.101562 531.023438 478.128906 530.878906 477.160156 530.6875 C 476.191406 530.492188 475.238281 530.253906 474.292969 529.96875 C 473.351562 529.679688 472.421875 529.347656 471.511719 528.972656 C 470.601562 528.59375 469.710938 528.171875 468.839844 527.707031 C 467.96875 527.242188 467.125 526.738281 466.304688 526.1875 C 465.484375 525.640625 464.691406 525.054688 463.929688 524.429688 C 463.167969 523.804688 462.4375 523.140625 461.742188 522.445312 C 461.042969 521.746094 460.382812 521.015625 459.757812 520.253906 C 459.128906 519.492188 458.542969 518.699219 457.996094 517.878906 C 457.449219 517.058594 456.941406 516.214844 456.476562 515.34375 C 456.011719 514.476562 455.589844 513.585938 455.210938 512.671875 C 454.835938 511.761719 454.503906 510.835938 454.21875 509.890625 C 453.929688 508.945312 453.691406 507.992188 453.5 507.023438 C 453.304688 506.058594 453.160156 505.082031 453.066406 504.101562 C 452.96875 503.121094 452.921875 502.136719 452.921875 501.148438 C 452.921875 500.164062 452.96875 499.179688 453.066406 498.195312 C 453.160156 497.214844 453.304688 496.242188 453.5 495.273438 C 453.691406 494.304688 453.929688 493.351562 454.21875 492.40625 C 454.503906 491.464844 454.835938 490.535156 455.210938 489.625 C 455.589844 488.714844 456.011719 487.824219 456.476562 486.953125 C 456.941406 486.082031 457.449219 485.238281 457.996094 484.417969 C 458.542969 483.597656 459.128906 482.804688 459.757812 482.042969 C 460.382812 481.28125 461.042969 480.550781 461.742188 479.855469 C 462.4375 479.15625 463.167969 478.496094 463.929688 477.871094 C 464.691406 477.242188 465.484375 476.65625 466.304688 476.109375 C 467.125 475.5625 467.96875 475.054688 468.839844 474.589844 C 469.710938 474.125 470.601562 473.703125 471.511719 473.324219 C 472.421875 472.949219 473.351562 472.617188 474.292969 472.332031 C 475.238281 472.042969 476.191406 471.804688 477.160156 471.613281 C 478.128906 471.417969 479.101562 471.273438 480.082031 471.179688 C 481.066406 471.082031 482.050781 471.035156 483.035156 471.035156 C 484.023438 471.035156 485.007812 471.082031 485.988281 471.179688 C 486.96875 471.273438 487.945312 471.417969 488.910156 471.613281 C 489.878906 471.804688 490.832031 472.042969 491.777344 472.332031 C 492.722656 472.617188 493.648438 472.949219 494.558594 473.324219 C 495.472656 473.703125 496.363281 474.125 497.230469 474.589844 C 498.101562 475.054688 498.945312 475.5625 499.765625 476.109375 C 500.585938 476.65625 501.378906 477.242188 502.140625 477.871094 C 502.902344 478.496094 503.632812 479.15625 504.332031 479.855469 C 505.027344 480.550781 505.6875 481.28125 506.316406 482.042969 C 506.941406 482.804688 507.527344 483.597656 508.074219 484.417969 C 508.625 485.238281 509.128906 486.082031 509.59375 486.953125 C 510.058594 487.824219 510.480469 488.714844 510.859375 489.625 C 511.234375 490.535156 511.566406 491.464844 511.855469 492.40625 C 512.140625 493.351562 512.378906 494.304688 512.570312 495.273438 C 512.765625 496.242188 512.910156 497.214844 513.007812 498.195312 C 513.101562 499.179688 513.152344 500.164062 513.152344 501.148438 Z M 513.152344 501.148438 " fill-opacity="1" fill-rule="nonzero"/></svg>