<svg xmlns="http://www.w3.org/2000/svg" xmlns:xlink="http://www.w3.org/1999/xlink" width="1080" zoomAndPan="magnify" viewBox="0 0 810 1012.49997" height="1350" preserveAspectRatio="xMidYMid meet" version="1.0"><defs><clipPath id="d99c4d371e"><path d="M 41 220.554688 L 769 220.554688 L 769 791.773438 L 41 791.773438 Z M 41 220.554688 " clip-rule="nonzero"/></clipPath><clipPath id="baf749aeec"><path d="M 462 753 L 578 753 L 578 791.773438 L 462 791.773438 Z M 462 753 " clip-rule="nonzero"/></clipPath><clipPath id="36a9fa7c30"><path d="M 270 220.554688 L 425 220.554688 L 425 259 L 270 259 Z M 270 220.554688 " clip-rule="nonzero"/></clipPath></defs><g clip-path="url(#d99c4d371e)"><path fill="#ffffff" d="M 730.648438 639.230469 L 730.648438 601.195312 L 615.675781 601.195312 L 615.675781 563.085938 L 577.421875 563.085938 L 577.421875 487.019531 L 539.097656 487.019531 L 539.097656 334.734375 L 500.773438 334.734375 L 500.773438 296.699219 L 462.449219 296.699219 L 462.449219 258.664062 L 424.125 258.664062 L 424.125 220.554688 L 270.898438 220.554688 L 270.898438 258.664062 L 232.574219 258.664062 L 232.574219 296.699219 L 194.324219 296.699219 L 194.324219 334.734375 L 156 334.734375 L 156 487.019531 L 79.351562 487.019531 L 79.351562 525.050781 L 41.027344 525.050781 L 41.027344 601.195312 L 79.351562 601.195312 L 79.351562 639.230469 L 117.675781 639.230469 L 117.675781 601.195312 L 194.324219 601.195312 L 194.324219 563.085938 L 232.574219 563.085938 L 232.574219 639.230469 L 270.898438 639.230469 L 270.898438 715.371094 L 347.546875 715.371094 L 347.546875 753.40625 L 462.449219 753.40625 L 462.449219 791.441406 L 577.421875 791.441406 L 577.421875 753.40625 L 654 753.40625 L 654 715.371094 L 730.648438 715.371094 L 730.648438 677.265625 L 768.972656 677.265625 L 768.972656 639.230469 Z M 730.648438 639.230469 " fill-opacity="1" fill-rule="nonzero"/></g><path fill="#031212" d="M 566.679688 651.175781 L 555.832031 601.761719 L 529.320312 577.257812 L 514.859375 537.890625 L 500.804688 486.980469 L 469.863281 380.011719 L 462.480469 334.699219 L 443.324219 315.714844 L 400.367188 275.964844 L 378.875 247.644531 L 270.933594 258.628906 L 270.933594 296.664062 L 232.609375 296.664062 L 232.609375 334.699219 L 194.355469 334.699219 L 194.355469 486.980469 L 253.46875 486.980469 L 232.609375 563.050781 L 270.933594 563.050781 L 270.933594 639.195312 L 309.257812 639.195312 L 309.257812 677.230469 L 347.546875 677.230469 L 385.90625 715.335938 L 462.480469 715.335938 L 462.480469 753.371094 L 577.453125 753.371094 L 577.453125 715.335938 L 620.375 697.105469 L 643.140625 666.574219 L 685.992188 663.226562 L 689.605469 647.558594 Z M 566.679688 651.175781 " fill-opacity="1" fill-rule="nonzero"/><path fill="#031212" d="M 117.675781 525.050781 L 79.351562 525.050781 L 79.351562 601.195312 L 117.675781 601.195312 L 117.675781 563.085938 L 133.019531 555.566406 L 172.792969 551.144531 L 168.371094 537.085938 L 144.269531 541.101562 Z M 117.675781 525.050781 " fill-opacity="1" fill-rule="nonzero"/><path fill="#737373" d="M 692.324219 639.230469 L 595.132812 639.230469 L 597.613281 586.496094 L 577.421875 563.085938 L 559.851562 538.023438 L 558.261719 504.277344 L 539.097656 487.019531 L 506.621094 467.585938 L 511.910156 457.410156 L 521.6875 421.390625 L 519.9375 381.617188 L 514.054688 352.695312 L 500.773438 334.734375 L 479.304688 317.945312 L 462.449219 296.699219 L 444.15625 276.367188 L 424.125 258.664062 L 385.871094 258.664062 L 385.871094 296.699219 L 389.25 320.289062 L 424.125 334.734375 L 424.125 351.488281 L 437.054688 395.738281 L 376.265625 396.484375 L 363.808594 465.175781 L 441.980469 461.5625 L 443.324219 494.101562 L 467.453125 501.867188 L 470.667969 512.3125 L 478.96875 549.003906 L 482.316406 587.703125 L 447.769531 578.863281 L 405 588.503906 L 417.585938 621.886719 L 399.429688 620.210938 L 390.859375 582.140625 L 328.386719 591.851562 L 320.960938 658.246094 L 356.042969 653.988281 L 364.414062 690.34375 L 436.121094 690.140625 L 440.359375 650.574219 L 446.964844 655.191406 L 474.6875 662.421875 L 518.070312 664.429688 L 533.335938 677.265625 L 572.972656 697.371094 L 627.609375 693.085938 L 654 677.265625 L 730.648438 677.265625 L 730.648438 639.230469 Z M 692.324219 639.230469 " fill-opacity="1" fill-rule="nonzero"/><path fill="#737373" d="M 363.808594 471.605469 L 299.535156 467.585938 L 284.269531 534.675781 L 360.597656 542.308594 Z M 363.808594 471.605469 " fill-opacity="1" fill-rule="nonzero"/><path fill="#737373" d="M 215.171875 465.175781 L 284.269531 465.175781 L 285.472656 396.882812 L 226.21875 395.078125 Z M 215.171875 465.175781 " fill-opacity="1" fill-rule="nonzero"/><path fill="#737373" d="M 156 563.085938 L 194.324219 563.085938 L 210.351562 495.304688 L 156 525.050781 Z M 156 563.085938 " fill-opacity="1" fill-rule="nonzero"/><path fill="#545454" d="M 615.675781 677.265625 L 577.421875 677.265625 L 577.421875 639.230469 L 424.125 639.230469 L 424.125 677.265625 L 462.449219 677.265625 L 462.449219 715.371094 L 654 715.371094 L 654 677.265625 Z M 615.675781 677.265625 " fill-opacity="1" fill-rule="nonzero"/><path fill="#545454" d="M 424.125 525.050781 L 424.125 563.085938 L 500.773438 563.085938 L 500.773438 525.050781 Z M 424.125 525.050781 " fill-opacity="1" fill-rule="nonzero"/><path fill="#545454" d="M 462.449219 487.019531 L 462.449219 334.734375 L 424.125 334.734375 L 424.125 296.699219 L 385.871094 296.699219 L 385.871094 258.664062 L 309.222656 258.664062 L 309.222656 296.699219 L 270.898438 296.699219 L 270.898438 334.734375 L 232.574219 334.734375 L 232.574219 372.839844 L 270.898438 372.839844 L 270.898438 448.910156 L 232.574219 448.910156 L 232.574219 525.050781 L 270.898438 525.050781 L 270.898438 563.085938 L 309.222656 563.085938 L 309.222656 639.230469 L 347.546875 639.230469 L 347.546875 525.050781 L 309.222656 525.050781 L 309.222656 410.875 L 347.546875 410.875 L 347.546875 525.050781 L 385.871094 525.050781 L 385.871094 487.015625 L 462.449219 487.015625 Z M 385.871094 448.910156 L 385.871094 372.839844 L 424.125 372.839844 L 424.125 448.910156 Z M 385.871094 448.910156 " fill-opacity="1" fill-rule="nonzero"/><path fill="#545454" d="M 347.546875 639.230469 L 385.871094 639.230469 L 385.871094 690.140625 L 347.546875 690.140625 Z M 347.546875 639.230469 " fill-opacity="1" fill-rule="nonzero"/><path fill="#545454" d="M 117.675781 525.054688 L 156 525.054688 L 156 563.085938 L 117.675781 563.085938 Z M 117.675781 525.054688 " fill-opacity="1" fill-rule="nonzero"/><path fill="#031212" d="M 539.097656 715.371094 L 462.449219 715.371094 L 462.449219 753.40625 L 577.421875 753.40625 L 577.421875 715.371094 Z M 539.097656 715.371094 " fill-opacity="1" fill-rule="nonzero"/><path fill="#031212" d="M 424.125 677.265625 L 385.871094 677.265625 L 385.871094 715.371094 L 462.449219 715.371094 L 462.449219 677.265625 Z M 424.125 677.265625 " fill-opacity="1" fill-rule="nonzero"/><path fill="#031212" d="M 424.125 563.085938 L 424.125 525.050781 L 385.871094 525.050781 L 385.871094 601.195312 L 424.125 601.195312 Z M 424.125 563.085938 " fill-opacity="1" fill-rule="nonzero"/><path fill="#031212" d="M 309.222656 639.230469 L 347.546875 639.230469 L 347.546875 677.265625 L 309.222656 677.265625 Z M 309.222656 639.230469 " fill-opacity="1" fill-rule="nonzero"/><path fill="#031212" d="M 309.222656 563.085938 L 270.898438 563.085938 L 270.898438 639.230469 L 309.222656 639.230469 Z M 309.222656 563.085938 " fill-opacity="1" fill-rule="nonzero"/><path fill="#031212" d="M 270.898438 258.664062 L 309.222656 258.664062 L 309.222656 296.699219 L 270.898438 296.699219 Z M 270.898438 258.664062 " fill-opacity="1" fill-rule="nonzero"/><path fill="#031212" d="M 232.574219 525.054688 L 270.898438 525.054688 L 270.898438 563.085938 L 232.574219 563.085938 Z M 232.574219 525.054688 " fill-opacity="1" fill-rule="nonzero"/><path fill="#031212" d="M 232.574219 296.699219 L 270.898438 296.699219 L 270.898438 334.734375 L 232.574219 334.734375 Z M 232.574219 296.699219 " fill-opacity="1" fill-rule="nonzero"/><path fill="#031212" d="M 232.574219 448.910156 L 232.574219 334.734375 L 194.324219 334.734375 L 194.324219 487.019531 L 232.574219 487.019531 Z M 232.574219 448.910156 " fill-opacity="1" fill-rule="nonzero"/><path fill="#031212" d="M 79.351562 563.085938 L 79.351562 601.195312 L 117.675781 601.195312 L 117.675781 525.050781 L 79.351562 525.050781 Z M 79.351562 563.085938 " fill-opacity="1" fill-rule="nonzero"/><path fill="#ffffff" d="M 730.648438 639.230469 L 768.972656 639.230469 L 768.972656 677.265625 L 730.648438 677.265625 Z M 730.648438 639.230469 " fill-opacity="1" fill-rule="nonzero"/><path fill="#ffffff" d="M 654 677.265625 L 654 715.371094 L 730.648438 715.371094 L 730.648438 677.265625 Z M 654 677.265625 " fill-opacity="1" fill-rule="nonzero"/><path fill="#ffffff" d="M 577.421875 715.371094 L 577.421875 753.40625 L 654 753.40625 L 654 715.371094 Z M 577.421875 715.371094 " fill-opacity="1" fill-rule="nonzero"/><path fill="#ffffff" d="M 577.421875 639.230469 L 730.648438 639.230469 L 730.648438 601.195312 L 615.675781 601.195312 L 615.675781 563.085938 L 577.421875 563.085938 Z M 577.421875 639.230469 " fill-opacity="1" fill-rule="nonzero"/><path fill="#ffffff" d="M 539.097656 563.085938 L 577.421875 563.085938 L 577.421875 487.019531 L 539.097656 487.019531 Z M 539.097656 563.085938 " fill-opacity="1" fill-rule="nonzero"/><g clip-path="url(#baf749aeec)"><path fill="#ffffff" d="M 500.773438 753.40625 L 462.449219 753.40625 L 462.449219 791.441406 L 577.421875 791.441406 L 577.421875 753.40625 Z M 500.773438 753.40625 " fill-opacity="1" fill-rule="nonzero"/></g><path fill="#ffffff" d="M 500.773438 410.875 L 500.773438 487.019531 L 539.097656 487.019531 L 539.097656 334.734375 L 500.773438 334.734375 Z M 500.773438 410.875 " fill-opacity="1" fill-rule="nonzero"/><path fill="#ffffff" d="M 500.773438 601.195312 L 500.773438 563.085938 L 424.125 563.085938 L 424.125 601.195312 Z M 500.773438 601.195312 " fill-opacity="1" fill-rule="nonzero"/><path fill="#ffffff" d="M 462.449219 296.699219 L 500.773438 296.699219 L 500.773438 334.734375 L 462.449219 334.734375 Z M 462.449219 296.699219 " fill-opacity="1" fill-rule="nonzero"/><path fill="#ffffff" d="M 424.125 715.371094 L 385.871094 715.371094 L 385.871094 677.265625 L 309.222656 677.265625 L 309.222656 639.230469 L 270.898438 639.230469 L 270.898438 715.371094 L 347.546875 715.371094 L 347.546875 753.40625 L 462.449219 753.40625 L 462.449219 715.371094 Z M 424.125 715.371094 " fill-opacity="1" fill-rule="nonzero"/><path fill="#ffffff" d="M 424.125 487.019531 L 385.871094 487.019531 L 385.871094 525.050781 L 500.773438 525.050781 L 500.773438 487.019531 Z M 424.125 487.019531 " fill-opacity="1" fill-rule="nonzero"/><path fill="#ffffff" d="M 424.125 258.664062 L 462.449219 258.664062 L 462.449219 296.699219 L 424.125 296.699219 Z M 424.125 258.664062 " fill-opacity="1" fill-rule="nonzero"/><path fill="#ffffff" d="M 385.871094 601.195312 L 424.125 601.195312 L 424.125 639.230469 L 385.871094 639.230469 Z M 385.871094 601.195312 " fill-opacity="1" fill-rule="nonzero"/><path fill="#ffffff" d="M 385.871094 372.839844 L 424.125 372.839844 L 424.125 410.875 L 385.871094 410.875 Z M 385.871094 372.839844 " fill-opacity="1" fill-rule="nonzero"/><path fill="#ffffff" d="M 347.546875 563.085938 L 347.546875 601.195312 L 385.871094 601.195312 L 385.871094 525.050781 L 347.546875 525.050781 Z M 347.546875 563.085938 " fill-opacity="1" fill-rule="nonzero"/><path fill="#ffffff" d="M 347.546875 448.910156 L 347.546875 410.875 L 309.222656 410.875 L 309.222656 487.019531 L 347.546875 487.019531 Z M 347.546875 448.910156 " fill-opacity="1" fill-rule="nonzero"/><g clip-path="url(#36a9fa7c30)"><path fill="#ffffff" d="M 347.546875 258.664062 L 424.125 258.664062 L 424.125 220.554688 L 270.898438 220.554688 L 270.898438 258.664062 Z M 347.546875 258.664062 " fill-opacity="1" fill-rule="nonzero"/></g><path fill="#ffffff" d="M 270.898438 563.085938 L 232.574219 563.085938 L 232.574219 639.230469 L 270.898438 639.230469 Z M 270.898438 563.085938 " fill-opacity="1" fill-rule="nonzero"/><path fill="#ffffff" d="M 232.574219 372.839844 L 270.898438 372.839844 L 270.898438 410.875 L 232.574219 410.875 Z M 232.574219 372.839844 " fill-opacity="1" fill-rule="nonzero"/><path fill="#ffffff" d="M 232.574219 258.664062 L 270.898438 258.664062 L 270.898438 296.699219 L 232.574219 296.699219 Z M 232.574219 258.664062 " fill-opacity="1" fill-rule="nonzero"/><path fill="#ffffff" d="M 232.574219 487.019531 L 194.324219 487.019531 L 194.324219 334.734375 L 156 334.734375 L 156 487.019531 L 79.351562 487.019531 L 79.351562 525.050781 L 194.324219 525.050781 L 194.324219 563.085938 L 232.574219 563.085938 Z M 232.574219 487.019531 " fill-opacity="1" fill-rule="nonzero"/><path fill="#ffffff" d="M 194.324219 296.699219 L 232.574219 296.699219 L 232.574219 334.734375 L 194.324219 334.734375 Z M 194.324219 296.699219 " fill-opacity="1" fill-rule="nonzero"/><path fill="#ffffff" d="M 117.675781 563.085938 L 117.675781 601.195312 L 194.324219 601.195312 L 194.324219 563.085938 Z M 117.675781 563.085938 " fill-opacity="1" fill-rule="nonzero"/><path fill="#ffffff" d="M 79.351562 601.195312 L 117.675781 601.195312 L 117.675781 639.230469 L 79.351562 639.230469 Z M 79.351562 601.195312 " fill-opacity="1" fill-rule="nonzero"/><path fill="#ffffff" d="M 79.351562 525.050781 L 41.027344 525.050781 L 41.027344 601.195312 L 79.351562 601.195312 Z M 79.351562 525.050781 " fill-opacity="1" fill-rule="nonzero"/></svg>