<svg xmlns="http://www.w3.org/2000/svg" xmlns:xlink="http://www.w3.org/1999/xlink" width="1080" zoomAndPan="magnify" viewBox="0 0 810 1012.49997" height="1350" preserveAspectRatio="xMidYMid meet" version="1.0"><defs><clipPath id="d566f70f54"><path d="M 41 220.554688 L 769.4375 220.554688 L 769.4375 791.773438 L 41 791.773438 Z M 41 220.554688 " clip-rule="nonzero"/></clipPath><clipPath id="250355a716"><path d="M 730 639 L 769.4375 639 L 769.4375 678 L 730 678 Z M 730 639 " clip-rule="nonzero"/></clipPath><clipPath id="4b7cbf1506"><path d="M 462 753 L 578 753 L 578 791.773438 L 462 791.773438 Z M 462 753 " clip-rule="nonzero"/></clipPath><clipPath id="5e3b500d76"><path d="M 270 220.554688 L 425 220.554688 L 425 259 L 270 259 Z M 270 220.554688 " clip-rule="nonzero"/></clipPath></defs><g clip-path="url(#d566f70f54)"><path fill="#3b2714" d="M 730.867188 639.480469 L 730.867188 601.421875 L 615.859375 601.421875 L 615.859375 563.292969 L 577.59375 563.292969 L 577.59375 487.175781 L 539.257812 487.175781 L 539.257812 334.800781 L 500.921875 334.800781 L 500.921875 296.742188 L 462.585938 296.742188 L 462.585938 258.6875 L 424.25 258.6875 L 424.25 220.554688 L 270.972656 220.554688 L 270.972656 258.6875 L 232.636719 258.6875 L 232.636719 296.742188 L 194.375 296.742188 L 194.375 334.800781 L 156.035156 334.800781 L 156.035156 487.175781 L 79.363281 487.175781 L 79.363281 525.234375 L 41.027344 525.234375 L 41.027344 601.421875 L 79.363281 601.421875 L 79.363281 639.480469 L 117.699219 639.480469 L 117.699219 601.421875 L 194.375 601.421875 L 194.375 563.292969 L 232.636719 563.292969 L 232.636719 639.480469 L 270.972656 639.480469 L 270.972656 715.667969 L 347.648438 715.667969 L 347.648438 753.726562 L 462.585938 753.726562 L 462.585938 791.78125 L 577.59375 791.78125 L 577.59375 753.726562 L 654.195312 753.726562 L 654.195312 715.667969 L 730.867188 715.667969 L 730.867188 677.535156 L 769.207031 677.535156 L 769.207031 639.480469 Z M 730.867188 639.480469 " fill-opacity="1" fill-rule="nonzero"/></g><path fill="#ffffff" d="M 566.847656 651.429688 L 556 601.988281 L 529.476562 577.46875 L 515.011719 538.078125 L 500.953125 487.140625 L 470.003906 380.105469 L 462.617188 334.765625 L 443.453125 315.773438 L 400.484375 276 L 378.984375 247.660156 L 271.003906 258.648438 L 271.003906 296.707031 L 232.667969 296.707031 L 232.667969 334.765625 L 194.40625 334.765625 L 194.40625 487.140625 L 253.539062 487.140625 L 232.667969 563.257812 L 271.003906 563.257812 L 271.003906 639.445312 L 309.34375 639.445312 L 309.34375 677.5 L 347.648438 677.5 L 386.015625 715.632812 L 462.617188 715.632812 L 462.617188 753.691406 L 577.625 753.691406 L 577.625 715.632812 L 620.5625 697.386719 L 643.335938 666.839844 L 686.199219 663.488281 L 689.816406 647.8125 Z M 566.847656 651.429688 " fill-opacity="1" fill-rule="nonzero"/><path fill="#ffffff" d="M 117.699219 525.234375 L 79.363281 525.234375 L 79.363281 601.421875 L 117.699219 601.421875 L 117.699219 563.292969 L 133.050781 555.765625 L 172.832031 551.34375 L 168.414062 537.273438 L 144.300781 541.292969 Z M 117.699219 525.234375 " fill-opacity="1" fill-rule="nonzero"/><path fill="#b0ebff" d="M 692.53125 639.480469 L 595.3125 639.480469 L 597.792969 586.714844 L 577.59375 563.292969 L 560.015625 538.210938 L 558.425781 504.445312 L 539.257812 487.175781 L 506.773438 467.734375 L 512.0625 457.550781 L 521.84375 421.507812 L 520.089844 381.714844 L 514.207031 352.773438 L 500.921875 334.800781 L 479.445312 318.003906 L 462.585938 296.742188 L 444.285156 276.402344 L 424.25 258.6875 L 385.984375 258.6875 L 385.984375 296.742188 L 389.363281 320.347656 L 424.25 334.800781 L 424.25 351.566406 L 437.179688 395.839844 L 376.371094 396.585938 L 363.914062 465.324219 L 442.109375 461.707031 L 443.453125 494.265625 L 467.59375 502.035156 L 470.804688 512.484375 L 479.109375 549.199219 L 482.460938 587.921875 L 447.902344 579.078125 L 405.117188 588.726562 L 417.707031 622.125 L 399.542969 620.449219 L 390.972656 582.355469 L 328.480469 592.074219 L 321.050781 658.507812 L 356.144531 654.246094 L 364.515625 690.621094 L 436.246094 690.421875 L 440.488281 650.832031 L 447.097656 655.449219 L 474.824219 662.6875 L 518.226562 664.695312 L 533.496094 677.535156 L 573.144531 697.65625 L 627.796875 693.367188 L 654.195312 677.535156 L 730.867188 677.535156 L 730.867188 639.480469 Z M 692.53125 639.480469 " fill-opacity="1" fill-rule="nonzero"/><path fill="#b0ebff" d="M 363.914062 471.753906 L 299.617188 467.734375 L 284.347656 534.863281 L 360.699219 542.5 Z M 363.914062 471.753906 " fill-opacity="1" fill-rule="nonzero"/><path fill="#b0ebff" d="M 215.230469 465.324219 L 284.347656 465.324219 L 285.554688 396.988281 L 226.28125 395.179688 Z M 215.230469 465.324219 " fill-opacity="1" fill-rule="nonzero"/><path fill="#b0ebff" d="M 156.035156 563.292969 L 194.375 563.292969 L 210.40625 495.46875 L 156.035156 525.234375 Z M 156.035156 563.292969 " fill-opacity="1" fill-rule="nonzero"/><path fill="#ebfaff" d="M 615.859375 677.535156 L 577.59375 677.535156 L 577.59375 639.480469 L 424.25 639.480469 L 424.25 677.535156 L 462.585938 677.535156 L 462.585938 715.667969 L 654.195312 715.667969 L 654.195312 677.535156 Z M 615.859375 677.535156 " fill-opacity="1" fill-rule="nonzero"/><path fill="#ebfaff" d="M 424.25 525.234375 L 424.25 563.292969 L 500.921875 563.292969 L 500.921875 525.234375 Z M 424.25 525.234375 " fill-opacity="1" fill-rule="nonzero"/><path fill="#ebfaff" d="M 462.585938 487.175781 L 462.585938 334.800781 L 424.25 334.800781 L 424.25 296.742188 L 385.984375 296.742188 L 385.984375 258.6875 L 309.3125 258.6875 L 309.3125 296.742188 L 270.972656 296.742188 L 270.972656 334.800781 L 232.636719 334.800781 L 232.636719 372.929688 L 270.972656 372.929688 L 270.972656 449.046875 L 232.636719 449.046875 L 232.636719 525.234375 L 270.972656 525.234375 L 270.972656 563.292969 L 309.3125 563.292969 L 309.3125 639.480469 L 347.648438 639.480469 L 347.648438 525.234375 L 309.3125 525.234375 L 309.3125 410.988281 L 347.648438 410.988281 L 347.648438 525.234375 L 385.984375 525.234375 L 385.984375 487.175781 Z M 385.984375 449.046875 L 385.984375 372.929688 L 424.25 372.929688 L 424.25 449.046875 Z M 385.984375 449.046875 " fill-opacity="1" fill-rule="nonzero"/><path fill="#ebfaff" d="M 347.648438 639.480469 L 385.984375 639.480469 L 385.984375 690.421875 L 347.648438 690.421875 Z M 347.648438 639.480469 " fill-opacity="1" fill-rule="nonzero"/><path fill="#ebfaff" d="M 117.699219 525.234375 L 156.035156 525.234375 L 156.035156 563.292969 L 117.699219 563.292969 Z M 117.699219 525.234375 " fill-opacity="1" fill-rule="nonzero"/><path fill="#ffffff" d="M 539.257812 715.667969 L 462.585938 715.667969 L 462.585938 753.726562 L 577.59375 753.726562 L 577.59375 715.667969 Z M 539.257812 715.667969 " fill-opacity="1" fill-rule="nonzero"/><path fill="#ffffff" d="M 424.25 677.535156 L 385.984375 677.535156 L 385.984375 715.667969 L 462.585938 715.667969 L 462.585938 677.535156 Z M 424.25 677.535156 " fill-opacity="1" fill-rule="nonzero"/><path fill="#ffffff" d="M 424.25 563.292969 L 424.25 525.234375 L 385.984375 525.234375 L 385.984375 601.421875 L 424.25 601.421875 Z M 424.25 563.292969 " fill-opacity="1" fill-rule="nonzero"/><path fill="#ffffff" d="M 309.3125 639.480469 L 347.648438 639.480469 L 347.648438 677.535156 L 309.3125 677.535156 Z M 309.3125 639.480469 " fill-opacity="1" fill-rule="nonzero"/><path fill="#ffffff" d="M 309.3125 563.292969 L 270.972656 563.292969 L 270.972656 639.480469 L 309.3125 639.480469 Z M 309.3125 563.292969 " fill-opacity="1" fill-rule="nonzero"/><path fill="#ffffff" d="M 270.972656 258.683594 L 309.3125 258.683594 L 309.3125 296.742188 L 270.972656 296.742188 Z M 270.972656 258.683594 " fill-opacity="1" fill-rule="nonzero"/><path fill="#ffffff" d="M 232.636719 525.234375 L 270.972656 525.234375 L 270.972656 563.292969 L 232.636719 563.292969 Z M 232.636719 525.234375 " fill-opacity="1" fill-rule="nonzero"/><path fill="#ffffff" d="M 232.636719 296.742188 L 270.972656 296.742188 L 270.972656 334.800781 L 232.636719 334.800781 Z M 232.636719 296.742188 " fill-opacity="1" fill-rule="nonzero"/><path fill="#ffffff" d="M 232.636719 449.046875 L 232.636719 334.800781 L 194.375 334.800781 L 194.375 487.175781 L 232.636719 487.175781 Z M 232.636719 449.046875 " fill-opacity="1" fill-rule="nonzero"/><path fill="#ffffff" d="M 79.363281 563.292969 L 79.363281 601.421875 L 117.699219 601.421875 L 117.699219 525.234375 L 79.363281 525.234375 Z M 79.363281 563.292969 " fill-opacity="1" fill-rule="nonzero"/><g clip-path="url(#250355a716)"><path fill="#3b2714" d="M 730.867188 639.480469 L 769.207031 639.480469 L 769.207031 677.535156 L 730.867188 677.535156 Z M 730.867188 639.480469 " fill-opacity="1" fill-rule="nonzero"/></g><path fill="#3b2714" d="M 654.195312 677.535156 L 654.195312 715.667969 L 730.867188 715.667969 L 730.867188 677.535156 Z M 654.195312 677.535156 " fill-opacity="1" fill-rule="nonzero"/><path fill="#3b2714" d="M 577.59375 715.667969 L 577.59375 753.726562 L 654.195312 753.726562 L 654.195312 715.667969 Z M 577.59375 715.667969 " fill-opacity="1" fill-rule="nonzero"/><path fill="#3b2714" d="M 577.59375 639.480469 L 730.867188 639.480469 L 730.867188 601.421875 L 615.859375 601.421875 L 615.859375 563.292969 L 577.59375 563.292969 Z M 577.59375 639.480469 " fill-opacity="1" fill-rule="nonzero"/><path fill="#3b2714" d="M 539.257812 563.292969 L 577.59375 563.292969 L 577.59375 487.175781 L 539.257812 487.175781 Z M 539.257812 563.292969 " fill-opacity="1" fill-rule="nonzero"/><g clip-path="url(#4b7cbf1506)"><path fill="#3b2714" d="M 500.921875 753.726562 L 462.585938 753.726562 L 462.585938 791.78125 L 577.59375 791.78125 L 577.59375 753.726562 Z M 500.921875 753.726562 " fill-opacity="1" fill-rule="nonzero"/></g><path fill="#3b2714" d="M 500.921875 410.988281 L 500.921875 487.175781 L 539.257812 487.175781 L 539.257812 334.800781 L 500.921875 334.800781 Z M 500.921875 410.988281 " fill-opacity="1" fill-rule="nonzero"/><path fill="#3b2714" d="M 500.921875 601.421875 L 500.921875 563.292969 L 424.25 563.292969 L 424.25 601.421875 Z M 500.921875 601.421875 " fill-opacity="1" fill-rule="nonzero"/><path fill="#3b2714" d="M 462.585938 296.742188 L 500.921875 296.742188 L 500.921875 334.800781 L 462.585938 334.800781 Z M 462.585938 296.742188 " fill-opacity="1" fill-rule="nonzero"/><path fill="#3b2714" d="M 424.25 715.667969 L 385.984375 715.667969 L 385.984375 677.535156 L 309.3125 677.535156 L 309.3125 639.480469 L 270.972656 639.480469 L 270.972656 715.667969 L 347.648438 715.667969 L 347.648438 753.726562 L 462.585938 753.726562 L 462.585938 715.667969 Z M 424.25 715.667969 " fill-opacity="1" fill-rule="nonzero"/><path fill="#3b2714" d="M 424.25 487.175781 L 385.984375 487.175781 L 385.984375 525.234375 L 500.921875 525.234375 L 500.921875 487.175781 Z M 424.25 487.175781 " fill-opacity="1" fill-rule="nonzero"/><path fill="#3b2714" d="M 424.25 258.683594 L 462.585938 258.683594 L 462.585938 296.742188 L 424.25 296.742188 Z M 424.25 258.683594 " fill-opacity="1" fill-rule="nonzero"/><path fill="#3b2714" d="M 385.984375 601.421875 L 424.25 601.421875 L 424.25 639.480469 L 385.984375 639.480469 Z M 385.984375 601.421875 " fill-opacity="1" fill-rule="nonzero"/><path fill="#3b2714" d="M 385.984375 372.929688 L 424.25 372.929688 L 424.25 410.988281 L 385.984375 410.988281 Z M 385.984375 372.929688 " fill-opacity="1" fill-rule="nonzero"/><path fill="#3b2714" d="M 347.648438 563.292969 L 347.648438 601.421875 L 385.984375 601.421875 L 385.984375 525.234375 L 347.648438 525.234375 Z M 347.648438 563.292969 " fill-opacity="1" fill-rule="nonzero"/><path fill="#3b2714" d="M 347.648438 449.046875 L 347.648438 410.988281 L 309.3125 410.988281 L 309.3125 487.175781 L 347.648438 487.175781 Z M 347.648438 449.046875 " fill-opacity="1" fill-rule="nonzero"/><g clip-path="url(#5e3b500d76)"><path fill="#3b2714" d="M 347.648438 258.6875 L 424.25 258.6875 L 424.25 220.554688 L 270.972656 220.554688 L 270.972656 258.6875 Z M 347.648438 258.6875 " fill-opacity="1" fill-rule="nonzero"/></g><path fill="#3b2714" d="M 270.972656 563.292969 L 232.636719 563.292969 L 232.636719 639.480469 L 270.972656 639.480469 Z M 270.972656 563.292969 " fill-opacity="1" fill-rule="nonzero"/><path fill="#3b2714" d="M 232.636719 372.929688 L 270.972656 372.929688 L 270.972656 410.988281 L 232.636719 410.988281 Z M 232.636719 372.929688 " fill-opacity="1" fill-rule="nonzero"/><path fill="#3b2714" d="M 232.636719 258.683594 L 270.972656 258.683594 L 270.972656 296.742188 L 232.636719 296.742188 Z M 232.636719 258.683594 " fill-opacity="1" fill-rule="nonzero"/><path fill="#3b2714" d="M 232.636719 487.175781 L 194.375 487.175781 L 194.375 334.800781 L 156.035156 334.800781 L 156.035156 487.175781 L 79.363281 487.175781 L 79.363281 525.234375 L 194.375 525.234375 L 194.375 563.292969 L 232.636719 563.292969 Z M 232.636719 487.175781 " fill-opacity="1" fill-rule="nonzero"/><path fill="#3b2714" d="M 194.375 296.742188 L 232.636719 296.742188 L 232.636719 334.800781 L 194.375 334.800781 Z M 194.375 296.742188 " fill-opacity="1" fill-rule="nonzero"/><path fill="#3b2714" d="M 117.699219 563.292969 L 117.699219 601.421875 L 194.375 601.421875 L 194.375 563.292969 Z M 117.699219 563.292969 " fill-opacity="1" fill-rule="nonzero"/><path fill="#3b2714" d="M 79.363281 601.421875 L 117.699219 601.421875 L 117.699219 639.480469 L 79.363281 639.480469 Z M 79.363281 601.421875 " fill-opacity="1" fill-rule="nonzero"/><path fill="#3b2714" d="M 79.363281 525.234375 L 41.027344 525.234375 L 41.027344 601.421875 L 79.363281 601.421875 Z M 79.363281 525.234375 " fill-opacity="1" fill-rule="nonzero"/></svg>