<svg xmlns="http://www.w3.org/2000/svg" xmlns:xlink="http://www.w3.org/1999/xlink" width="3000" zoomAndPan="magnify" viewBox="0 0 2250 2250.000011" height="3000" preserveAspectRatio="xMidYMid meet" version="1.0"><defs><clipPath id="cd6b105238"><path d="M 100 95 L 2249 95 L 2249 2243.378906 L 100 2243.378906 Z M 100 95 " clip-rule="nonzero"/></clipPath><clipPath id="2435f09e1c"><path d="M 1 5.621094 L 2150 5.621094 L 2150 2154 L 1 2154 Z M 1 5.621094 " clip-rule="nonzero"/></clipPath></defs><g clip-path="url(#cd6b105238)"><path fill="#ffffff" d="M 184.144531 95.515625 L 2165.75 95.515625 C 2211.484375 95.515625 2248.902344 132.933594 2248.902344 178.667969 L 2248.902344 2160.273438 C 2248.902344 2206.007812 2211.484375 2243.425781 2165.75 2243.425781 L 184.144531 2243.425781 C 138.414062 2243.425781 100.992188 2206.007812 100.992188 2160.273438 L 100.992188 178.667969 C 100.992188 132.933594 138.414062 95.515625 184.144531 95.515625 Z M 184.144531 95.515625 " fill-opacity="1" fill-rule="evenodd"/></g><g clip-path="url(#2435f09e1c)"><path fill="#e2a9f1" d="M 84.261719 5.621094 L 2065.867188 5.621094 C 2111.601562 5.621094 2149.023438 43.042969 2149.023438 88.777344 L 2149.023438 2070.378906 C 2149.023438 2116.113281 2111.601562 2153.53125 2065.867188 2153.53125 L 84.261719 2153.53125 C 38.53125 2153.53125 1.109375 2116.113281 1.109375 2070.378906 L 1.109375 88.777344 C 1.109375 43.042969 38.527344 5.621094 84.261719 5.621094 Z M 84.261719 5.621094 " fill-opacity="1" fill-rule="evenodd"/></g><path fill="#8c52ff" d="M 131.144531 47.128906 L 2112.75 47.128906 C 2158.480469 47.128906 2195.902344 84.546875 2195.902344 130.277344 L 2195.902344 2111.882812 C 2195.902344 2157.613281 2158.484375 2195.035156 2112.75 2195.035156 L 131.144531 2195.035156 C 85.410156 2195.035156 47.992188 2157.613281 47.992188 2111.882812 L 47.992188 130.277344 C 47.992188 84.546875 85.410156 47.128906 131.144531 47.128906 Z M 131.144531 47.128906 " fill-opacity="1" fill-rule="evenodd"/><path fill="#cb6ce6" d="M 2195.902344 1707.816406 L 2195.902344 2111.882812 C 2195.902344 2157.613281 2158.484375 2195.035156 2112.75 2195.035156 L 1533.824219 2195.035156 Z M 2195.902344 1707.816406 " fill-opacity="1" fill-rule="evenodd"/><path fill="#cb6ce6" d="M 2195.902344 1390.730469 L 2195.902344 1651.570312 L 1457.390625 2195.039062 L 1102.933594 2195.039062 Z M 2195.902344 1390.730469 " fill-opacity="1" fill-rule="evenodd"/><path fill="#5e17eb" d="M 983.886719 47.128906 L 1248.445312 47.128906 L 47.992188 930.539062 L 47.992188 735.847656 Z M 1374.976562 47.128906 L 47.992188 1023.648438 L 47.992188 1489.207031 L 2007.617188 47.128906 Z M 1374.976562 47.128906 " fill-opacity="1" fill-rule="evenodd"/><path fill="#ffffff" d="M 163.414062 114.902344 L 277.339844 114.902344 L 277.339844 151.023438 L 313.460938 151.023438 L 313.460938 264.945312 L 277.339844 264.945312 L 277.339844 301.066406 L 163.414062 301.066406 L 163.414062 264.945312 L 127.296875 264.945312 L 127.296875 151.023438 L 163.414062 151.023438 Z M 163.414062 114.902344 " fill-opacity="1" fill-rule="evenodd"/><path fill="#ffffff" d="M 1966.554688 114.902344 L 2080.476562 114.902344 L 2080.476562 151.023438 L 2116.597656 151.023438 L 2116.597656 264.945312 L 2080.476562 264.945312 L 2080.476562 301.066406 L 1966.554688 301.066406 L 1966.554688 264.945312 L 1930.433594 264.945312 L 1930.433594 151.023438 L 1966.554688 151.023438 Z M 1966.554688 114.902344 " fill-opacity="1" fill-rule="evenodd"/><path fill="#ffffff" d="M 1966.554688 1941.097656 L 2080.476562 1941.097656 L 2080.476562 1977.21875 L 2116.597656 1977.21875 L 2116.597656 2091.140625 L 2080.476562 2091.140625 L 2080.476562 2127.265625 L 1966.554688 2127.265625 L 1966.554688 2091.140625 L 1930.433594 2091.140625 L 1930.433594 1977.21875 L 1966.554688 1977.21875 Z M 1966.554688 1941.097656 " fill-opacity="1" fill-rule="evenodd"/><path fill="#ffffff" d="M 163.414062 1941.097656 L 277.339844 1941.097656 L 277.339844 1977.21875 L 313.460938 1977.21875 L 313.460938 2091.140625 L 277.339844 2091.140625 L 277.339844 2127.265625 L 163.414062 2127.265625 L 163.414062 2091.140625 L 127.296875 2091.140625 L 127.296875 1977.21875 L 163.414062 1977.21875 Z M 163.414062 1941.097656 " fill-opacity="1" fill-rule="evenodd"/><path fill="#ffffff" d="M 1656.855469 544.109375 L 1656.855469 530.929688 L 1670.023438 530.929688 C 1686.328125 530.929688 1703.265625 530.929688 1719.570312 530.929688 L 1732.742188 530.929688 L 1732.742188 544.109375 C 1732.742188 609.367188 1732.742188 674.625 1732.742188 739.882812 C 1732.742188 746.160156 1732.742188 752.433594 1732.742188 759.339844 C 1739.011719 759.339844 1745.285156 759.339844 1752.183594 759.339844 C 1818.039062 759.339844 1843.125 759.339844 1908.976562 759.339844 L 1921.523438 759.339844 L 1921.523438 771.886719 C 1921.523438 780.046875 1921.523438 788.828125 1921.523438 796.988281 C 1921.523438 805.144531 1921.523438 813.929688 1921.523438 822.085938 L 1921.523438 834.636719 L 1908.976562 834.636719 C 1823.683594 834.636719 1779.78125 834.636719 1694.484375 834.636719 C 1686.328125 834.636719 1678.179688 834.636719 1670.023438 834.636719 L 1656.855469 834.636719 L 1656.855469 822.085938 C 1656.855469 729.21875 1656.855469 636.351562 1656.855469 544.109375 Z M 1389.046875 721.6875 C 1389.046875 727.964844 1389.046875 734.238281 1389.046875 740.511719 C 1389.046875 746.785156 1389.046875 753.691406 1389.046875 759.96875 C 1395.320312 759.96875 1402.21875 759.96875 1408.492188 759.96875 C 1474.34375 759.96875 1540.199219 759.96875 1606.675781 759.96875 L 1619.222656 759.96875 L 1619.222656 772.515625 C 1619.222656 789.457031 1619.222656 806.402344 1619.222656 822.714844 L 1619.222656 835.265625 L 1606.675781 835.265625 C 1540.195312 835.265625 1474.34375 835.265625 1408.492188 835.265625 C 1400.339844 835.265625 1391.558594 835.265625 1383.402344 835.265625 L 1370.859375 835.265625 C 1370.859375 816.441406 1370.859375 797.617188 1370.859375 778.164062 C 1355.808594 778.164062 1340.753906 778.164062 1325.703125 778.164062 L 1313.15625 778.164062 C 1313.15625 719.179688 1313.15625 660.195312 1313.15625 601.210938 L 1313.15625 588.664062 L 1325.703125 588.664062 C 1334.480469 588.664062 1342.636719 588.664062 1350.789062 588.664062 C 1357.6875 588.664062 1363.960938 588.664062 1370.859375 588.664062 C 1370.859375 582.386719 1370.859375 576.113281 1370.859375 569.835938 C 1370.859375 561.679688 1370.859375 552.894531 1370.859375 544.738281 L 1370.859375 532.1875 L 1383.402344 532.1875 C 1458.035156 532.1875 1532.042969 532.1875 1606.675781 532.1875 L 1619.222656 532.1875 L 1619.222656 544.738281 C 1619.222656 561.679688 1619.222656 577.992188 1619.222656 594.9375 L 1619.222656 607.484375 L 1606.675781 607.484375 C 1540.195312 607.484375 1474.34375 607.484375 1408.492188 607.484375 C 1402.21875 607.484375 1395.320312 607.484375 1389.046875 607.484375 C 1389.046875 613.757812 1389.046875 620.660156 1389.046875 626.9375 C 1389.046875 633.210938 1389.046875 639.488281 1389.046875 645.761719 C 1395.320312 645.761719 1402.21875 645.761719 1408.492188 645.761719 C 1436.085938 645.761719 1463.683594 645.761719 1491.277344 645.761719 L 1503.820312 645.761719 L 1503.820312 658.3125 C 1503.820312 666.46875 1503.820312 675.253906 1503.820312 683.410156 C 1503.820312 692.199219 1503.820312 700.355469 1503.820312 708.511719 L 1503.820312 721.6875 L 1491.277344 721.6875 C 1463.683594 721.6875 1436.085938 721.6875 1408.492188 721.6875 C 1402.21875 721.6875 1395.320312 721.6875 1389.046875 721.6875 Z M 972.601562 544.109375 L 972.601562 531.558594 L 985.144531 531.558594 C 1002.078125 531.558594 1018.386719 531.558594 1035.320312 531.558594 L 1047.863281 531.558594 L 1047.863281 544.109375 C 1047.863281 596.820312 1047.863281 649.527344 1047.863281 702.234375 C 1062.914062 702.234375 1077.96875 702.234375 1093.019531 702.234375 L 1105.5625 702.234375 L 1105.5625 714.785156 C 1105.5625 729.84375 1105.5625 744.90625 1105.5625 759.335938 C 1118.734375 759.335938 1131.277344 759.335938 1144.449219 759.335938 C 1144.449219 744.902344 1144.449219 729.84375 1144.449219 714.785156 L 1144.449219 702.234375 L 1156.992188 702.234375 C 1172.042969 702.234375 1187.097656 702.234375 1202.148438 702.234375 C 1202.148438 649.527344 1202.148438 596.820312 1202.148438 544.109375 L 1202.148438 531.558594 L 1214.691406 531.558594 C 1231.625 531.558594 1248.5625 531.558594 1265.496094 531.558594 L 1278.039062 531.558594 L 1278.039062 544.109375 C 1278.039062 598.699219 1278.039062 653.917969 1278.039062 708.511719 L 1278.039062 721.0625 L 1265.496094 721.0625 C 1250.441406 721.0625 1235.390625 721.0625 1220.339844 721.0625 C 1220.339844 727.335938 1220.339844 733.613281 1220.339844 740.515625 C 1220.339844 748.671875 1220.339844 756.828125 1220.339844 765.613281 L 1220.339844 778.164062 L 1207.792969 778.164062 C 1199.640625 778.164062 1190.859375 778.164062 1182.703125 778.164062 C 1175.804688 778.164062 1169.535156 778.164062 1162.636719 778.164062 C 1162.636719 793.222656 1162.636719 807.65625 1162.636719 822.714844 L 1162.636719 835.265625 L 1150.09375 835.265625 C 1133.160156 835.265625 1116.851562 835.265625 1099.917969 835.265625 L 1087.375 835.265625 L 1087.375 822.714844 C 1087.375 807.652344 1087.375 793.222656 1087.375 778.164062 C 1072.320312 778.164062 1057.269531 778.164062 1042.21875 778.164062 L 1029.675781 778.164062 L 1029.675781 765.613281 C 1029.675781 750.554688 1029.675781 736.121094 1029.675781 721.0625 C 1014.621094 721.0625 1000.199219 721.0625 985.144531 721.0625 L 972.601562 721.0625 L 972.601562 708.511719 C 972.601562 653.917969 972.601562 598.703125 972.601562 544.109375 Z M 705.425781 721.6875 C 705.425781 727.964844 705.425781 734.238281 705.425781 740.511719 C 705.425781 746.785156 705.425781 753.691406 705.425781 759.96875 C 711.695312 759.96875 717.96875 759.96875 724.867188 759.96875 C 790.71875 759.96875 856.578125 759.96875 922.429688 759.96875 L 934.972656 759.96875 L 934.972656 772.515625 C 934.972656 789.457031 934.972656 806.402344 934.972656 822.714844 L 934.972656 835.265625 L 922.429688 835.265625 C 856.578125 835.265625 790.722656 835.265625 724.867188 835.265625 C 716.085938 835.265625 707.933594 835.265625 699.78125 835.265625 L 687.238281 835.265625 L 687.238281 822.714844 C 687.238281 808.28125 687.238281 793.222656 687.238281 778.164062 C 672.183594 778.164062 657.132812 778.164062 642.082031 778.164062 L 629.539062 778.164062 L 629.539062 765.617188 C 629.539062 711.023438 629.539062 655.804688 629.539062 601.214844 L 629.539062 588.664062 L 642.082031 588.664062 C 657.132812 588.664062 672.183594 588.664062 687.238281 588.664062 C 687.238281 574.230469 687.238281 559.171875 687.238281 544.738281 L 687.238281 532.1875 L 699.78125 532.1875 C 773.789062 532.1875 848.421875 532.1875 922.429688 532.1875 L 934.972656 532.1875 L 934.972656 544.738281 C 934.972656 552.898438 934.972656 561.679688 934.972656 569.835938 C 934.972656 577.996094 934.972656 586.78125 934.972656 594.9375 L 934.972656 607.488281 L 922.429688 607.488281 C 850.304688 607.488281 777.550781 607.488281 705.425781 607.488281 C 705.425781 613.761719 705.425781 620.664062 705.425781 626.941406 C 705.425781 633.214844 705.425781 639.488281 705.425781 645.765625 C 739.292969 645.765625 773.160156 645.765625 807.65625 645.765625 L 820.199219 645.765625 L 820.199219 658.3125 C 820.199219 675.253906 820.199219 692.199219 820.199219 708.511719 L 820.199219 721.691406 L 807.65625 721.691406 C 773.160156 721.6875 739.292969 721.6875 705.425781 721.6875 Z M 328.492188 530.933594 C 349.1875 530.933594 370.511719 530.933594 391.210938 530.933594 L 403.753906 530.933594 C 403.753906 600.585938 403.753906 670.234375 403.753906 739.886719 C 403.753906 746.160156 403.753906 752.4375 403.753906 759.339844 C 476.507812 759.339844 507.863281 759.339844 579.988281 759.339844 L 593.160156 759.339844 L 593.160156 771.890625 C 593.160156 788.832031 593.160156 805.148438 593.160156 822.089844 L 593.160156 834.636719 L 579.988281 834.636719 C 482.777344 834.636719 426.332031 834.636719 328.492188 834.636719 L 328.492188 822.089844 C 328.492188 725.457031 328.492188 628.195312 328.492188 530.933594 Z M 328.492188 530.933594 " fill-opacity="1" fill-rule="evenodd"/><path fill="#ffffff" d="M 1173.980469 999.613281 L 1173.980469 974.140625 L 1199.453125 974.140625 C 1384 974.140625 1568.550781 974.140625 1753.101562 974.140625 L 1778.574219 974.140625 L 1778.574219 999.613281 C 1778.574219 1020.511719 1778.574219 1041.414062 1778.574219 1062.316406 C 1778.574219 1080.175781 1778.574219 1098.039062 1778.574219 1115.898438 C 1826.222656 1115.898438 1873.871094 1115.898438 1921.519531 1115.898438 L 1921.519531 1141.367188 C 1921.519531 1183.171875 1921.519531 1224.976562 1921.519531 1266.78125 L 1921.519531 1292.25 C 1873.871094 1292.25 1826.222656 1292.25 1778.574219 1292.25 C 1778.574219 1309.910156 1778.574219 1327.574219 1778.574219 1345.234375 C 1778.574219 1366.136719 1778.574219 1387.039062 1778.574219 1407.941406 L 1778.574219 1433.410156 L 1753.101562 1433.410156 C 1618.550781 1433.410156 1483.996094 1433.410156 1349.441406 1433.410156 C 1349.441406 1519.523438 1349.441406 1605.640625 1349.441406 1691.75 L 1349.441406 1717.222656 C 1299.445312 1717.222656 1249.449219 1717.222656 1199.453125 1717.222656 L 1173.980469 1717.222656 L 1173.980469 1691.75 C 1173.980469 1461.042969 1173.980469 1230.328125 1173.980469 999.613281 Z M 1349.441406 1257.058594 C 1481.351562 1257.058594 1613.261719 1257.058594 1745.164062 1257.058594 C 1745.164062 1221.539062 1745.164062 1186.019531 1745.164062 1150.496094 C 1613.257812 1150.496094 1481.347656 1150.496094 1349.441406 1150.496094 C 1349.441406 1168.355469 1349.441406 1186.214844 1349.441406 1204.074219 C 1349.441406 1221.738281 1349.441406 1239.398438 1349.441406 1257.058594 Z M 328.492188 1000.503906 L 328.492188 975.03125 L 353.964844 975.03125 C 395.765625 975.03125 437.570312 975.03125 479.371094 975.03125 L 504.84375 975.03125 L 504.84375 1000.503906 C 504.84375 1180.921875 504.84375 1361.34375 504.84375 1541.761719 C 636.753906 1541.761719 768.664062 1541.761719 900.570312 1541.761719 C 900.570312 1361.34375 900.570312 1180.925781 900.570312 1000.503906 L 900.570312 975.03125 L 926.042969 975.03125 C 967.84375 975.03125 1009.648438 975.03125 1051.453125 975.03125 L 1076.925781 975.03125 L 1076.925781 1000.503906 C 1076.925781 1184.164062 1076.925781 1367.820312 1076.925781 1551.484375 L 1076.925781 1576.953125 L 1051.453125 1576.953125 C 1030.550781 1576.953125 1009.648438 1576.953125 988.746094 1576.953125 C 970.488281 1576.953125 952.234375 1576.953125 933.980469 1576.953125 C 933.980469 1594.617188 933.980469 1612.277344 933.980469 1629.941406 C 933.980469 1650.839844 933.980469 1671.742188 933.980469 1692.644531 L 933.980469 1718.117188 L 908.507812 1718.117188 C 771.207031 1718.117188 633.910156 1718.117188 496.613281 1718.117188 L 471.140625 1718.117188 L 471.140625 1692.644531 C 471.140625 1654.082031 471.140625 1615.519531 471.140625 1576.953125 C 432.082031 1576.953125 393.023438 1576.953125 353.964844 1576.953125 L 328.492188 1576.953125 L 328.492188 1551.484375 C 328.492188 1367.820312 328.492188 1184.164062 328.492188 1000.503906 Z M 328.492188 1000.503906 " fill-opacity="1" fill-rule="evenodd"/></svg>