<svg xmlns="http://www.w3.org/2000/svg" xmlns:xlink="http://www.w3.org/1999/xlink" width="3000" zoomAndPan="magnify" viewBox="0 0 2250 2250.000011" height="3000" preserveAspectRatio="xMidYMid meet" version="1.0"><defs><clipPath id="4f7479ca53"><path d="M 386.578125 504 L 726 504 L 726 843 L 386.578125 843 Z M 386.578125 504 " clip-rule="nonzero"/></clipPath><clipPath id="43b4133b85"><path d="M 1524 504 L 1863.421875 504 L 1863.421875 843 L 1524 843 Z M 1524 504 " clip-rule="nonzero"/></clipPath></defs><path fill="#000000" d="M 585.667969 259.972656 C 585.667969 240.746094 569.980469 225.0625 550.503906 225.0625 C 531.277344 225.0625 515.59375 240.746094 515.59375 259.972656 L 515.59375 539.253906 C 515.59375 558.730469 531.277344 574.414062 550.503906 574.414062 C 569.980469 574.414062 585.667969 558.730469 585.667969 539.253906 Z M 585.667969 807.65625 C 585.667969 788.175781 569.980469 772.492188 550.503906 772.492188 C 531.277344 772.492188 515.59375 788.175781 515.59375 807.65625 L 515.59375 1988.773438 C 515.59375 2008 531.277344 2023.9375 550.503906 2023.9375 C 569.980469 2023.9375 585.667969 2008 585.667969 1988.773438 Z M 585.667969 807.65625 " fill-opacity="1" fill-rule="nonzero"/><g clip-path="url(#4f7479ca53)"><path fill="#000000" d="M 491.5625 504.089844 L 620.324219 504.089844 C 649.160156 504.089844 675.472656 515.980469 694.445312 534.953125 C 713.417969 553.925781 725.304688 580.234375 725.304688 609.074219 L 725.304688 737.835938 C 725.304688 766.671875 713.417969 792.980469 694.445312 811.953125 C 675.472656 830.925781 649.160156 842.816406 620.324219 842.816406 L 491.5625 842.816406 C 462.722656 842.816406 436.414062 830.925781 417.441406 811.953125 C 398.46875 792.980469 386.578125 766.671875 386.578125 737.835938 L 386.578125 609.074219 C 386.578125 580.234375 398.46875 553.925781 417.441406 534.953125 C 436.414062 515.980469 462.722656 504.089844 491.5625 504.089844 Z M 620.324219 574.414062 L 491.5625 574.414062 C 481.949219 574.414062 473.347656 578.210938 467.023438 584.535156 C 460.699219 590.859375 456.902344 599.460938 456.902344 609.074219 L 456.902344 737.835938 C 456.902344 747.449219 460.699219 756.046875 467.023438 762.371094 C 473.347656 768.695312 481.949219 772.492188 491.5625 772.492188 L 620.324219 772.492188 C 629.9375 772.492188 638.539062 768.695312 644.863281 762.371094 C 651.1875 756.046875 654.980469 747.449219 654.980469 737.835938 L 654.980469 609.074219 C 654.980469 599.460938 651.1875 590.859375 644.863281 584.535156 C 638.539062 578.210938 629.9375 574.414062 620.324219 574.414062 Z M 620.324219 574.414062 " fill-opacity="1" fill-rule="nonzero"/></g><path fill="#000000" d="M 1084.523438 1988.773438 C 1084.523438 2008 1100.207031 2023.9375 1119.6875 2023.9375 C 1139.167969 2023.9375 1154.851562 2008 1154.851562 1988.773438 L 1154.851562 1709.496094 C 1154.851562 1690.269531 1139.167969 1674.332031 1119.6875 1674.332031 C 1100.207031 1674.332031 1084.523438 1690.269531 1084.523438 1709.496094 Z M 1084.523438 1441.09375 C 1084.523438 1460.570312 1100.207031 1476.257812 1119.6875 1476.257812 C 1139.167969 1476.257812 1154.851562 1460.570312 1154.851562 1441.09375 L 1154.851562 259.972656 C 1154.851562 240.746094 1139.167969 225.0625 1119.6875 225.0625 C 1100.207031 225.0625 1084.523438 240.746094 1084.523438 259.972656 Z M 1084.523438 1441.09375 " fill-opacity="1" fill-rule="nonzero"/><path fill="#000000" d="M 1723.78125 259.972656 C 1723.78125 240.746094 1708.097656 225.0625 1688.617188 225.0625 C 1669.394531 225.0625 1653.457031 240.746094 1653.457031 259.972656 L 1653.457031 539.253906 C 1653.457031 558.730469 1669.394531 574.414062 1688.617188 574.414062 C 1708.097656 574.414062 1723.78125 558.730469 1723.78125 539.253906 Z M 1723.78125 807.65625 C 1723.78125 788.175781 1708.097656 772.492188 1688.617188 772.492188 C 1669.394531 772.492188 1653.457031 788.175781 1653.457031 807.65625 L 1653.457031 1988.773438 C 1653.457031 2008 1669.394531 2023.9375 1688.617188 2023.9375 C 1708.097656 2023.9375 1723.78125 2008 1723.78125 1988.773438 Z M 1723.78125 807.65625 " fill-opacity="1" fill-rule="nonzero"/><path fill="#000000" d="M 1060.492188 1674.332031 L 1189.507812 1674.332031 C 1198.867188 1674.332031 1207.722656 1670.539062 1213.792969 1664.214844 C 1220.117188 1657.890625 1224.164062 1649.289062 1224.164062 1639.675781 L 1224.164062 1510.914062 C 1224.164062 1501.554688 1220.117188 1492.699219 1213.792969 1486.375 C 1207.722656 1480.304688 1198.867188 1476.257812 1189.507812 1476.257812 L 1060.492188 1476.257812 C 1051.132812 1476.257812 1042.53125 1480.304688 1036.207031 1486.375 C 1029.882812 1492.699219 1025.835938 1501.554688 1025.835938 1510.914062 L 1025.835938 1639.675781 C 1025.835938 1649.289062 1029.882812 1657.890625 1036.207031 1664.214844 C 1042.53125 1670.539062 1051.132812 1674.332031 1060.492188 1674.332031 Z M 1189.507812 1744.660156 L 1060.492188 1744.660156 C 1031.652344 1744.660156 1005.597656 1733.023438 986.371094 1713.796875 C 967.398438 1694.824219 955.761719 1668.765625 955.761719 1639.675781 L 955.761719 1510.914062 C 955.761719 1482.074219 967.398438 1455.765625 986.371094 1436.792969 C 1005.597656 1417.820312 1031.652344 1405.929688 1060.492188 1405.929688 L 1189.507812 1405.929688 C 1218.347656 1405.929688 1244.65625 1417.820312 1263.628906 1436.792969 C 1282.601562 1455.765625 1294.492188 1482.074219 1294.492188 1510.914062 L 1294.492188 1639.675781 C 1294.492188 1668.765625 1282.601562 1694.824219 1263.628906 1713.796875 C 1244.65625 1733.023438 1218.347656 1744.660156 1189.507812 1744.660156 Z M 1189.507812 1744.660156 " fill-opacity="1" fill-rule="nonzero"/><g clip-path="url(#43b4133b85)"><path fill="#000000" d="M 1629.675781 504.089844 L 1758.4375 504.089844 C 1787.277344 504.089844 1813.585938 515.980469 1832.558594 534.953125 C 1851.53125 553.925781 1863.421875 580.234375 1863.421875 609.074219 L 1863.421875 737.835938 C 1863.421875 766.671875 1851.53125 792.980469 1832.558594 811.953125 C 1813.585938 830.925781 1787.277344 842.816406 1758.4375 842.816406 L 1629.675781 842.816406 C 1600.839844 842.816406 1574.527344 830.925781 1555.554688 811.953125 C 1536.582031 792.980469 1524.695312 766.671875 1524.695312 737.835938 L 1524.695312 609.074219 C 1524.695312 580.234375 1536.582031 553.925781 1555.554688 534.953125 C 1574.527344 515.980469 1600.839844 504.089844 1629.675781 504.089844 Z M 1758.4375 574.414062 L 1629.675781 574.414062 C 1620.0625 574.414062 1611.460938 578.210938 1605.136719 584.535156 C 1598.8125 590.859375 1595.019531 599.460938 1595.019531 609.074219 L 1595.019531 737.835938 C 1595.019531 747.449219 1598.8125 756.046875 1605.136719 762.371094 C 1611.460938 768.695312 1620.0625 772.492188 1629.675781 772.492188 L 1758.4375 772.492188 C 1768.050781 772.492188 1776.652344 768.695312 1782.976562 762.371094 C 1789.300781 756.046875 1793.097656 747.449219 1793.097656 737.835938 L 1793.097656 609.074219 C 1793.097656 599.460938 1789.300781 590.859375 1782.976562 584.535156 C 1776.652344 578.210938 1768.050781 574.414062 1758.4375 574.414062 Z M 1758.4375 574.414062 " fill-opacity="1" fill-rule="nonzero"/></g><path fill="#d81212" d="M 654.980469 737.835938 L 654.980469 609.074219 C 654.980469 599.460938 651.1875 590.859375 644.863281 584.535156 C 638.539062 578.210938 629.9375 574.414062 620.324219 574.414062 L 491.5625 574.414062 C 481.949219 574.414062 473.347656 578.210938 467.023438 584.535156 C 460.699219 590.859375 456.902344 599.460938 456.902344 609.074219 L 456.902344 737.835938 C 456.902344 747.449219 460.699219 756.046875 467.023438 762.371094 C 473.347656 768.695312 481.949219 772.492188 491.5625 772.492188 L 620.324219 772.492188 C 629.9375 772.492188 638.539062 768.695312 644.863281 762.371094 C 651.1875 756.046875 654.980469 747.449219 654.980469 737.835938 Z M 654.980469 737.835938 " fill-opacity="1" fill-rule="evenodd"/><path fill="#ffde00" d="M 1119.6875 1476.257812 L 1060.492188 1476.257812 C 1051.132812 1476.257812 1042.53125 1480.304688 1036.207031 1486.375 C 1029.882812 1492.699219 1025.835938 1501.554688 1025.835938 1510.914062 L 1025.835938 1639.675781 C 1025.835938 1649.289062 1029.882812 1657.890625 1036.207031 1664.214844 C 1042.53125 1670.539062 1051.132812 1674.332031 1060.492188 1674.332031 L 1189.507812 1674.332031 C 1198.867188 1674.332031 1207.722656 1670.539062 1213.792969 1664.214844 C 1220.117188 1657.890625 1224.164062 1649.289062 1224.164062 1639.675781 L 1224.164062 1510.914062 C 1224.164062 1501.554688 1220.117188 1492.699219 1213.792969 1486.375 C 1207.722656 1480.304688 1198.867188 1476.257812 1189.507812 1476.257812 Z M 1119.6875 1476.257812 " fill-opacity="1" fill-rule="evenodd"/><path fill="#0045aa" d="M 1595.019531 609.074219 L 1595.019531 737.835938 C 1595.019531 747.449219 1598.8125 756.046875 1605.136719 762.371094 C 1611.460938 768.695312 1620.0625 772.492188 1629.675781 772.492188 L 1758.4375 772.492188 C 1768.050781 772.492188 1776.652344 768.695312 1782.976562 762.371094 C 1789.300781 756.046875 1793.097656 747.449219 1793.097656 737.835938 L 1793.097656 609.074219 C 1793.097656 599.460938 1789.300781 590.859375 1782.976562 584.535156 C 1776.652344 578.210938 1768.050781 574.414062 1758.4375 574.414062 L 1629.675781 574.414062 C 1620.0625 574.414062 1611.460938 578.210938 1605.136719 584.535156 C 1598.8125 590.859375 1595.019531 599.460938 1595.019531 609.074219 Z M 1595.019531 609.074219 " fill-opacity="1" fill-rule="evenodd"/></svg>