<svg xmlns="http://www.w3.org/2000/svg" xmlns:xlink="http://www.w3.org/1999/xlink" width="1080" zoomAndPan="magnify" viewBox="0 0 810 1012.49997" height="1350" preserveAspectRatio="xMidYMid meet" version="1.0"><defs><g/><clipPath id="c3e4b9038f"><path d="M 0.488281 155 L 1 155 L 1 156 L 0.488281 156 Z M 0.488281 155 " clip-rule="nonzero"/></clipPath><clipPath id="5b6b46e868"><rect x="0" width="534" y="0" height="202"/></clipPath><clipPath id="c26ef6a8c2"><path d="M 247 522 L 563 522 L 563 674.417969 L 247 674.417969 Z M 247 522 " clip-rule="nonzero"/></clipPath><clipPath id="26c8edcbff"><path d="M 247 298.417969 L 563 298.417969 L 563 451 L 247 451 Z M 247 298.417969 " clip-rule="nonzero"/></clipPath></defs><g transform="matrix(1, 0, 0, 1, 141, 385)"><g clip-path="url(#5b6b46e868)"><g clip-path="url(#c3e4b9038f)"><g fill="#ffffff" fill-opacity="1"><g transform="translate(0.505269, 155.110171)"><g/></g></g></g><g fill="#ffffff" fill-opacity="1"><g transform="translate(50.004851, 155.110171)"><g><path d="M 69.875 2.640625 C 57.457031 2.640625 46.304688 0.0546875 36.421875 -5.109375 C 26.535156 -10.273438 18.789062 -17.441406 13.1875 -26.609375 C 7.582031 -35.785156 4.78125 -46.144531 4.78125 -57.6875 C 4.78125 -69.21875 7.582031 -79.570312 13.1875 -88.75 C 18.789062 -97.925781 26.535156 -105.09375 36.421875 -110.25 C 46.304688 -115.414062 57.457031 -118 69.875 -118 C 82.289062 -118 93.441406 -115.414062 103.328125 -110.25 C 113.222656 -105.09375 120.972656 -97.925781 126.578125 -88.75 C 132.179688 -79.570312 134.984375 -69.21875 134.984375 -57.6875 C 134.984375 -46.144531 132.179688 -35.785156 126.578125 -26.609375 C 120.972656 -17.441406 113.222656 -10.273438 103.328125 -5.109375 C 93.441406 0.0546875 82.289062 2.640625 69.875 2.640625 Z M 69.875 -28.84375 C 74.707031 -28.84375 79.070312 -30.019531 82.96875 -32.375 C 86.875 -34.738281 89.976562 -38.09375 92.28125 -42.4375 C 94.59375 -46.78125 95.75 -51.863281 95.75 -57.6875 C 95.75 -63.507812 94.59375 -68.585938 92.28125 -72.921875 C 89.976562 -77.265625 86.875 -80.617188 82.96875 -82.984375 C 79.070312 -85.347656 74.707031 -86.53125 69.875 -86.53125 C 65.039062 -86.53125 60.671875 -85.347656 56.765625 -82.984375 C 52.867188 -80.617188 49.765625 -77.265625 47.453125 -72.921875 C 45.148438 -68.585938 44 -63.507812 44 -57.6875 C 44 -51.863281 45.148438 -46.78125 47.453125 -42.4375 C 49.765625 -38.09375 52.867188 -34.738281 56.765625 -32.375 C 60.671875 -30.019531 65.039062 -28.84375 69.875 -28.84375 Z M 69.875 -28.84375 "/></g></g></g><g fill="#ffffff" fill-opacity="1"><g transform="translate(189.810987, 155.110171)"><g/></g></g><g fill="#ffffff" fill-opacity="1"><g transform="translate(239.25044, 155.110171)"><g/></g></g><g fill="#ffffff" fill-opacity="1"><g transform="translate(288.689892, 155.110171)"><g/></g></g><g fill="#ffffff" fill-opacity="1"><g transform="translate(338.189002, 155.110171)"><g><path d="M 69.875 2.640625 C 57.457031 2.640625 46.304688 0.0546875 36.421875 -5.109375 C 26.535156 -10.273438 18.789062 -17.441406 13.1875 -26.609375 C 7.582031 -35.785156 4.78125 -46.144531 4.78125 -57.6875 C 4.78125 -69.21875 7.582031 -79.570312 13.1875 -88.75 C 18.789062 -97.925781 26.535156 -105.09375 36.421875 -110.25 C 46.304688 -115.414062 57.457031 -118 69.875 -118 C 82.289062 -118 93.441406 -115.414062 103.328125 -110.25 C 113.222656 -105.09375 120.972656 -97.925781 126.578125 -88.75 C 132.179688 -79.570312 134.984375 -69.21875 134.984375 -57.6875 C 134.984375 -46.144531 132.179688 -35.785156 126.578125 -26.609375 C 120.972656 -17.441406 113.222656 -10.273438 103.328125 -5.109375 C 93.441406 0.0546875 82.289062 2.640625 69.875 2.640625 Z M 69.875 -28.84375 C 74.707031 -28.84375 79.070312 -30.019531 82.96875 -32.375 C 86.875 -34.738281 89.976562 -38.09375 92.28125 -42.4375 C 94.59375 -46.78125 95.75 -51.863281 95.75 -57.6875 C 95.75 -63.507812 94.59375 -68.585938 92.28125 -72.921875 C 89.976562 -77.265625 86.875 -80.617188 82.96875 -82.984375 C 79.070312 -85.347656 74.707031 -86.53125 69.875 -86.53125 C 65.039062 -86.53125 60.671875 -85.347656 56.765625 -82.984375 C 52.867188 -80.617188 49.765625 -77.265625 47.453125 -72.921875 C 45.148438 -68.585938 44 -63.507812 44 -57.6875 C 44 -51.863281 45.148438 -46.78125 47.453125 -42.4375 C 49.765625 -38.09375 52.867188 -34.738281 56.765625 -32.375 C 60.671875 -30.019531 65.039062 -28.84375 69.875 -28.84375 Z M 69.875 -28.84375 "/></g></g></g><g fill="#ffffff" fill-opacity="1"><g transform="translate(477.995139, 155.110171)"><g/></g></g></g></g><g clip-path="url(#c26ef6a8c2)"><path fill="#ffffff" d="M 404.878906 674.535156 C 402.5625 674.535156 400.246094 674.484375 397.933594 674.378906 C 395.617188 674.277344 393.308594 674.128906 391 673.925781 C 388.691406 673.722656 386.390625 673.46875 384.09375 673.167969 C 381.796875 672.867188 379.507812 672.515625 377.226562 672.113281 C 374.945312 671.710938 372.671875 671.257812 370.410156 670.757812 C 368.148438 670.257812 365.898438 669.710938 363.660156 669.109375 C 361.421875 668.511719 359.199219 667.867188 356.988281 667.171875 C 354.777344 666.476562 352.585938 665.734375 350.40625 664.941406 C 348.230469 664.152344 346.070312 663.316406 343.929688 662.429688 C 341.789062 661.546875 339.667969 660.617188 337.566406 659.640625 C 335.464844 658.664062 333.386719 657.640625 331.332031 656.574219 C 329.273438 655.507812 327.242188 654.398438 325.234375 653.242188 C 323.226562 652.085938 321.246094 650.890625 319.289062 649.648438 C 317.332031 648.40625 315.40625 647.125 313.503906 645.800781 C 311.605469 644.472656 309.734375 643.109375 307.894531 641.703125 C 306.050781 640.296875 304.242188 638.851562 302.464844 637.363281 C 300.6875 635.878906 298.941406 634.355469 297.230469 632.796875 C 295.519531 631.234375 293.839844 629.636719 292.199219 628.003906 C 290.558594 626.371094 288.949219 624.703125 287.382812 623 C 285.8125 621.292969 284.277344 619.558594 282.785156 617.789062 C 281.289062 616.015625 279.835938 614.214844 278.417969 612.382812 C 277.003906 610.546875 275.628906 608.683594 274.292969 606.792969 C 272.957031 604.898438 271.664062 602.976562 270.414062 601.027344 C 269.160156 599.078125 267.953125 597.101562 266.789062 595.101562 C 265.621094 593.097656 264.5 591.074219 263.421875 589.023438 C 262.347656 586.972656 261.3125 584.898438 260.324219 582.804688 C 259.339844 580.707031 258.398438 578.589844 257.503906 576.453125 C 256.605469 574.316406 255.757812 572.164062 254.957031 569.988281 C 254.15625 567.816406 253.402344 565.625 252.695312 563.421875 C 251.988281 561.214844 251.328125 558.992188 250.71875 556.757812 C 250.109375 554.523438 249.546875 552.277344 249.035156 550.019531 C 248.523438 547.757812 248.058594 545.488281 247.648438 543.210938 C 247.542969 542.648438 247.464844 542.085938 247.417969 541.519531 C 247.371094 540.953125 247.347656 540.382812 247.355469 539.8125 C 247.363281 539.246094 247.398438 538.675781 247.460938 538.109375 C 247.527344 537.542969 247.617188 536.984375 247.734375 536.425781 C 247.851562 535.867188 248 535.320312 248.171875 534.777344 C 248.34375 534.234375 248.542969 533.699219 248.765625 533.175781 C 248.992188 532.652344 249.242188 532.144531 249.515625 531.644531 C 249.792969 531.144531 250.089844 530.660156 250.414062 530.191406 C 250.734375 529.722656 251.078125 529.269531 251.445312 528.835938 C 251.8125 528.398438 252.203125 527.984375 252.609375 527.585938 C 253.015625 527.1875 253.445312 526.8125 253.886719 526.457031 C 254.332031 526.101562 254.792969 525.765625 255.273438 525.457031 C 255.75 525.148438 256.242188 524.859375 256.746094 524.597656 C 257.253906 524.335938 257.769531 524.101562 258.300781 523.890625 C 258.828125 523.679688 259.367188 523.492188 259.914062 523.335938 C 260.460938 523.175781 261.015625 523.046875 261.574219 522.941406 C 262.132812 522.839844 262.699219 522.761719 263.265625 522.714844 C 263.832031 522.664062 264.402344 522.644531 264.96875 522.652344 C 265.539062 522.660156 266.109375 522.695312 266.671875 522.757812 C 267.238281 522.820312 267.800781 522.914062 268.359375 523.03125 C 268.914062 523.148438 269.464844 523.292969 270.007812 523.46875 C 270.550781 523.640625 271.082031 523.839844 271.605469 524.0625 C 272.128906 524.289062 272.640625 524.539062 273.140625 524.8125 C 273.636719 525.085938 274.121094 525.386719 274.59375 525.707031 C 275.0625 526.03125 275.515625 526.375 275.949219 526.742188 C 276.386719 527.109375 276.800781 527.496094 277.199219 527.90625 C 277.597656 528.3125 277.972656 528.738281 278.328125 529.183594 C 278.683594 529.628906 279.015625 530.089844 279.328125 530.566406 C 279.636719 531.046875 279.921875 531.539062 280.183594 532.042969 C 280.445312 532.550781 280.683594 533.066406 280.894531 533.59375 C 281.105469 534.125 281.289062 534.660156 281.449219 535.210938 C 281.605469 535.757812 281.738281 536.308594 281.839844 536.871094 C 282.183594 538.648438 282.5625 540.417969 282.976562 542.179688 C 283.394531 543.941406 283.851562 545.691406 284.339844 547.433594 C 284.832031 549.175781 285.363281 550.90625 285.929688 552.628906 C 286.496094 554.347656 287.097656 556.054688 287.738281 557.746094 C 288.375 559.441406 289.050781 561.121094 289.761719 562.785156 C 290.472656 564.449219 291.21875 566.097656 292 567.730469 C 292.785156 569.363281 293.601562 570.980469 294.449219 572.578125 C 295.300781 574.175781 296.1875 575.753906 297.105469 577.316406 C 298.023438 578.875 298.976562 580.414062 299.960938 581.933594 C 300.945312 583.453125 301.960938 584.949219 303.007812 586.425781 C 304.058594 587.902344 305.136719 589.355469 306.25 590.785156 C 307.359375 592.214844 308.5 593.617188 309.671875 595 C 310.84375 596.378906 312.042969 597.734375 313.273438 599.0625 C 314.5 600.390625 315.757812 601.695312 317.042969 602.96875 C 318.328125 604.246094 319.640625 605.492188 320.976562 606.710938 C 322.316406 607.929688 323.679688 609.121094 325.070312 610.28125 C 326.460938 611.441406 327.871094 612.570312 329.308594 613.671875 C 330.75 614.773438 332.207031 615.839844 333.691406 616.878906 C 335.175781 617.917969 336.679688 618.921875 338.207031 619.894531 C 339.734375 620.867188 341.28125 621.808594 342.847656 622.714844 C 344.414062 623.621094 346 624.496094 347.605469 625.332031 C 349.207031 626.171875 350.828125 626.976562 352.46875 627.746094 C 354.105469 628.515625 355.761719 629.25 357.433594 629.949219 C 359.101562 630.644531 360.785156 631.308594 362.484375 631.933594 C 364.183594 632.5625 365.894531 633.152344 367.617188 633.703125 C 369.34375 634.257812 371.078125 634.773438 372.824219 635.253906 C 374.570312 635.730469 376.324219 636.171875 378.089844 636.578125 C 379.851562 636.980469 381.625 637.347656 383.40625 637.671875 C 385.1875 638 386.972656 638.289062 388.765625 638.542969 C 390.558594 638.792969 392.355469 639.003906 394.160156 639.179688 C 395.960938 639.355469 397.765625 639.488281 399.574219 639.585938 C 401.378906 639.683594 403.191406 639.742188 405 639.761719 C 405.503906 639.761719 405.996094 639.761719 406.496094 639.761719 C 408.289062 639.730469 410.085938 639.660156 411.878906 639.554688 C 413.671875 639.445312 415.460938 639.300781 417.246094 639.117188 C 419.035156 638.929688 420.816406 638.710938 422.59375 638.449219 C 424.367188 638.1875 426.140625 637.890625 427.902344 637.554688 C 429.667969 637.214844 431.425781 636.84375 433.171875 636.429688 C 434.921875 636.019531 436.660156 635.570312 438.386719 635.082031 C 440.117188 634.597656 441.835938 634.074219 443.539062 633.515625 C 445.246094 632.953125 446.941406 632.359375 448.621094 631.726562 C 450.300781 631.09375 451.96875 630.425781 453.621094 629.722656 C 455.273438 629.015625 456.910156 628.277344 458.53125 627.503906 C 460.152344 626.730469 461.753906 625.921875 463.339844 625.078125 C 464.925781 624.234375 466.492188 623.359375 468.042969 622.449219 C 469.589844 621.539062 471.117188 620.597656 472.625 619.621094 C 474.132812 618.644531 475.621094 617.640625 477.085938 616.601562 C 478.550781 615.5625 479.992188 614.492188 481.410156 613.390625 C 482.828125 612.289062 484.226562 611.15625 485.59375 609.996094 C 486.964844 608.835938 488.3125 607.648438 489.628906 606.429688 C 490.949219 605.210938 492.242188 603.964844 493.507812 602.691406 C 494.773438 601.417969 496.011719 600.117188 497.222656 598.789062 C 498.433594 597.460938 499.613281 596.109375 500.765625 594.734375 C 501.917969 593.355469 503.042969 591.953125 504.132812 590.527344 C 505.226562 589.101562 506.289062 587.65625 507.316406 586.183594 C 508.347656 584.710938 509.347656 583.21875 510.3125 581.707031 C 511.28125 580.191406 512.210938 578.660156 513.113281 577.105469 C 514.015625 575.550781 514.878906 573.976562 515.714844 572.386719 C 516.546875 570.796875 517.34375 569.1875 518.109375 567.5625 C 518.875 565.9375 519.601562 564.296875 520.296875 562.640625 C 520.992188 560.984375 521.648438 559.3125 522.269531 557.628906 C 522.894531 555.945312 523.480469 554.246094 524.027344 552.535156 C 524.578125 550.828125 525.089844 549.105469 525.566406 547.375 C 526.042969 545.640625 526.480469 543.902344 526.882812 542.152344 C 527.285156 540.398438 527.648438 538.640625 527.972656 536.875 C 528.078125 536.316406 528.207031 535.761719 528.363281 535.214844 C 528.523438 534.667969 528.707031 534.128906 528.917969 533.597656 C 529.128906 533.070312 529.363281 532.550781 529.625 532.046875 C 529.886719 531.539062 530.175781 531.046875 530.484375 530.570312 C 530.792969 530.09375 531.128906 529.628906 531.484375 529.183594 C 531.835938 528.738281 532.214844 528.3125 532.613281 527.90625 C 533.007812 527.496094 533.425781 527.109375 533.859375 526.742188 C 534.296875 526.375 534.75 526.027344 535.21875 525.707031 C 535.6875 525.382812 536.171875 525.085938 536.671875 524.808594 C 537.167969 524.535156 537.679688 524.285156 538.203125 524.058594 C 538.726562 523.832031 539.261719 523.632812 539.804688 523.460938 C 540.347656 523.289062 540.894531 523.144531 541.453125 523.023438 C 542.011719 522.90625 542.570312 522.816406 543.136719 522.753906 C 543.703125 522.6875 544.273438 522.652344 544.84375 522.644531 C 545.410156 522.636719 545.980469 522.660156 546.546875 522.707031 C 547.117188 522.753906 547.679688 522.832031 548.238281 522.933594 C 548.800781 523.039062 549.355469 523.171875 549.902344 523.328125 C 550.449219 523.488281 550.988281 523.671875 551.515625 523.882812 C 552.042969 524.09375 552.5625 524.328125 553.066406 524.59375 C 553.574219 524.855469 554.066406 525.140625 554.542969 525.449219 C 555.019531 525.761719 555.484375 526.09375 555.929688 526.449219 C 556.371094 526.804688 556.800781 527.179688 557.207031 527.578125 C 557.617188 527.976562 558.003906 528.394531 558.371094 528.828125 C 558.738281 529.265625 559.082031 529.71875 559.40625 530.1875 C 559.726562 530.65625 560.027344 531.140625 560.300781 531.640625 C 560.574219 532.140625 560.824219 532.648438 561.050781 533.171875 C 561.273438 533.695312 561.472656 534.230469 561.644531 534.773438 C 561.820312 535.316406 561.964844 535.867188 562.082031 536.421875 C 562.199219 536.980469 562.289062 537.542969 562.355469 538.109375 C 562.417969 538.675781 562.453125 539.242188 562.460938 539.8125 C 562.464844 540.382812 562.445312 540.949219 562.398438 541.519531 C 562.347656 542.085938 562.273438 542.648438 562.167969 543.210938 C 561.75 545.464844 561.285156 547.710938 560.769531 549.945312 C 560.253906 552.183594 559.691406 554.40625 559.082031 556.617188 C 558.472656 558.828125 557.816406 561.027344 557.113281 563.210938 C 556.410156 565.394531 555.660156 567.558594 554.863281 569.710938 C 554.066406 571.863281 553.222656 573.996094 552.335938 576.109375 C 551.449219 578.226562 550.515625 580.320312 549.535156 582.398438 C 548.558594 584.472656 547.535156 586.523438 546.472656 588.554688 C 545.40625 590.585938 544.296875 592.59375 543.144531 594.578125 C 541.992188 596.5625 540.796875 598.519531 539.5625 600.453125 C 538.328125 602.386719 537.050781 604.292969 535.730469 606.167969 C 534.414062 608.046875 533.058594 609.894531 531.660156 611.714844 C 530.265625 613.535156 528.828125 615.324219 527.355469 617.082031 C 525.882812 618.839844 524.371094 620.566406 522.824219 622.261719 C 521.277344 623.953125 519.695312 625.613281 518.074219 627.238281 C 516.457031 628.863281 514.804688 630.453125 513.117188 632.011719 C 511.429688 633.566406 509.710938 635.082031 507.960938 636.5625 C 506.207031 638.046875 504.425781 639.488281 502.613281 640.894531 C 500.800781 642.296875 498.957031 643.664062 497.085938 644.988281 C 495.210938 646.3125 493.3125 647.597656 491.386719 648.84375 C 489.457031 650.089844 487.503906 651.289062 485.527344 652.453125 C 483.546875 653.613281 481.546875 654.730469 479.519531 655.804688 C 477.492188 656.878906 475.441406 657.910156 473.371094 658.898438 C 471.300781 659.882812 469.210938 660.828125 467.097656 661.722656 C 464.988281 662.621094 462.859375 663.472656 460.710938 664.28125 C 458.5625 665.085938 456.398438 665.84375 454.21875 666.558594 C 452.039062 667.273438 449.84375 667.9375 447.636719 668.558594 C 445.425781 669.175781 443.207031 669.75 440.972656 670.273438 C 438.738281 670.796875 436.496094 671.273438 434.242188 671.703125 C 431.988281 672.128906 429.726562 672.507812 427.457031 672.839844 C 425.1875 673.171875 422.910156 673.453125 420.628906 673.6875 C 418.347656 673.921875 416.0625 674.105469 413.769531 674.242188 C 411.480469 674.375 409.1875 674.460938 406.894531 674.5 Z M 404.878906 674.535156 " fill-opacity="1" fill-rule="nonzero"/></g><g clip-path="url(#26c8edcbff)"><path fill="#ffffff" d="M 405.121094 298.300781 C 407.4375 298.300781 409.753906 298.351562 412.066406 298.453125 C 414.382812 298.554688 416.691406 298.707031 419 298.910156 C 421.308594 299.113281 423.609375 299.363281 425.90625 299.667969 C 428.203125 299.96875 430.492188 300.320312 432.773438 300.722656 C 435.054688 301.125 437.328125 301.574219 439.589844 302.074219 C 441.851562 302.574219 444.101562 303.125 446.339844 303.722656 C 448.578125 304.320312 450.800781 304.96875 453.011719 305.664062 C 455.222656 306.359375 457.414062 307.101562 459.59375 307.890625 C 461.769531 308.683594 463.929688 309.519531 466.070312 310.402344 C 468.210938 311.289062 470.332031 312.21875 472.433594 313.195312 C 474.535156 314.171875 476.613281 315.191406 478.667969 316.257812 C 480.726562 317.324219 482.757812 318.4375 484.765625 319.589844 C 486.773438 320.746094 488.753906 321.945312 490.710938 323.1875 C 492.667969 324.425781 494.59375 325.710938 496.496094 327.035156 C 498.394531 328.359375 500.265625 329.726562 502.105469 331.132812 C 503.949219 332.539062 505.757812 333.984375 507.535156 335.46875 C 509.3125 336.953125 511.058594 338.476562 512.769531 340.039062 C 514.480469 341.597656 516.160156 343.195312 517.800781 344.832031 C 519.441406 346.464844 521.050781 348.132812 522.617188 349.835938 C 524.1875 351.539062 525.722656 353.277344 527.214844 355.046875 C 528.710938 356.816406 530.164062 358.617188 531.582031 360.453125 C 532.996094 362.285156 534.371094 364.148438 535.707031 366.042969 C 537.042969 367.933594 538.335938 369.855469 539.585938 371.804688 C 540.839844 373.753906 542.046875 375.730469 543.210938 377.734375 C 544.378906 379.734375 545.5 381.761719 546.578125 383.8125 C 547.652344 385.863281 548.6875 387.9375 549.675781 390.03125 C 550.660156 392.128906 551.601562 394.242188 552.496094 396.378906 C 553.394531 398.515625 554.242188 400.671875 555.042969 402.84375 C 555.84375 405.019531 556.597656 407.207031 557.304688 409.414062 C 558.011719 411.621094 558.671875 413.839844 559.28125 416.074219 C 559.890625 418.308594 560.453125 420.558594 560.964844 422.816406 C 561.476562 425.074219 561.941406 427.34375 562.351562 429.625 C 562.457031 430.183594 562.53125 430.746094 562.582031 431.316406 C 562.628906 431.882812 562.652344 432.453125 562.644531 433.019531 C 562.636719 433.589844 562.601562 434.15625 562.539062 434.722656 C 562.472656 435.289062 562.382812 435.851562 562.265625 436.410156 C 562.148438 436.964844 562 437.515625 561.828125 438.058594 C 561.65625 438.601562 561.457031 439.132812 561.234375 439.65625 C 561.007812 440.179688 560.757812 440.691406 560.484375 441.191406 C 560.207031 441.6875 559.910156 442.171875 559.585938 442.640625 C 559.265625 443.113281 558.921875 443.5625 558.554688 444 C 558.1875 444.433594 557.796875 444.851562 557.390625 445.25 C 556.984375 445.648438 556.554688 446.023438 556.113281 446.378906 C 555.667969 446.734375 555.207031 447.066406 554.726562 447.378906 C 554.25 447.6875 553.757812 447.972656 553.253906 448.234375 C 552.746094 448.496094 552.230469 448.734375 551.699219 448.945312 C 551.171875 449.15625 550.632812 449.339844 550.085938 449.5 C 549.539062 449.65625 548.984375 449.789062 548.425781 449.890625 C 547.867188 449.996094 547.300781 450.070312 546.734375 450.121094 C 546.167969 450.167969 545.597656 450.1875 545.03125 450.183594 C 544.460938 450.175781 543.890625 450.140625 543.328125 450.074219 C 542.761719 450.011719 542.199219 449.921875 541.640625 449.804688 C 541.085938 449.683594 540.535156 449.539062 539.992188 449.367188 C 539.449219 449.195312 538.917969 448.996094 538.394531 448.773438 C 537.871094 448.546875 537.359375 448.296875 536.859375 448.023438 C 536.363281 447.746094 535.878906 447.449219 535.40625 447.125 C 534.9375 446.804688 534.484375 446.457031 534.050781 446.089844 C 533.613281 445.722656 533.199219 445.335938 532.800781 444.929688 C 532.402344 444.519531 532.027344 444.09375 531.671875 443.648438 C 531.316406 443.207031 530.984375 442.742188 530.671875 442.265625 C 530.363281 441.789062 530.078125 441.296875 529.816406 440.792969 C 529.554688 440.285156 529.316406 439.769531 529.105469 439.238281 C 528.894531 438.710938 528.710938 438.171875 528.550781 437.625 C 528.394531 437.078125 528.261719 436.523438 528.160156 435.964844 C 527.816406 434.1875 527.4375 432.417969 527.023438 430.65625 C 526.605469 428.894531 526.148438 427.140625 525.660156 425.398438 C 525.167969 423.65625 524.636719 421.925781 524.070312 420.207031 C 523.503906 418.488281 522.902344 416.78125 522.261719 415.085938 C 521.625 413.394531 520.949219 411.714844 520.238281 410.050781 C 519.527344 408.382812 518.78125 406.734375 518 405.101562 C 517.214844 403.46875 516.398438 401.855469 515.550781 400.257812 C 514.699219 398.660156 513.8125 397.078125 512.894531 395.519531 C 511.976562 393.960938 511.023438 392.421875 510.039062 390.902344 C 509.054688 389.382812 508.039062 387.882812 506.992188 386.410156 C 505.941406 384.933594 504.863281 383.480469 503.75 382.050781 C 502.640625 380.621094 501.5 379.214844 500.328125 377.835938 C 499.15625 376.457031 497.957031 375.101562 496.726562 373.769531 C 495.5 372.441406 494.242188 371.140625 492.957031 369.863281 C 491.671875 368.589844 490.359375 367.34375 489.023438 366.125 C 487.683594 364.902344 486.320312 363.714844 484.929688 362.554688 C 483.539062 361.394531 482.128906 360.261719 480.691406 359.164062 C 479.25 358.0625 477.792969 356.992188 476.308594 355.957031 C 474.824219 354.917969 473.320312 353.914062 471.792969 352.941406 C 470.265625 351.964844 468.71875 351.027344 467.152344 350.121094 C 465.585938 349.214844 464 348.339844 462.394531 347.5 C 460.792969 346.664062 459.171875 345.859375 457.53125 345.089844 C 455.894531 344.320312 454.238281 343.585938 452.566406 342.886719 C 450.898438 342.1875 449.214844 341.527344 447.515625 340.898438 C 445.816406 340.273438 444.105469 339.683594 442.382812 339.128906 C 440.65625 338.578125 438.921875 338.0625 437.175781 337.582031 C 435.429688 337.101562 433.675781 336.660156 431.910156 336.257812 C 430.148438 335.855469 428.375 335.488281 426.59375 335.160156 C 424.8125 334.832031 423.027344 334.542969 421.234375 334.292969 C 419.441406 334.042969 417.644531 333.828125 415.839844 333.65625 C 414.039062 333.480469 412.234375 333.34375 410.425781 333.25 C 408.621094 333.152344 406.808594 333.09375 405 333.074219 C 404.496094 333.074219 404.003906 333.074219 403.503906 333.074219 C 401.710938 333.105469 399.914062 333.171875 398.121094 333.28125 C 396.328125 333.386719 394.539062 333.535156 392.753906 333.71875 C 390.964844 333.902344 389.183594 334.125 387.40625 334.386719 C 385.632812 334.648438 383.859375 334.945312 382.097656 335.28125 C 380.332031 335.617188 378.574219 335.992188 376.828125 336.402344 C 375.078125 336.816406 373.339844 337.265625 371.613281 337.75 C 369.882812 338.238281 368.164062 338.761719 366.460938 339.320312 C 364.753906 339.878906 363.058594 340.476562 361.378906 341.109375 C 359.699219 341.742188 358.03125 342.410156 356.378906 343.113281 C 354.726562 343.816406 353.089844 344.554688 351.46875 345.332031 C 349.847656 346.105469 348.246094 346.914062 346.660156 347.753906 C 345.074219 348.597656 343.507812 349.476562 341.957031 350.386719 C 340.410156 351.292969 338.882812 352.238281 337.375 353.210938 C 335.867188 354.1875 334.378906 355.195312 332.914062 356.234375 C 331.449219 357.273438 330.007812 358.34375 328.589844 359.445312 C 327.171875 360.546875 325.773438 361.675781 324.40625 362.835938 C 323.035156 363.996094 321.6875 365.1875 320.371094 366.40625 C 319.050781 367.625 317.757812 368.871094 316.492188 370.144531 C 315.226562 371.417969 313.988281 372.71875 312.777344 374.046875 C 311.566406 375.371094 310.386719 376.722656 309.234375 378.101562 C 308.082031 379.480469 306.957031 380.878906 305.867188 382.304688 C 304.773438 383.730469 303.710938 385.179688 302.683594 386.652344 C 301.652344 388.121094 300.652344 389.613281 299.6875 391.128906 C 298.71875 392.640625 297.789062 394.175781 296.886719 395.730469 C 295.984375 397.285156 295.121094 398.855469 294.285156 400.449219 C 293.453125 402.039062 292.65625 403.648438 291.890625 405.273438 C 291.125 406.898438 290.398438 408.539062 289.703125 410.195312 C 289.007812 411.851562 288.351562 413.519531 287.730469 415.207031 C 287.105469 416.890625 286.519531 418.589844 285.972656 420.296875 C 285.421875 422.007812 284.910156 423.730469 284.433594 425.460938 C 283.957031 427.191406 283.519531 428.933594 283.117188 430.683594 C 282.714844 432.433594 282.351562 434.191406 282.027344 435.957031 C 281.921875 436.519531 281.792969 437.074219 281.636719 437.621094 C 281.476562 438.167969 281.292969 438.707031 281.082031 439.234375 C 280.871094 439.765625 280.636719 440.28125 280.375 440.789062 C 280.113281 441.292969 279.824219 441.785156 279.515625 442.265625 C 279.207031 442.742188 278.871094 443.203125 278.515625 443.648438 C 278.164062 444.09375 277.785156 444.519531 277.386719 444.929688 C 276.992188 445.335938 276.574219 445.726562 276.140625 446.09375 C 275.703125 446.460938 275.25 446.804688 274.78125 447.128906 C 274.3125 447.449219 273.828125 447.75 273.328125 448.023438 C 272.832031 448.300781 272.320312 448.550781 271.796875 448.777344 C 271.273438 449 270.738281 449.199219 270.195312 449.371094 C 269.652344 449.546875 269.105469 449.691406 268.546875 449.808594 C 267.988281 449.929688 267.429688 450.019531 266.863281 450.082031 C 266.296875 450.144531 265.726562 450.179688 265.15625 450.1875 C 264.589844 450.195312 264.019531 450.175781 263.453125 450.128906 C 262.882812 450.078125 262.320312 450.003906 261.761719 449.898438 C 261.199219 449.796875 260.644531 449.664062 260.097656 449.507812 C 259.550781 449.347656 259.011719 449.164062 258.484375 448.953125 C 257.957031 448.742188 257.4375 448.503906 256.933594 448.242188 C 256.425781 447.980469 255.933594 447.695312 255.457031 447.382812 C 254.980469 447.074219 254.515625 446.742188 254.070312 446.386719 C 253.628906 446.03125 253.199219 445.652344 252.792969 445.253906 C 252.382812 444.859375 251.996094 444.441406 251.628906 444.003906 C 251.261719 443.570312 250.917969 443.117188 250.59375 442.648438 C 250.273438 442.179688 249.972656 441.695312 249.699219 441.195312 C 249.425781 440.695312 249.175781 440.183594 248.949219 439.660156 C 248.726562 439.136719 248.527344 438.605469 248.355469 438.0625 C 248.179688 437.519531 248.035156 436.96875 247.917969 436.410156 C 247.800781 435.851562 247.710938 435.292969 247.644531 434.726562 C 247.582031 434.160156 247.546875 433.589844 247.539062 433.023438 C 247.535156 432.453125 247.554688 431.882812 247.601562 431.316406 C 247.652344 430.75 247.726562 430.183594 247.832031 429.625 C 248.25 427.367188 248.714844 425.125 249.230469 422.886719 C 249.746094 420.652344 250.308594 418.429688 250.917969 416.21875 C 251.527344 414.003906 252.183594 411.808594 252.886719 409.625 C 253.589844 407.441406 254.339844 405.273438 255.136719 403.121094 C 255.933594 400.972656 256.777344 398.839844 257.664062 396.722656 C 258.550781 394.609375 259.484375 392.511719 260.464844 390.4375 C 261.441406 388.363281 262.464844 386.308594 263.527344 384.277344 C 264.59375 382.246094 265.703125 380.238281 266.855469 378.253906 C 268.007812 376.273438 269.203125 374.3125 270.4375 372.382812 C 271.671875 370.449219 272.949219 368.542969 274.269531 366.664062 C 275.585938 364.789062 276.941406 362.9375 278.339844 361.117188 C 279.734375 359.300781 281.171875 357.511719 282.644531 355.75 C 284.117188 353.992188 285.628906 352.269531 287.175781 350.574219 C 288.722656 348.878906 290.304688 347.222656 291.925781 345.59375 C 293.542969 343.96875 295.195312 342.378906 296.882812 340.824219 C 298.570312 339.269531 300.289062 337.75 302.039062 336.269531 C 303.792969 334.789062 305.574219 333.347656 307.386719 331.941406 C 309.199219 330.535156 311.042969 329.171875 312.914062 327.847656 C 314.789062 326.519531 316.6875 325.234375 318.613281 323.992188 C 320.542969 322.746094 322.496094 321.542969 324.472656 320.382812 C 326.453125 319.222656 328.453125 318.105469 330.480469 317.03125 C 332.507812 315.953125 334.558594 314.925781 336.628906 313.9375 C 338.699219 312.949219 340.789062 312.007812 342.902344 311.109375 C 345.011719 310.214844 347.140625 309.359375 349.289062 308.554688 C 351.4375 307.75 353.601562 306.988281 355.78125 306.277344 C 357.960938 305.5625 360.15625 304.894531 362.363281 304.277344 C 364.574219 303.65625 366.792969 303.085938 369.027344 302.5625 C 371.261719 302.035156 373.503906 301.5625 375.757812 301.132812 C 378.011719 300.703125 380.273438 300.324219 382.542969 299.996094 C 384.8125 299.664062 387.089844 299.378906 389.371094 299.148438 C 391.652344 298.914062 393.9375 298.730469 396.230469 298.59375 C 398.519531 298.457031 400.8125 298.371094 403.105469 298.335938 Z M 405.121094 298.300781 " fill-opacity="1" fill-rule="nonzero"/></g></svg>