<svg xmlns="http://www.w3.org/2000/svg" xmlns:xlink="http://www.w3.org/1999/xlink" width="3000" zoomAndPan="magnify" viewBox="0 0 2250 2250.000011" height="3000" preserveAspectRatio="xMidYMid meet" version="1.0"><defs><clipPath id="30e24a1a0c"><path d="M 225 224 L 2008 224 L 2008 2008 L 225 2008 Z M 225 224 " clip-rule="nonzero"/></clipPath><clipPath id="c9be37d764"><path d="M 1116.566406 -144.234375 L 2377.132812 1116.332031 L 1116.566406 2376.894531 L -144 1116.332031 Z M 1116.566406 -144.234375 " clip-rule="nonzero"/></clipPath><clipPath id="43fb48f600"><path d="M 1116.566406 -144.234375 L 2376.867188 1116.066406 L 1116.566406 2376.367188 L -143.734375 1116.066406 Z M 1116.566406 -144.234375 " clip-rule="nonzero"/></clipPath><clipPath id="eb128f2efe"><path d="M 1746.714844 485.917969 C 1398.695312 137.894531 834.4375 137.894531 486.417969 485.917969 C 138.394531 833.9375 138.394531 1398.195312 486.417969 1746.214844 C 834.4375 2094.238281 1398.695312 2094.238281 1746.714844 1746.214844 C 2094.738281 1398.195312 2094.738281 833.9375 1746.714844 485.917969 Z M 1746.714844 485.917969 " clip-rule="nonzero"/></clipPath></defs><g clip-path="url(#30e24a1a0c)"><g clip-path="url(#c9be37d764)"><g clip-path="url(#43fb48f600)"><g clip-path="url(#eb128f2efe)"><path stroke-linecap="butt" transform="matrix(0.530094, 0.530094, -0.530094, 0.530094, 1116.566214, -144.233082)" fill="none" stroke-linejoin="miter" d="M 1188.750071 0.00228288 C 532.222785 -0.0014016 -0.00103853 532.222422 0.00264596 1188.749708 C -0.00103853 1845.276994 532.222785 2377.500818 1188.750071 2377.497133 C 1845.277357 2377.500818 2377.501181 1845.276994 2377.497497 1188.749708 C 2377.501181 532.222422 1845.277357 -0.0014016 1188.750071 0.00228288 Z M 1188.750071 0.00228288 " stroke="#ffffff" stroke-width="200" stroke-opacity="1" stroke-miterlimit="4"/></g></g></g></g><path stroke-linecap="butt" transform="matrix(0.530094, 0.530094, -0.530094, 0.530094, 1435.938659, 1382.435098)" fill="none" stroke-linejoin="miter" d="M 0.00117313 50.001817 L 636.263793 49.998133 " stroke="#ffffff" stroke-width="100" stroke-opacity="1" stroke-miterlimit="4"/></svg>