<svg xmlns="http://www.w3.org/2000/svg" xmlns:xlink="http://www.w3.org/1999/xlink" width="3000" zoomAndPan="magnify" viewBox="0 0 2250 2250.000011" height="3000" preserveAspectRatio="xMidYMid meet" version="1.0"><defs><clipPath id="98807c5f07"><path d="M 256 224.898438 L 1994 224.898438 L 1994 2024.101562 L 256 2024.101562 Z M 256 224.898438 " clip-rule="nonzero"/></clipPath><clipPath id="104290cb93"><path d="M 939 224.898438 L 1312 224.898438 L 1312 287 L 939 287 Z M 939 224.898438 " clip-rule="nonzero"/></clipPath><clipPath id="b388670f3e"><path d="M 752 1900 L 1498 1900 L 1498 2024.101562 L 752 2024.101562 Z M 752 1900 " clip-rule="nonzero"/></clipPath></defs><path fill="#ffd54f" d="M 1621.609375 410.984375 L 1559.566406 410.984375 L 1559.566406 473.027344 L 1683.652344 473.027344 L 1683.652344 410.984375 Z M 1621.609375 410.984375 " fill-opacity="1" fill-rule="nonzero"/><path fill="#ffd54f" d="M 1683.652344 473.027344 L 1745.691406 473.027344 L 1745.691406 535.070312 L 1683.652344 535.070312 Z M 1683.652344 473.027344 " fill-opacity="1" fill-rule="nonzero"/><path fill="#ffd54f" d="M 1745.691406 535.070312 L 1807.734375 535.070312 L 1807.734375 597.113281 L 1745.691406 597.113281 Z M 1745.691406 535.070312 " fill-opacity="1" fill-rule="nonzero"/><path fill="#ffa000" d="M 1559.566406 597.113281 L 1621.609375 597.113281 L 1621.609375 659.15625 L 1559.566406 659.15625 Z M 1559.566406 597.113281 " fill-opacity="1" fill-rule="nonzero"/><path fill="#ffa000" d="M 1621.609375 783.242188 L 1683.652344 783.242188 L 1683.652344 659.15625 L 1621.609375 659.15625 Z M 1621.609375 783.242188 " fill-opacity="1" fill-rule="nonzero"/><path fill="#ffa000" d="M 1683.652344 907.328125 L 1745.691406 907.328125 L 1745.691406 783.242188 L 1683.652344 783.242188 Z M 1683.652344 907.328125 " fill-opacity="1" fill-rule="nonzero"/><path fill="#ffa000" d="M 1745.691406 907.328125 L 1807.734375 907.328125 L 1807.734375 969.371094 L 1745.691406 969.371094 Z M 1745.691406 907.328125 " fill-opacity="1" fill-rule="nonzero"/><path fill="#ffa000" d="M 1621.609375 1279.628906 L 1621.609375 1217.585938 L 1559.566406 1217.585938 L 1559.566406 1341.671875 L 1621.609375 1341.671875 Z M 1621.609375 1279.628906 " fill-opacity="1" fill-rule="nonzero"/><path fill="#ffa000" d="M 1931.820312 1341.671875 L 1931.820312 1465.757812 L 1993.863281 1465.757812 L 1993.863281 1279.628906 L 1931.820312 1279.628906 Z M 1931.820312 1341.671875 " fill-opacity="1" fill-rule="nonzero"/><path fill="#ffa000" d="M 1869.777344 1527.800781 L 1807.734375 1527.800781 L 1807.734375 1651.886719 L 1869.777344 1651.886719 L 1869.777344 1589.84375 L 1931.820312 1589.84375 L 1931.820312 1465.757812 L 1869.777344 1465.757812 Z M 1869.777344 1527.800781 " fill-opacity="1" fill-rule="nonzero"/><path fill="#ffa000" d="M 1745.691406 1651.886719 L 1807.734375 1651.886719 L 1807.734375 1713.929688 L 1745.691406 1713.929688 Z M 1745.691406 1651.886719 " fill-opacity="1" fill-rule="nonzero"/><path fill="#ffa000" d="M 1683.652344 1713.929688 L 1745.691406 1713.929688 L 1745.691406 1775.972656 L 1683.652344 1775.972656 Z M 1683.652344 1713.929688 " fill-opacity="1" fill-rule="nonzero"/><g clip-path="url(#98807c5f07)"><path fill="#ffb300" d="M 1931.820312 845.285156 L 1931.820312 721.199219 L 1869.777344 721.199219 L 1869.777344 659.15625 L 1807.734375 659.15625 L 1807.734375 535.070312 L 1745.691406 535.070312 L 1745.691406 473.027344 L 1683.652344 473.027344 L 1683.652344 410.984375 L 1559.566406 410.984375 L 1559.566406 348.898438 L 1497.476562 348.898438 L 1497.476562 286.855469 L 1311.347656 286.855469 L 1311.347656 224.8125 L 939.089844 224.8125 L 939.089844 286.855469 L 752.917969 286.855469 L 752.917969 348.898438 L 690.875 348.898438 L 690.875 410.984375 L 566.789062 410.984375 L 566.789062 473.027344 L 504.746094 473.027344 L 504.746094 535.070312 L 442.703125 535.070312 L 442.703125 659.15625 L 380.660156 659.15625 L 380.660156 721.199219 L 318.617188 721.199219 L 318.617188 907.328125 L 256.574219 907.328125 L 256.574219 1465.757812 L 318.617188 1465.757812 L 318.617188 1589.84375 L 380.660156 1589.84375 L 380.660156 1651.886719 L 442.703125 1651.886719 L 442.703125 1713.929688 L 504.746094 1713.929688 L 504.746094 1775.972656 L 566.789062 1775.972656 L 566.789062 1838.015625 L 628.832031 1838.015625 L 628.832031 1900.101562 L 752.917969 1900.101562 L 752.917969 1962.144531 L 877.046875 1962.144531 L 877.046875 2024.1875 L 1373.390625 2024.1875 L 1373.390625 1962.144531 L 1497.476562 1962.144531 L 1497.476562 1900.101562 L 1621.609375 1900.101562 L 1621.609375 1838.015625 L 1683.652344 1838.015625 L 1683.652344 1775.972656 L 1745.691406 1775.972656 L 1745.691406 1713.929688 L 1807.734375 1713.929688 L 1807.734375 1651.886719 L 1869.777344 1651.886719 L 1869.777344 1589.84375 L 1931.820312 1589.84375 L 1931.820312 1465.757812 L 1993.863281 1465.757812 L 1993.863281 907.328125 L 1931.820312 907.328125 Z M 1931.820312 845.285156 " fill-opacity="1" fill-rule="nonzero"/></g><g clip-path="url(#104290cb93)"><path fill="#ffd54f" d="M 1249.304688 224.8125 L 939.089844 224.8125 L 939.089844 286.855469 L 1311.347656 286.855469 L 1311.347656 224.8125 Z M 1249.304688 224.8125 " fill-opacity="1" fill-rule="nonzero"/></g><path fill="#ffd54f" d="M 815.003906 286.855469 L 752.960938 286.855469 L 752.960938 348.898438 L 939.089844 348.898438 L 939.089844 286.855469 Z M 815.003906 286.855469 " fill-opacity="1" fill-rule="nonzero"/><path fill="#ffd54f" d="M 1435.433594 286.855469 L 1311.347656 286.855469 L 1311.347656 348.898438 L 1497.476562 348.898438 L 1497.476562 286.855469 Z M 1435.433594 286.855469 " fill-opacity="1" fill-rule="nonzero"/><path fill="#ffd54f" d="M 690.875 348.898438 L 752.917969 348.898438 L 752.917969 410.941406 L 690.875 410.941406 Z M 690.875 348.898438 " fill-opacity="1" fill-rule="nonzero"/><path fill="#ffd54f" d="M 1497.476562 348.898438 L 1559.519531 348.898438 L 1559.519531 410.941406 L 1497.476562 410.941406 Z M 1497.476562 348.898438 " fill-opacity="1" fill-rule="nonzero"/><path fill="#ffd54f" d="M 566.789062 410.984375 L 566.789062 473.027344 L 690.875 473.027344 L 690.875 410.984375 Z M 566.789062 410.984375 " fill-opacity="1" fill-rule="nonzero"/><path fill="#ffd54f" d="M 504.746094 473.027344 L 566.789062 473.027344 L 566.789062 535.070312 L 504.746094 535.070312 Z M 504.746094 473.027344 " fill-opacity="1" fill-rule="nonzero"/><path fill="#ffd54f" d="M 442.703125 535.070312 L 504.746094 535.070312 L 504.746094 597.113281 L 442.703125 597.113281 Z M 442.703125 535.070312 " fill-opacity="1" fill-rule="nonzero"/><path fill="#ffd54f" d="M 1187.261719 597.113281 L 1001.132812 597.113281 L 1001.132812 659.15625 L 1249.304688 659.15625 L 1249.304688 597.113281 Z M 1187.261719 597.113281 " fill-opacity="1" fill-rule="nonzero"/><path fill="#ffd54f" d="M 877.046875 659.15625 L 877.046875 721.199219 L 1001.132812 721.199219 L 1001.132812 659.15625 Z M 877.046875 659.15625 " fill-opacity="1" fill-rule="nonzero"/><path fill="#ffd54f" d="M 1311.347656 721.199219 L 1373.390625 721.199219 L 1373.390625 659.15625 L 1249.304688 659.15625 L 1249.304688 721.199219 Z M 1311.347656 721.199219 " fill-opacity="1" fill-rule="nonzero"/><path fill="#ffd54f" d="M 815.003906 721.199219 L 877.046875 721.199219 L 877.046875 783.242188 L 815.003906 783.242188 Z M 815.003906 721.199219 " fill-opacity="1" fill-rule="nonzero"/><path fill="#ffd54f" d="M 1373.390625 721.199219 L 1435.433594 721.199219 L 1435.433594 783.242188 L 1373.390625 783.242188 Z M 1373.390625 721.199219 " fill-opacity="1" fill-rule="nonzero"/><path fill="#ffd54f" d="M 752.960938 783.242188 L 815.003906 783.242188 L 815.003906 845.285156 L 752.960938 845.285156 Z M 752.960938 783.242188 " fill-opacity="1" fill-rule="nonzero"/><path fill="#ffd54f" d="M 1435.433594 783.242188 L 1497.476562 783.242188 L 1497.476562 845.285156 L 1435.433594 845.285156 Z M 1435.433594 783.242188 " fill-opacity="1" fill-rule="nonzero"/><path fill="#fb8c00" d="M 1063.175781 845.285156 L 1063.175781 969.371094 L 1187.261719 969.371094 L 1187.261719 845.285156 Z M 1063.175781 845.285156 " fill-opacity="1" fill-rule="nonzero"/><path fill="#fb8c00" d="M 1745.691406 907.328125 L 1683.652344 907.328125 L 1683.652344 783.242188 L 1621.609375 783.242188 L 1621.609375 659.15625 L 1559.566406 659.15625 L 1559.566406 597.113281 L 1435.480469 597.113281 L 1435.480469 535.070312 L 1311.394531 535.070312 L 1311.394531 473.027344 L 939.136719 473.027344 L 939.136719 535.070312 L 815.050781 535.070312 L 815.050781 597.113281 L 690.964844 597.113281 L 690.964844 659.15625 L 628.921875 659.15625 L 628.921875 783.242188 L 566.878906 783.242188 L 566.878906 907.328125 L 504.835938 907.328125 L 504.835938 969.371094 L 442.792969 969.371094 L 442.792969 1279.585938 L 504.835938 1279.585938 L 504.835938 1403.671875 L 566.878906 1403.671875 L 566.878906 1527.757812 L 628.921875 1527.757812 L 628.921875 1589.800781 L 690.964844 1589.800781 L 690.964844 1651.84375 L 815.050781 1651.84375 L 815.050781 1713.886719 L 939.136719 1713.886719 L 939.136719 1775.929688 L 1311.394531 1775.929688 L 1311.394531 1713.886719 L 1435.480469 1713.886719 L 1435.480469 1651.84375 L 1559.566406 1651.84375 L 1559.566406 1589.800781 L 1621.609375 1589.800781 L 1621.609375 1527.757812 L 1683.652344 1527.757812 L 1683.652344 1403.671875 L 1745.691406 1403.671875 L 1745.691406 1279.585938 L 1807.734375 1279.585938 L 1807.734375 969.371094 L 1745.691406 969.371094 Z M 1621.609375 1031.414062 L 1621.609375 1341.628906 L 1559.566406 1341.628906 L 1559.566406 1403.671875 L 1497.523438 1403.671875 L 1497.523438 1465.714844 L 1435.480469 1465.714844 L 1435.480469 1527.757812 L 1373.4375 1527.757812 L 1373.4375 1589.800781 L 1249.351562 1589.800781 L 1249.351562 1651.84375 L 1001.179688 1651.84375 L 1001.179688 1589.800781 L 877.09375 1589.800781 L 877.09375 1527.757812 L 815.050781 1527.757812 L 815.050781 1465.714844 L 753.007812 1465.714844 L 753.007812 1403.671875 L 690.964844 1403.671875 L 690.964844 1341.628906 L 628.921875 1341.628906 L 628.921875 969.371094 L 690.964844 969.371094 L 690.964844 845.285156 L 753.007812 845.285156 L 753.007812 783.242188 L 815.050781 783.242188 L 815.050781 721.199219 L 877.09375 721.199219 L 877.09375 659.15625 L 1001.179688 659.15625 L 1001.179688 597.113281 L 1249.351562 597.113281 L 1249.351562 659.15625 L 1373.4375 659.15625 L 1373.4375 721.199219 L 1435.480469 721.199219 L 1435.480469 783.242188 L 1497.523438 783.242188 L 1497.523438 845.285156 L 1559.5625 845.285156 L 1559.5625 969.371094 L 1621.605469 969.371094 L 1621.605469 1031.414062 Z M 1621.609375 1031.414062 " fill-opacity="1" fill-rule="nonzero"/><path fill="#fb8c00" d="M 1063.175781 1031.414062 L 1063.175781 1403.714844 L 1187.261719 1403.714844 L 1187.261719 1031.414062 Z M 1063.175781 1031.414062 " fill-opacity="1" fill-rule="nonzero"/><path fill="#ffb300" d="M 690.875 907.328125 L 690.875 969.371094 L 628.832031 969.371094 L 628.832031 1217.542969 L 690.875 1217.542969 L 690.875 1341.628906 L 752.917969 1341.628906 L 752.917969 1403.671875 L 814.960938 1403.671875 L 814.960938 1465.714844 L 877.003906 1465.714844 L 877.003906 1527.757812 L 1001.089844 1527.757812 L 1001.089844 1589.800781 L 1249.261719 1589.800781 L 1249.261719 1527.757812 L 1373.347656 1527.757812 L 1373.347656 1465.714844 L 1435.390625 1465.714844 L 1435.390625 1403.671875 L 1497.433594 1403.671875 L 1497.433594 1341.628906 L 1559.476562 1341.628906 L 1559.476562 1217.542969 L 1621.519531 1217.542969 L 1621.519531 969.371094 L 1559.476562 969.371094 L 1559.476562 845.285156 L 1435.390625 845.285156 L 1435.390625 783.242188 L 1373.347656 783.242188 L 1373.347656 721.199219 L 1249.261719 721.199219 L 1249.261719 659.15625 L 1001.089844 659.15625 L 1001.089844 721.199219 L 877.003906 721.199219 L 877.003906 783.242188 L 814.960938 783.242188 L 814.960938 845.285156 L 690.875 845.285156 Z M 1125.21875 1403.714844 L 1063.175781 1403.714844 L 1063.175781 1031.457031 L 1187.261719 1031.457031 L 1187.261719 1403.714844 Z M 1125.21875 845.285156 L 1187.261719 845.285156 L 1187.261719 969.371094 L 1063.175781 969.371094 L 1063.175781 845.285156 Z M 1125.21875 845.285156 " fill-opacity="1" fill-rule="nonzero"/><path fill="#ffb300" d="M 1931.820312 845.285156 L 1931.820312 721.199219 L 1869.777344 721.199219 L 1869.777344 659.15625 L 1807.734375 659.15625 L 1807.734375 597.113281 L 1745.691406 597.113281 L 1745.691406 535.070312 L 1683.652344 535.070312 L 1683.652344 473.027344 L 1559.566406 473.027344 L 1559.566406 410.984375 L 1497.523438 410.984375 L 1497.523438 348.941406 L 1311.394531 348.941406 L 1311.394531 286.898438 L 939.136719 286.898438 L 939.136719 348.941406 L 753.007812 348.941406 L 753.007812 410.984375 L 690.964844 410.984375 L 690.964844 473.027344 L 566.878906 473.027344 L 566.878906 535.070312 L 504.835938 535.070312 L 504.835938 597.113281 L 442.792969 597.113281 L 442.792969 659.15625 L 380.75 659.15625 L 380.75 721.199219 L 318.707031 721.199219 L 318.707031 907.328125 L 256.664062 907.328125 L 256.664062 1279.585938 L 318.707031 1279.585938 L 318.707031 1465.714844 L 380.75 1465.714844 L 380.75 1527.757812 L 442.792969 1527.757812 L 442.792969 1651.84375 L 504.835938 1651.84375 L 504.835938 1713.886719 L 566.878906 1713.886719 L 566.878906 1775.929688 L 690.964844 1775.929688 L 690.964844 1837.972656 L 753.007812 1837.972656 L 753.007812 1900.015625 L 939.136719 1900.015625 L 939.136719 1962.058594 L 1311.394531 1962.058594 L 1311.394531 1900.015625 L 1497.523438 1900.015625 L 1497.523438 1837.972656 L 1559.5625 1837.972656 L 1559.5625 1775.929688 L 1683.648438 1775.929688 L 1683.648438 1713.886719 L 1745.691406 1713.886719 L 1745.691406 1651.84375 L 1807.734375 1651.84375 L 1807.734375 1527.757812 L 1869.777344 1527.757812 L 1869.777344 1465.714844 L 1931.820312 1465.714844 L 1931.820312 1279.585938 L 1993.863281 1279.585938 L 1993.863281 907.328125 L 1931.820312 907.328125 Z M 752.960938 535.070312 L 815.003906 535.070312 L 815.003906 473.027344 L 939.089844 473.027344 L 939.089844 410.984375 L 1311.347656 410.984375 L 1311.347656 473.027344 L 1435.433594 473.027344 L 1435.433594 535.070312 L 1559.519531 535.070312 L 1559.519531 597.113281 L 1621.5625 597.113281 L 1621.5625 659.15625 L 1683.605469 659.15625 L 1683.605469 783.242188 L 1745.648438 783.242188 L 1745.648438 907.328125 L 1807.691406 907.328125 L 1807.691406 1279.585938 L 1745.648438 1279.585938 L 1745.648438 1403.671875 L 1683.605469 1403.671875 L 1683.605469 1527.757812 L 1621.5625 1527.757812 L 1621.5625 1589.800781 L 1559.519531 1589.800781 L 1559.519531 1651.84375 L 1435.433594 1651.84375 L 1435.433594 1713.886719 L 1311.347656 1713.886719 L 1311.347656 1775.929688 L 939.089844 1775.929688 L 939.089844 1713.886719 L 815.003906 1713.886719 L 815.003906 1651.84375 L 690.917969 1651.84375 L 690.917969 1589.800781 L 628.878906 1589.800781 L 628.878906 1527.757812 L 566.835938 1527.757812 L 566.835938 1403.671875 L 504.792969 1403.671875 L 504.792969 1279.585938 L 442.75 1279.585938 L 442.75 907.328125 L 504.792969 907.328125 L 504.792969 783.242188 L 566.835938 783.242188 L 566.835938 659.15625 L 628.878906 659.15625 L 628.878906 597.113281 L 690.917969 597.113281 L 690.917969 535.070312 Z M 752.960938 535.070312 " fill-opacity="1" fill-rule="nonzero"/><path fill="#ffa000" d="M 1063.175781 473.027344 L 1311.347656 473.027344 L 1311.347656 410.984375 L 939.089844 410.984375 L 939.089844 473.027344 Z M 1063.175781 473.027344 " fill-opacity="1" fill-rule="nonzero"/><path fill="#ffa000" d="M 939.089844 535.070312 L 939.089844 473.027344 L 815.003906 473.027344 L 815.003906 535.070312 Z M 939.089844 535.070312 " fill-opacity="1" fill-rule="nonzero"/><path fill="#ffa000" d="M 1373.390625 535.070312 L 1435.433594 535.070312 L 1435.433594 473.027344 L 1311.347656 473.027344 L 1311.347656 535.070312 Z M 1373.390625 535.070312 " fill-opacity="1" fill-rule="nonzero"/><path fill="#ffa000" d="M 815.003906 597.113281 L 815.003906 535.070312 L 690.875 535.070312 L 690.875 597.113281 Z M 815.003906 597.113281 " fill-opacity="1" fill-rule="nonzero"/><path fill="#ffa000" d="M 1497.476562 597.113281 L 1559.566406 597.113281 L 1559.566406 535.070312 L 1435.433594 535.070312 L 1435.433594 597.113281 Z M 1497.476562 597.113281 " fill-opacity="1" fill-rule="nonzero"/><path fill="#ffa000" d="M 628.832031 597.113281 L 690.875 597.113281 L 690.875 659.15625 L 628.832031 659.15625 Z M 628.832031 597.113281 " fill-opacity="1" fill-rule="nonzero"/><path fill="#ffa000" d="M 628.832031 721.199219 L 628.832031 659.15625 L 566.789062 659.15625 L 566.789062 783.242188 L 628.832031 783.242188 Z M 628.832031 721.199219 " fill-opacity="1" fill-rule="nonzero"/><path fill="#ffa000" d="M 566.789062 845.285156 L 566.789062 783.242188 L 504.746094 783.242188 L 504.746094 907.328125 L 566.789062 907.328125 Z M 566.789062 845.285156 " fill-opacity="1" fill-rule="nonzero"/><path fill="#ffa000" d="M 442.703125 907.328125 L 504.746094 907.328125 L 504.746094 969.371094 L 442.703125 969.371094 Z M 442.703125 907.328125 " fill-opacity="1" fill-rule="nonzero"/><path fill="#ffa000" d="M 690.875 1217.585938 L 628.832031 1217.585938 L 628.832031 1341.671875 L 690.875 1341.671875 Z M 690.875 1217.585938 " fill-opacity="1" fill-rule="nonzero"/><path fill="#ffa000" d="M 318.617188 1341.671875 L 318.617188 1279.628906 L 256.574219 1279.628906 L 256.574219 1465.757812 L 318.617188 1465.757812 Z M 318.617188 1341.671875 " fill-opacity="1" fill-rule="nonzero"/><path fill="#ffa000" d="M 690.875 1341.671875 L 752.917969 1341.671875 L 752.917969 1403.714844 L 690.875 1403.714844 Z M 690.875 1341.671875 " fill-opacity="1" fill-rule="nonzero"/><path fill="#ffa000" d="M 1497.476562 1341.671875 L 1559.519531 1341.671875 L 1559.519531 1403.714844 L 1497.476562 1403.714844 Z M 1497.476562 1341.671875 " fill-opacity="1" fill-rule="nonzero"/><path fill="#ffa000" d="M 752.960938 1403.714844 L 815.003906 1403.714844 L 815.003906 1465.757812 L 752.960938 1465.757812 Z M 752.960938 1403.714844 " fill-opacity="1" fill-rule="nonzero"/><path fill="#ffa000" d="M 1435.433594 1403.714844 L 1497.476562 1403.714844 L 1497.476562 1465.757812 L 1435.433594 1465.757812 Z M 1435.433594 1403.714844 " fill-opacity="1" fill-rule="nonzero"/><path fill="#ffa000" d="M 815.003906 1465.757812 L 877.046875 1465.757812 L 877.046875 1527.800781 L 815.003906 1527.800781 Z M 815.003906 1465.757812 " fill-opacity="1" fill-rule="nonzero"/><path fill="#ffa000" d="M 1373.390625 1465.757812 L 1435.433594 1465.757812 L 1435.433594 1527.800781 L 1373.390625 1527.800781 Z M 1373.390625 1465.757812 " fill-opacity="1" fill-rule="nonzero"/><path fill="#ffa000" d="M 442.703125 1527.800781 L 380.660156 1527.800781 L 380.660156 1465.757812 L 318.617188 1465.757812 L 318.617188 1589.84375 L 380.660156 1589.84375 L 380.660156 1651.886719 L 442.703125 1651.886719 Z M 442.703125 1527.800781 " fill-opacity="1" fill-rule="nonzero"/><path fill="#ffa000" d="M 939.089844 1527.800781 L 877.046875 1527.800781 L 877.046875 1589.84375 L 1001.132812 1589.84375 L 1001.132812 1527.800781 Z M 939.089844 1527.800781 " fill-opacity="1" fill-rule="nonzero"/><path fill="#ffa000" d="M 1373.390625 1589.84375 L 1373.390625 1527.800781 L 1249.304688 1527.800781 L 1249.304688 1589.84375 Z M 1373.390625 1589.84375 " fill-opacity="1" fill-rule="nonzero"/><path fill="#ffa000" d="M 1063.175781 1651.886719 L 1249.304688 1651.886719 L 1249.304688 1589.84375 L 1001.132812 1589.84375 L 1001.132812 1651.886719 Z M 1063.175781 1651.886719 " fill-opacity="1" fill-rule="nonzero"/><path fill="#ffa000" d="M 442.703125 1651.886719 L 504.746094 1651.886719 L 504.746094 1713.929688 L 442.703125 1713.929688 Z M 442.703125 1651.886719 " fill-opacity="1" fill-rule="nonzero"/><path fill="#ffa000" d="M 504.746094 1713.929688 L 566.789062 1713.929688 L 566.789062 1775.972656 L 504.746094 1775.972656 Z M 504.746094 1713.929688 " fill-opacity="1" fill-rule="nonzero"/><path fill="#ffa000" d="M 1559.566406 1775.972656 L 1559.566406 1838.015625 L 1497.476562 1838.015625 L 1497.476562 1900.101562 L 1621.609375 1900.101562 L 1621.609375 1838.015625 L 1683.652344 1838.015625 L 1683.652344 1775.972656 Z M 1559.566406 1775.972656 " fill-opacity="1" fill-rule="nonzero"/><path fill="#ffa000" d="M 690.875 1838.015625 L 690.875 1775.972656 L 566.789062 1775.972656 L 566.789062 1838.015625 L 628.832031 1838.015625 L 628.832031 1900.101562 L 752.960938 1900.101562 L 752.960938 1838.015625 Z M 690.875 1838.015625 " fill-opacity="1" fill-rule="nonzero"/><g clip-path="url(#b388670f3e)"><path fill="#ffa000" d="M 1373.390625 1900.101562 L 1311.347656 1900.101562 L 1311.347656 1962.144531 L 939.089844 1962.144531 L 939.089844 1900.101562 L 752.960938 1900.101562 L 752.960938 1962.144531 L 877.046875 1962.144531 L 877.046875 2024.1875 L 1373.390625 2024.1875 L 1373.390625 1962.144531 L 1497.476562 1962.144531 L 1497.476562 1900.101562 Z M 1373.390625 1900.101562 " fill-opacity="1" fill-rule="nonzero"/></g></svg>