<svg xmlns="http://www.w3.org/2000/svg" xmlns:xlink="http://www.w3.org/1999/xlink" width="3000" zoomAndPan="magnify" viewBox="0 0 2250 2250.000011" height="3000" preserveAspectRatio="xMidYMid meet" version="1.0"><defs><g/><clipPath id="acdc84858b"><path d="M 0.5 0 L 2249.5 0 L 2249.5 2249 L 0.5 2249 Z M 0.5 0 " clip-rule="nonzero"/></clipPath></defs><g clip-path="url(#acdc84858b)"><path fill="#ffffff" d="M 0.5 0 L 2249.5 0 L 2249.5 2249 L 0.5 2249 Z M 0.5 0 " fill-opacity="1" fill-rule="nonzero"/><path fill="#ffffff" d="M 0.5 0 L 2249.5 0 L 2249.5 2249 L 0.5 2249 Z M 0.5 0 " fill-opacity="1" fill-rule="nonzero"/></g><g fill="#d81212" fill-opacity="1"><g transform="translate(302.117811, 1290.117363)"><g><path d="M 209.640625 -8.796875 C 193.910156 0.148438 172.46875 4.625 145.3125 4.625 C 109.832031 4.625 82.523438 -3.9375 63.390625 -21.0625 C 44.265625 -38.1875 34.703125 -63.867188 34.703125 -98.109375 L 34.703125 -162.90625 L 0 -162.90625 L 0 -239.265625 L 34.703125 -239.265625 L 34.703125 -310.078125 L 139.296875 -310.078125 L 139.296875 -239.265625 L 191.140625 -239.265625 L 191.140625 -162.90625 L 139.296875 -162.90625 L 139.296875 -99.03125 C 139.296875 -91.320312 141.300781 -85.304688 145.3125 -80.984375 C 149.320312 -76.671875 154.566406 -74.515625 161.046875 -74.515625 C 169.992188 -74.515625 177.863281 -76.828125 184.65625 -81.453125 Z M 209.640625 -8.796875 "/></g></g></g><g fill="#ffde59" fill-opacity="1"><g transform="translate(711.705285, 1290.117363)"><g><path d="M 299.890625 -253.15625 L 299.890625 0 L 200.390625 0 L 200.390625 -24.0625 C 191.128906 -14.5 180.328125 -7.328125 167.984375 -2.546875 C 155.648438 2.234375 142.539062 4.625 128.65625 4.625 C 96.570312 4.625 70.8125 -5.164062 51.375 -24.75 C 31.9375 -44.34375 22.21875 -73.890625 22.21875 -113.390625 L 22.21875 -253.15625 L 126.8125 -253.15625 L 126.8125 -131.4375 C 126.8125 -114.15625 129.585938 -101.8125 135.140625 -94.40625 C 140.691406 -87 148.867188 -83.296875 159.671875 -83.296875 C 169.847656 -83.296875 178.328125 -87.382812 185.109375 -95.5625 C 191.898438 -103.738281 195.296875 -116.625 195.296875 -134.21875 L 195.296875 -253.15625 Z M 299.890625 -253.15625 "/></g></g></g><g fill="#0045aa" fill-opacity="1"><g transform="translate(1231.435212, 1290.117363)"><g><path d="M 209.640625 -8.796875 C 193.910156 0.148438 172.46875 4.625 145.3125 4.625 C 109.832031 4.625 82.523438 -3.9375 63.390625 -21.0625 C 44.265625 -38.1875 34.703125 -63.867188 34.703125 -98.109375 L 34.703125 -162.90625 L 0 -162.90625 L 0 -239.265625 L 34.703125 -239.265625 L 34.703125 -310.078125 L 139.296875 -310.078125 L 139.296875 -239.265625 L 191.140625 -239.265625 L 191.140625 -162.90625 L 139.296875 -162.90625 L 139.296875 -99.03125 C 139.296875 -91.320312 141.300781 -85.304688 145.3125 -80.984375 C 149.320312 -76.671875 154.566406 -74.515625 161.046875 -74.515625 C 169.992188 -74.515625 177.863281 -76.828125 184.65625 -81.453125 Z M 209.640625 -8.796875 "/></g></g></g><g fill="#000000" fill-opacity="1"><g transform="translate(1634.076558, 1290.117363)"><g><path d="M 156.890625 4.625 C 128.816406 4.625 103.59375 -1.003906 81.21875 -12.265625 C 58.851562 -23.523438 41.34375 -39.101562 28.6875 -59 C 16.039062 -78.90625 9.71875 -101.507812 9.71875 -126.8125 C 9.71875 -152.101562 16.039062 -174.695312 28.6875 -194.59375 C 41.34375 -214.5 58.851562 -230.003906 81.21875 -241.109375 C 103.59375 -252.222656 128.816406 -257.78125 156.890625 -257.78125 C 185.273438 -257.78125 210.648438 -252.222656 233.015625 -241.109375 C 255.390625 -230.003906 272.820312 -214.5 285.3125 -194.59375 C 297.8125 -174.695312 304.0625 -152.101562 304.0625 -126.8125 C 304.0625 -101.507812 297.8125 -78.90625 285.3125 -59 C 272.820312 -39.101562 255.390625 -23.523438 233.015625 -12.265625 C 210.648438 -1.003906 185.273438 4.625 156.890625 4.625 Z M 156.890625 -76.828125 C 168.921875 -76.828125 178.789062 -81.222656 186.5 -90.015625 C 194.21875 -98.804688 198.078125 -111.070312 198.078125 -126.8125 C 198.078125 -142.539062 194.21875 -154.722656 186.5 -163.359375 C 178.789062 -172.003906 168.921875 -176.328125 156.890625 -176.328125 C 144.859375 -176.328125 134.984375 -172.003906 127.265625 -163.359375 C 119.554688 -154.722656 115.703125 -142.539062 115.703125 -126.8125 C 115.703125 -111.070312 119.554688 -98.804688 127.265625 -90.015625 C 134.984375 -81.222656 144.859375 -76.828125 156.890625 -76.828125 Z M 156.890625 -76.828125 "/></g></g></g></svg>