<svg xmlns="http://www.w3.org/2000/svg" xmlns:xlink="http://www.w3.org/1999/xlink" width="3000" zoomAndPan="magnify" viewBox="0 0 2250 2250.000011" height="3000" preserveAspectRatio="xMidYMid meet" version="1.0"><defs><clipPath id="134766907d"><path d="M 1 468.074219 L 2249.5 468.074219 L 2249.5 1780.738281 L 1 1780.738281 Z M 1 468.074219 " clip-rule="nonzero"/></clipPath></defs><g clip-path="url(#134766907d)"><path fill="#ffffff" d="M 2249.003906 718.375 L 2249.003906 1530.148438 C 2249.003906 1668.382812 2136.746094 1780.640625 1998.511719 1780.640625 L 251.539062 1780.640625 C 113.300781 1780.640625 1.046875 1668.382812 1.046875 1530.148438 L 1.046875 718.375 C 1.046875 580.136719 113.300781 467.882812 251.539062 467.882812 L 1998.511719 467.882812 C 2136.746094 467.882812 2249.003906 580.136719 2249.003906 718.375 Z M 2249.003906 718.375 " fill-opacity="1" fill-rule="nonzero"/></g><path fill="#f2c841" d="M 251.488281 559.097656 L 1998.460938 559.097656 C 2001.070312 559.097656 2003.675781 559.160156 2006.277344 559.289062 C 2008.882812 559.414062 2011.480469 559.609375 2014.074219 559.863281 C 2016.667969 560.117188 2019.253906 560.4375 2021.832031 560.820312 C 2024.410156 561.203125 2026.980469 561.648438 2029.535156 562.15625 C 2032.09375 562.664062 2034.632812 563.234375 2037.164062 563.871094 C 2039.691406 564.503906 2042.203125 565.199219 2044.699219 565.953125 C 2047.191406 566.710938 2049.667969 567.527344 2052.121094 568.40625 C 2054.574219 569.285156 2057.007812 570.222656 2059.414062 571.21875 C 2061.824219 572.21875 2064.207031 573.273438 2066.5625 574.386719 C 2068.917969 575.503906 2071.246094 576.675781 2073.546875 577.902344 C 2075.84375 579.132812 2078.109375 580.417969 2080.347656 581.757812 C 2082.582031 583.097656 2084.785156 584.492188 2086.953125 585.9375 C 2089.121094 587.386719 2091.25 588.886719 2093.34375 590.441406 C 2095.4375 591.992188 2097.492188 593.597656 2099.507812 595.25 C 2101.523438 596.902344 2103.496094 598.605469 2105.425781 600.355469 C 2107.359375 602.105469 2109.246094 603.902344 2111.089844 605.746094 C 2112.929688 607.589844 2114.730469 609.476562 2116.480469 611.410156 C 2118.230469 613.339844 2119.929688 615.3125 2121.585938 617.328125 C 2123.238281 619.34375 2124.84375 621.398438 2126.394531 623.492188 C 2127.949219 625.585938 2129.449219 627.714844 2130.894531 629.882812 C 2132.34375 632.050781 2133.738281 634.253906 2135.078125 636.488281 C 2136.417969 638.722656 2137.703125 640.992188 2138.933594 643.289062 C 2140.160156 645.589844 2141.332031 647.917969 2142.445312 650.273438 C 2143.5625 652.628906 2144.617188 655.011719 2145.617188 657.421875 C 2146.613281 659.828125 2147.550781 662.261719 2148.429688 664.714844 C 2149.308594 667.167969 2150.125 669.644531 2150.882812 672.136719 C 2151.636719 674.632812 2152.332031 677.144531 2152.964844 679.671875 C 2153.601562 682.199219 2154.171875 684.742188 2154.679688 687.300781 C 2155.1875 689.855469 2155.632812 692.425781 2156.015625 695.003906 C 2156.398438 697.582031 2156.71875 700.167969 2156.972656 702.761719 C 2157.226562 705.355469 2157.421875 707.953125 2157.546875 710.558594 C 2157.675781 713.160156 2157.738281 715.765625 2157.738281 718.375 L 2157.738281 1530.195312 C 2157.738281 1532.800781 2157.675781 1535.40625 2157.546875 1538.011719 C 2157.421875 1540.613281 2157.226562 1543.214844 2156.972656 1545.808594 C 2156.71875 1548.402344 2156.398438 1550.988281 2156.015625 1553.566406 C 2155.632812 1556.144531 2155.1875 1558.710938 2154.679688 1561.269531 C 2154.171875 1563.824219 2153.601562 1566.367188 2152.964844 1568.898438 C 2152.332031 1571.425781 2151.636719 1573.9375 2150.882812 1576.429688 C 2150.125 1578.925781 2149.308594 1581.398438 2148.429688 1583.855469 C 2147.550781 1586.308594 2146.613281 1588.738281 2145.617188 1591.148438 C 2144.617188 1593.554688 2143.5625 1595.9375 2142.445312 1598.296875 C 2141.332031 1600.652344 2140.160156 1602.980469 2138.933594 1605.277344 C 2137.703125 1607.578125 2136.417969 1609.84375 2135.078125 1612.082031 C 2133.738281 1614.316406 2132.34375 1616.519531 2130.894531 1618.683594 C 2129.449219 1620.851562 2127.949219 1622.984375 2126.394531 1625.078125 C 2124.84375 1627.171875 2123.238281 1629.226562 2121.585938 1631.242188 C 2119.933594 1633.253906 2118.230469 1635.226562 2116.480469 1637.160156 C 2114.730469 1639.089844 2112.933594 1640.980469 2111.089844 1642.820312 C 2109.246094 1644.664062 2107.359375 1646.460938 2105.425781 1648.210938 C 2103.496094 1649.964844 2101.523438 1651.664062 2099.507812 1653.320312 C 2097.492188 1654.972656 2095.4375 1656.574219 2093.34375 1658.128906 C 2091.25 1659.679688 2089.121094 1661.183594 2086.953125 1662.628906 C 2084.785156 1664.078125 2082.582031 1665.472656 2080.347656 1666.8125 C 2078.109375 1668.152344 2075.84375 1669.4375 2073.546875 1670.664062 C 2071.246094 1671.894531 2068.917969 1673.066406 2066.5625 1674.179688 C 2064.207031 1675.296875 2061.824219 1676.351562 2059.414062 1677.347656 C 2057.007812 1678.347656 2054.574219 1679.285156 2052.121094 1680.164062 C 2049.667969 1681.039062 2047.191406 1681.859375 2044.699219 1682.613281 C 2042.203125 1683.371094 2039.691406 1684.066406 2037.164062 1684.699219 C 2034.632812 1685.332031 2032.09375 1685.902344 2029.535156 1686.414062 C 2026.980469 1686.921875 2024.410156 1687.367188 2021.832031 1687.75 C 2019.253906 1688.132812 2016.667969 1688.449219 2014.074219 1688.707031 C 2011.480469 1688.960938 2008.882812 1689.152344 2006.277344 1689.28125 C 2003.675781 1689.410156 2001.070312 1689.472656 1998.460938 1689.472656 L 251.488281 1689.472656 C 248.882812 1689.472656 246.277344 1689.410156 243.675781 1689.28125 C 241.070312 1689.152344 238.472656 1688.960938 235.878906 1688.707031 C 233.285156 1688.449219 230.695312 1688.132812 228.117188 1687.75 C 225.539062 1687.367188 222.972656 1686.921875 220.414062 1686.414062 C 217.859375 1685.902344 215.316406 1685.332031 212.789062 1684.699219 C 210.257812 1684.066406 207.75 1683.371094 205.253906 1682.613281 C 202.757812 1681.859375 200.285156 1681.039062 197.832031 1680.164062 C 195.375 1679.285156 192.945312 1678.347656 190.535156 1677.347656 C 188.128906 1676.351562 185.746094 1675.296875 183.390625 1674.179688 C 181.03125 1673.066406 178.707031 1671.894531 176.40625 1670.664062 C 174.109375 1669.4375 171.839844 1668.152344 169.605469 1666.8125 C 167.367188 1665.472656 165.167969 1664.078125 163 1662.628906 C 160.832031 1661.183594 158.703125 1659.679688 156.609375 1658.128906 C 154.515625 1656.574219 152.460938 1654.972656 150.445312 1653.320312 C 148.429688 1651.664062 146.457031 1649.964844 144.523438 1648.210938 C 142.59375 1646.460938 140.707031 1644.664062 138.863281 1642.820312 C 137.019531 1640.976562 135.222656 1639.089844 133.472656 1637.160156 C 131.722656 1635.226562 130.019531 1633.253906 128.367188 1631.242188 C 126.710938 1629.226562 125.109375 1627.171875 123.554688 1625.078125 C 122.003906 1622.984375 120.503906 1620.851562 119.054688 1618.683594 C 117.605469 1616.519531 116.210938 1614.316406 114.871094 1612.082031 C 113.53125 1609.84375 112.246094 1607.578125 111.019531 1605.277344 C 109.789062 1602.980469 108.617188 1600.652344 107.503906 1598.296875 C 106.390625 1595.9375 105.332031 1593.554688 104.335938 1591.148438 C 103.339844 1588.738281 102.402344 1586.308594 101.523438 1583.855469 C 100.644531 1581.398438 99.828125 1578.925781 99.070312 1576.429688 C 98.3125 1573.9375 97.617188 1571.425781 96.984375 1568.898438 C 96.351562 1566.367188 95.78125 1563.824219 95.273438 1561.269531 C 94.765625 1558.710938 94.316406 1556.144531 93.9375 1553.566406 C 93.554688 1550.988281 93.234375 1548.402344 92.980469 1545.808594 C 92.722656 1543.214844 92.53125 1540.613281 92.402344 1538.011719 C 92.277344 1535.40625 92.210938 1532.800781 92.210938 1530.195312 L 92.210938 718.375 C 92.210938 715.765625 92.277344 713.160156 92.402344 710.558594 C 92.53125 707.953125 92.722656 705.355469 92.980469 702.761719 C 93.234375 700.167969 93.554688 697.582031 93.9375 695.003906 C 94.316406 692.425781 94.765625 689.855469 95.273438 687.300781 C 95.78125 684.742188 96.351562 682.199219 96.984375 679.671875 C 97.617188 677.144531 98.3125 674.632812 99.070312 672.136719 C 99.828125 669.644531 100.644531 667.167969 101.523438 664.714844 C 102.402344 662.261719 103.339844 659.828125 104.335938 657.421875 C 105.332031 655.011719 106.390625 652.628906 107.503906 650.273438 C 108.617188 647.917969 109.789062 645.589844 111.019531 643.289062 C 112.246094 640.992188 113.53125 638.722656 114.871094 636.488281 C 116.210938 634.253906 117.605469 632.050781 119.054688 629.882812 C 120.503906 627.714844 122.003906 625.585938 123.554688 623.492188 C 125.109375 621.398438 126.710938 619.34375 128.367188 617.328125 C 130.019531 615.3125 131.722656 613.339844 133.472656 611.410156 C 135.222656 609.476562 137.019531 607.589844 138.863281 605.746094 C 140.707031 603.902344 142.59375 602.105469 144.523438 600.355469 C 146.457031 598.605469 148.429688 596.902344 150.445312 595.25 C 152.460938 593.597656 154.515625 591.992188 156.609375 590.441406 C 158.703125 588.886719 160.832031 587.386719 163 585.9375 C 165.167969 584.492188 167.367188 583.097656 169.605469 581.757812 C 171.839844 580.417969 174.109375 579.132812 176.40625 577.902344 C 178.707031 576.675781 181.03125 575.503906 183.390625 574.386719 C 185.746094 573.273438 188.128906 572.21875 190.535156 571.21875 C 192.945312 570.222656 195.375 569.285156 197.832031 568.40625 C 200.285156 567.527344 202.757812 566.710938 205.253906 565.953125 C 207.75 565.199219 210.257812 564.503906 212.789062 563.871094 C 215.316406 563.234375 217.859375 562.664062 220.414062 562.15625 C 222.972656 561.648438 225.539062 561.203125 228.117188 560.820312 C 230.695312 560.4375 233.285156 560.117188 235.878906 559.863281 C 238.472656 559.609375 241.070312 559.414062 243.675781 559.289062 C 246.277344 559.160156 248.882812 559.097656 251.488281 559.097656 Z M 251.488281 559.097656 " fill-opacity="1" fill-rule="nonzero"/><path fill="#ffffff" d="M 515.640625 790.175781 L 561.035156 790.175781 C 566.066406 790.175781 570.332031 793.816406 571.097656 798.804688 L 596.261719 962.15625 C 598.085938 973.851562 615.054688 973.5625 616.394531 961.773438 L 635.089844 799.1875 C 635.664062 794.058594 640.023438 790.175781 645.203125 790.175781 L 693.085938 790.175781 C 699.363281 790.175781 704.109375 795.785156 703.105469 801.964844 L 653.207031 1109.355469 C 652.390625 1114.289062 648.171875 1117.886719 643.1875 1117.886719 L 579.917969 1117.886719 C 574.933594 1117.886719 570.714844 1114.289062 569.902344 1109.355469 L 548.378906 978.019531 C 546.511719 966.660156 530.164062 966.660156 528.34375 978.019531 L 506.824219 1109.355469 C 506.007812 1114.289062 501.789062 1117.886719 496.804688 1117.886719 L 433.535156 1117.886719 C 428.550781 1117.886719 424.285156 1114.289062 423.515625 1109.355469 L 373.621094 801.964844 C 372.613281 795.785156 377.40625 790.175781 383.636719 790.175781 L 431.523438 790.175781 C 436.699219 790.175781 441.011719 794.058594 441.636719 799.1875 L 460.328125 961.773438 C 461.671875 973.5625 478.6875 973.851562 480.460938 962.15625 L 505.625 798.804688 C 506.390625 793.867188 510.65625 790.175781 515.691406 790.175781 Z M 515.640625 790.175781 " fill-opacity="1" fill-rule="nonzero"/><path fill="#ffffff" d="M 936.964844 851.960938 L 936.964844 1056.101562 C 936.964844 1100.679688 916.015625 1122.964844 874.171875 1122.964844 L 806.828125 1122.964844 C 764.9375 1122.964844 744.039062 1100.679688 744.039062 1056.101562 L 744.039062 851.960938 C 744.039062 807.382812 764.984375 785.09375 806.828125 785.09375 L 874.171875 785.09375 C 916.066406 785.09375 936.964844 807.382812 936.964844 851.960938 Z M 866.070312 1064.203125 L 866.070312 843.378906 C 866.070312 840.695312 865.113281 838.300781 863.292969 836.285156 C 861.421875 834.273438 859.167969 833.265625 856.4375 833.265625 L 824.515625 833.265625 C 821.832031 833.265625 819.53125 834.273438 817.660156 836.285156 C 815.792969 838.300781 814.878906 840.695312 814.878906 843.378906 L 814.878906 1064.203125 C 814.878906 1066.886719 815.792969 1069.28125 817.660156 1071.296875 C 819.53125 1073.308594 821.78125 1074.316406 824.515625 1074.316406 L 856.4375 1074.316406 C 859.121094 1074.316406 861.421875 1073.308594 863.292969 1071.296875 C 865.160156 1069.28125 866.070312 1066.933594 866.070312 1064.203125 Z M 866.070312 1064.203125 " fill-opacity="1" fill-rule="nonzero"/><path fill="#ffffff" d="M 1060.050781 993.839844 L 1060.050781 1107.722656 C 1060.050781 1113.332031 1055.5 1117.886719 1049.890625 1117.886719 L 999.324219 1117.886719 C 993.714844 1117.886719 989.160156 1113.332031 989.160156 1107.722656 L 989.160156 800.335938 C 989.160156 794.730469 993.714844 790.175781 999.324219 790.175781 L 1115.269531 790.175781 C 1157.164062 790.175781 1178.058594 812.464844 1178.058594 857.039062 L 1178.058594 895.050781 C 1178.058594 915.039062 1172.789062 929.707031 1162.242188 938.957031 C 1157.738281 942.933594 1157.257812 949.980469 1161.765625 953.957031 C 1170.296875 961.484375 1174.5625 972.890625 1174.5625 988.277344 L 1174.5625 1107.773438 C 1174.5625 1113.378906 1170.007812 1117.933594 1164.398438 1117.933594 L 1113.832031 1117.933594 C 1108.222656 1117.933594 1103.671875 1113.378906 1103.671875 1107.773438 L 1103.671875 993.839844 C 1103.671875 987.078125 1100.460938 983.722656 1094.035156 983.722656 L 1070.261719 983.722656 C 1064.652344 983.722656 1060.101562 988.277344 1060.101562 993.886719 Z M 1060.050781 848.460938 L 1060.050781 923.855469 C 1060.050781 929.464844 1064.605469 934.019531 1070.214844 934.019531 L 1097.535156 934.019531 C 1100.21875 934.019531 1102.519531 933.011719 1104.390625 931 C 1106.257812 928.984375 1107.167969 926.589844 1107.167969 923.90625 L 1107.167969 848.414062 C 1107.167969 845.726562 1106.210938 843.332031 1104.390625 841.320312 C 1102.519531 839.304688 1100.265625 838.300781 1097.535156 838.300781 L 1070.214844 838.300781 C 1064.605469 838.300781 1060.050781 842.851562 1060.050781 848.460938 Z M 1060.050781 848.460938 " fill-opacity="1" fill-rule="nonzero"/><path fill="#ffffff" d="M 1422.703125 803.882812 L 1373.382812 937.085938 C 1372.519531 939.386719 1372.519531 941.878906 1373.382812 944.179688 L 1433.25 1104.175781 C 1435.742188 1110.839844 1430.804688 1117.886719 1423.710938 1117.886719 L 1373 1117.886719 C 1368.78125 1117.886719 1364.996094 1115.25 1363.460938 1111.269531 L 1319.796875 994.796875 C 1318.308594 990.816406 1314.523438 988.183594 1310.257812 988.183594 L 1304.648438 988.183594 C 1299.039062 988.183594 1294.488281 992.734375 1294.488281 998.34375 L 1294.488281 1107.675781 C 1294.488281 1113.285156 1289.933594 1117.835938 1284.324219 1117.835938 L 1233.757812 1117.835938 C 1228.148438 1117.835938 1223.597656 1113.285156 1223.597656 1107.675781 L 1223.597656 800.289062 C 1223.597656 794.679688 1228.148438 790.128906 1233.757812 790.128906 L 1284.324219 790.128906 C 1289.933594 790.128906 1294.488281 794.679688 1294.488281 800.289062 L 1294.488281 917.242188 C 1294.488281 922.851562 1299.039062 927.40625 1304.648438 927.40625 C 1308.914062 927.40625 1312.699219 924.769531 1314.1875 920.789062 L 1360.394531 796.742188 C 1361.878906 792.765625 1365.664062 790.128906 1369.933594 790.128906 L 1413.117188 790.128906 C 1420.210938 790.128906 1425.101562 797.171875 1422.65625 803.835938 Z M 1422.703125 803.882812 " fill-opacity="1" fill-rule="nonzero"/><path fill="#ffffff" d="M 1635.953125 800.335938 L 1635.953125 1107.722656 C 1635.953125 1113.332031 1631.398438 1117.886719 1625.792969 1117.886719 L 1575.222656 1117.886719 C 1569.617188 1117.886719 1565.0625 1113.332031 1565.0625 1107.722656 L 1565.0625 800.335938 C 1565.0625 794.730469 1569.617188 790.175781 1575.222656 790.175781 L 1625.792969 790.175781 C 1631.398438 790.175781 1635.953125 794.730469 1635.953125 800.335938 Z M 1635.953125 800.335938 " fill-opacity="1" fill-rule="nonzero"/><path fill="#ffffff" d="M 1866.363281 1117.886719 L 1815.792969 1117.886719 C 1810.1875 1117.886719 1805.632812 1113.332031 1805.632812 1107.722656 L 1805.632812 845.871094 C 1805.632812 843.1875 1804.675781 840.792969 1802.851562 838.777344 C 1800.984375 836.765625 1798.730469 835.757812 1796 835.757812 L 1768.628906 835.757812 C 1765.898438 835.757812 1763.644531 836.765625 1761.773438 838.777344 C 1759.90625 840.792969 1758.996094 843.1875 1758.996094 845.871094 L 1758.996094 1107.722656 C 1758.996094 1113.332031 1754.441406 1117.886719 1748.832031 1117.886719 L 1698.265625 1117.886719 C 1692.65625 1117.886719 1688.105469 1113.332031 1688.105469 1107.722656 L 1688.105469 851.960938 C 1688.105469 807.382812 1709.050781 785.09375 1750.894531 785.09375 L 1813.6875 785.09375 C 1855.578125 785.09375 1876.476562 807.382812 1876.476562 851.960938 L 1876.476562 1107.722656 C 1876.476562 1113.332031 1871.921875 1117.886719 1866.316406 1117.886719 Z M 1866.363281 1117.886719 " fill-opacity="1" fill-rule="nonzero"/><path fill="#ffffff" d="M 490.910156 1183.742188 C 526.089844 1183.742188 543.683594 1202.484375 543.683594 1239.921875 L 543.683594 1294.851562 C 543.683594 1332.332031 526.089844 1351.027344 490.910156 1351.027344 L 452.945312 1351.027344 C 447.339844 1351.027344 442.785156 1355.578125 442.785156 1361.1875 L 442.785156 1449 C 442.785156 1454.605469 438.230469 1459.160156 432.625 1459.160156 L 393.367188 1459.160156 C 387.761719 1459.160156 383.207031 1454.605469 383.207031 1449 L 383.207031 1193.90625 C 383.207031 1188.296875 387.757812 1183.742188 393.367188 1183.742188 Z M 484.101562 1301.65625 L 484.101562 1233.113281 C 484.101562 1230.859375 483.335938 1228.847656 481.753906 1227.171875 C 480.171875 1225.445312 478.253906 1224.628906 476.003906 1224.628906 L 452.945312 1224.628906 C 447.339844 1224.628906 442.785156 1229.183594 442.785156 1234.792969 L 442.785156 1300.027344 C 442.785156 1305.636719 447.339844 1310.1875 452.945312 1310.1875 L 476.003906 1310.1875 C 478.253906 1310.1875 480.171875 1309.324219 481.753906 1307.648438 C 483.335938 1305.921875 484.101562 1303.957031 484.101562 1301.703125 Z M 484.101562 1301.65625 " fill-opacity="1" fill-rule="nonzero"/><path fill="#ffffff" d="M 633.074219 1356.492188 L 633.074219 1448.953125 C 633.074219 1454.558594 628.523438 1459.113281 622.914062 1459.113281 L 583.65625 1459.113281 C 578.050781 1459.113281 573.496094 1454.558594 573.496094 1448.953125 L 573.496094 1193.859375 C 573.496094 1188.25 578.050781 1183.695312 583.65625 1183.695312 L 679.472656 1183.695312 C 714.65625 1183.695312 732.246094 1202.4375 732.246094 1239.871094 L 732.246094 1271.796875 C 732.246094 1287.996094 728.125 1300.027344 719.878906 1307.839844 C 715.613281 1311.867188 715.566406 1318.289062 719.734375 1322.410156 C 726.109375 1328.738281 729.273438 1337.941406 729.273438 1350.117188 L 729.273438 1448.953125 C 729.273438 1454.558594 724.722656 1459.113281 719.113281 1459.113281 L 679.855469 1459.113281 C 674.25 1459.113281 669.695312 1454.558594 669.695312 1448.953125 L 669.695312 1354.8125 C 669.695312 1349.15625 667.011719 1346.28125 661.59375 1346.28125 L 643.238281 1346.28125 C 637.628906 1346.28125 633.074219 1350.835938 633.074219 1356.441406 Z M 633.074219 1234.3125 L 633.074219 1294.464844 C 633.074219 1300.074219 637.628906 1304.628906 643.238281 1304.628906 L 664.566406 1304.628906 C 666.820312 1304.628906 668.738281 1303.765625 670.316406 1302.089844 C 671.851562 1300.363281 672.667969 1298.398438 672.667969 1296.144531 L 672.667969 1232.730469 C 672.667969 1230.476562 671.898438 1228.464844 670.316406 1226.785156 C 668.738281 1225.0625 666.820312 1224.246094 664.566406 1224.246094 L 643.238281 1224.246094 C 637.628906 1224.246094 633.074219 1228.800781 633.074219 1234.40625 Z M 633.074219 1234.3125 " fill-opacity="1" fill-rule="nonzero"/><path fill="#ffffff" d="M 932.746094 1235.652344 L 932.746094 1407.203125 C 932.746094 1444.683594 915.152344 1463.378906 879.972656 1463.378906 L 823.363281 1463.378906 C 788.183594 1463.378906 770.589844 1444.636719 770.589844 1407.203125 L 770.589844 1235.652344 C 770.589844 1198.21875 788.183594 1179.476562 823.363281 1179.476562 L 879.972656 1179.476562 C 915.152344 1179.476562 932.746094 1198.21875 932.746094 1235.652344 Z M 873.164062 1414.007812 L 873.164062 1228.417969 C 873.164062 1226.164062 872.398438 1224.152344 870.816406 1222.472656 C 869.234375 1220.746094 867.316406 1219.933594 865.066406 1219.933594 L 838.222656 1219.933594 C 835.96875 1219.933594 834.054688 1220.796875 832.472656 1222.472656 C 830.890625 1224.199219 830.121094 1226.164062 830.121094 1228.417969 L 830.121094 1414.007812 C 830.121094 1416.261719 830.890625 1418.273438 832.472656 1419.953125 C 834.003906 1421.675781 835.921875 1422.492188 838.222656 1422.492188 L 865.066406 1422.492188 C 867.316406 1422.492188 869.234375 1421.628906 870.816406 1419.953125 C 872.351562 1418.226562 873.164062 1416.261719 873.164062 1414.007812 Z M 873.164062 1414.007812 " fill-opacity="1" fill-rule="nonzero"/><path fill="#ffffff" d="M 1057.082031 1339.570312 L 1057.082031 1316.035156 C 1057.082031 1310.429688 1061.632812 1305.875 1067.242188 1305.875 L 1125.671875 1305.875 C 1131.277344 1305.875 1135.832031 1310.429688 1135.832031 1316.035156 L 1135.832031 1407.203125 C 1135.832031 1444.683594 1118.242188 1463.378906 1083.058594 1463.378906 L 1029.421875 1463.378906 C 994.242188 1463.378906 976.652344 1444.636719 976.652344 1407.203125 L 976.652344 1235.652344 C 976.652344 1198.21875 994.242188 1179.476562 1029.421875 1179.476562 L 1083.058594 1179.476562 C 1118.242188 1179.476562 1135.832031 1198.21875 1135.832031 1235.652344 L 1135.832031 1251.472656 C 1135.832031 1257.078125 1131.277344 1261.632812 1125.671875 1261.632812 L 1089.386719 1261.632812 C 1083.777344 1261.632812 1079.226562 1257.078125 1079.226562 1251.472656 L 1079.226562 1228.417969 C 1079.226562 1226.164062 1078.457031 1224.152344 1076.875 1222.472656 C 1075.292969 1220.746094 1073.378906 1219.933594 1071.125 1219.933594 L 1044.28125 1219.933594 C 1042.03125 1219.933594 1040.113281 1220.796875 1038.53125 1222.472656 C 1036.949219 1224.199219 1036.183594 1226.164062 1036.183594 1228.417969 L 1036.183594 1414.007812 C 1036.183594 1416.261719 1036.949219 1418.273438 1038.53125 1419.953125 C 1040.066406 1421.675781 1041.980469 1422.492188 1044.28125 1422.492188 L 1071.125 1422.492188 C 1073.378906 1422.492188 1075.292969 1421.628906 1076.875 1419.953125 C 1078.410156 1418.226562 1079.226562 1416.261719 1079.226562 1414.007812 L 1079.226562 1359.894531 C 1079.226562 1354.285156 1074.671875 1349.730469 1069.0625 1349.730469 L 1067.242188 1349.730469 C 1061.632812 1349.730469 1057.082031 1345.179688 1057.082031 1339.570312 Z M 1057.082031 1339.570312 " fill-opacity="1" fill-rule="nonzero"/><path fill="#ffffff" d="M 1228.195312 1356.492188 L 1228.195312 1448.953125 C 1228.195312 1454.558594 1223.644531 1459.113281 1218.035156 1459.113281 L 1178.78125 1459.113281 C 1173.171875 1459.113281 1168.617188 1454.558594 1168.617188 1448.953125 L 1168.617188 1193.859375 C 1168.617188 1188.25 1173.171875 1183.695312 1178.78125 1183.695312 L 1274.59375 1183.695312 C 1309.777344 1183.695312 1327.367188 1202.4375 1327.367188 1239.871094 L 1327.367188 1271.796875 C 1327.367188 1287.996094 1323.246094 1300.027344 1315 1307.839844 C 1310.734375 1311.867188 1310.6875 1318.289062 1314.859375 1322.410156 C 1321.234375 1328.738281 1324.398438 1337.941406 1324.398438 1350.117188 L 1324.398438 1448.953125 C 1324.398438 1454.558594 1319.84375 1459.113281 1314.234375 1459.113281 L 1274.980469 1459.113281 C 1269.371094 1459.113281 1264.816406 1454.558594 1264.816406 1448.953125 L 1264.816406 1354.8125 C 1264.816406 1349.15625 1262.132812 1346.28125 1256.714844 1346.28125 L 1238.359375 1346.28125 C 1232.75 1346.28125 1228.199219 1350.835938 1228.199219 1356.441406 Z M 1228.195312 1234.3125 L 1228.195312 1294.464844 C 1228.195312 1300.074219 1232.75 1304.628906 1238.359375 1304.628906 L 1259.6875 1304.628906 C 1261.941406 1304.628906 1263.859375 1303.765625 1265.441406 1302.089844 C 1266.972656 1300.363281 1267.789062 1298.398438 1267.789062 1296.144531 L 1267.789062 1232.730469 C 1267.789062 1230.476562 1267.023438 1228.464844 1265.441406 1226.785156 C 1263.859375 1225.0625 1261.941406 1224.246094 1259.6875 1224.246094 L 1238.359375 1224.246094 C 1232.75 1224.246094 1228.195312 1228.800781 1228.195312 1234.40625 Z M 1228.195312 1234.3125 " fill-opacity="1" fill-rule="nonzero"/><path fill="#ffffff" d="M 1435.453125 1409.789062 L 1481.132812 1409.789062 C 1486.742188 1409.789062 1491.296875 1414.34375 1491.296875 1419.953125 L 1491.296875 1449 C 1491.296875 1454.605469 1486.742188 1459.160156 1481.132812 1459.160156 L 1375.875 1459.160156 C 1370.265625 1459.160156 1365.714844 1454.605469 1365.714844 1449 L 1365.714844 1193.90625 C 1365.714844 1188.296875 1370.265625 1183.742188 1375.875 1183.742188 L 1481.132812 1183.742188 C 1486.742188 1183.742188 1491.296875 1188.296875 1491.296875 1193.90625 L 1491.296875 1222.089844 C 1491.296875 1227.699219 1486.742188 1232.25 1481.132812 1232.25 L 1435.453125 1232.25 C 1429.847656 1232.25 1425.292969 1236.804688 1425.292969 1242.414062 L 1425.292969 1286.796875 C 1425.292969 1292.40625 1429.847656 1296.960938 1435.453125 1296.960938 L 1476.867188 1296.960938 C 1482.476562 1296.960938 1487.03125 1301.511719 1487.03125 1307.121094 L 1487.03125 1333.628906 C 1487.03125 1339.234375 1482.476562 1343.789062 1476.867188 1343.789062 L 1435.453125 1343.789062 C 1429.847656 1343.789062 1425.292969 1348.34375 1425.292969 1353.949219 L 1425.292969 1399.628906 C 1425.292969 1405.238281 1429.847656 1409.789062 1435.453125 1409.789062 Z M 1435.453125 1409.789062 " fill-opacity="1" fill-rule="nonzero"/><path fill="#ffffff" d="M 1668.402344 1256.121094 L 1632.117188 1256.121094 C 1626.511719 1256.121094 1621.957031 1251.566406 1621.957031 1245.960938 L 1621.957031 1234.40625 C 1621.957031 1232.15625 1621.191406 1230.140625 1619.609375 1228.464844 C 1618.027344 1226.738281 1616.109375 1225.925781 1613.855469 1225.925781 L 1590.464844 1225.925781 C 1588.164062 1225.925781 1586.296875 1226.785156 1584.714844 1228.464844 C 1583.132812 1230.191406 1582.367188 1232.15625 1582.367188 1234.40625 L 1582.367188 1283.347656 C 1582.367188 1285.648438 1583.132812 1287.613281 1584.714844 1289.289062 C 1586.296875 1291.015625 1588.164062 1291.832031 1590.464844 1291.832031 L 1628.765625 1291.832031 C 1663.945312 1292.40625 1681.535156 1311.148438 1681.535156 1348.007812 L 1681.535156 1407.203125 C 1681.535156 1444.683594 1663.945312 1463.378906 1628.765625 1463.378906 L 1578.53125 1463.378906 C 1543.347656 1463.378906 1525.757812 1444.636719 1525.757812 1407.203125 L 1525.757812 1388.84375 C 1525.757812 1383.238281 1530.3125 1378.683594 1535.917969 1378.683594 L 1572.203125 1378.683594 C 1577.8125 1378.683594 1582.367188 1383.238281 1582.367188 1388.84375 L 1582.367188 1409.3125 C 1582.367188 1411.5625 1583.132812 1413.578125 1584.714844 1415.253906 C 1586.296875 1416.980469 1588.164062 1417.796875 1590.464844 1417.796875 L 1616.875 1417.796875 C 1619.128906 1417.796875 1621.046875 1416.933594 1622.628906 1415.253906 C 1624.164062 1413.53125 1624.976562 1411.5625 1624.976562 1409.3125 L 1624.976562 1355.246094 C 1624.976562 1352.992188 1624.210938 1350.976562 1622.628906 1349.300781 C 1621.046875 1347.574219 1619.128906 1346.761719 1616.875 1346.761719 L 1578.578125 1346.761719 C 1543.398438 1346.761719 1525.804688 1328.019531 1525.804688 1290.585938 L 1525.804688 1235.65625 C 1525.804688 1198.21875 1543.398438 1179.476562 1578.578125 1179.476562 L 1625.839844 1179.476562 C 1661.023438 1179.476562 1678.613281 1198.21875 1678.613281 1235.65625 L 1678.613281 1245.910156 C 1678.613281 1251.519531 1674.058594 1256.074219 1668.453125 1256.074219 Z M 1668.402344 1256.121094 " fill-opacity="1" fill-rule="nonzero"/><path fill="#ffffff" d="M 1863.390625 1256.121094 L 1827.105469 1256.121094 C 1821.496094 1256.121094 1816.945312 1251.566406 1816.945312 1245.960938 L 1816.945312 1234.40625 C 1816.945312 1232.15625 1816.175781 1230.140625 1814.597656 1228.464844 C 1813.015625 1226.738281 1811.097656 1225.925781 1808.84375 1225.925781 L 1785.453125 1225.925781 C 1783.152344 1225.925781 1781.28125 1226.785156 1779.703125 1228.464844 C 1778.121094 1230.191406 1777.351562 1232.15625 1777.351562 1234.40625 L 1777.351562 1283.347656 C 1777.351562 1285.648438 1778.121094 1287.613281 1779.703125 1289.289062 C 1781.28125 1291.015625 1783.152344 1291.832031 1785.453125 1291.832031 L 1823.75 1291.832031 C 1858.933594 1292.40625 1876.523438 1311.148438 1876.523438 1348.007812 L 1876.523438 1407.203125 C 1876.523438 1444.683594 1858.933594 1463.378906 1823.75 1463.378906 L 1773.519531 1463.378906 C 1738.335938 1463.378906 1720.746094 1444.636719 1720.746094 1407.203125 L 1720.746094 1388.84375 C 1720.746094 1383.238281 1725.296875 1378.683594 1730.90625 1378.683594 L 1767.191406 1378.683594 C 1772.800781 1378.683594 1777.351562 1383.238281 1777.351562 1388.84375 L 1777.351562 1409.3125 C 1777.351562 1411.5625 1778.121094 1413.578125 1779.699219 1415.253906 C 1781.28125 1416.980469 1783.152344 1417.796875 1785.453125 1417.796875 L 1811.863281 1417.796875 C 1814.117188 1417.796875 1816.035156 1416.933594 1817.617188 1415.253906 C 1819.148438 1413.53125 1819.964844 1411.5625 1819.964844 1409.3125 L 1819.964844 1355.246094 C 1819.964844 1352.992188 1819.195312 1350.976562 1817.617188 1349.300781 C 1816.035156 1347.574219 1814.117188 1346.761719 1811.863281 1346.761719 L 1773.566406 1346.761719 C 1738.382812 1346.761719 1720.792969 1328.019531 1720.792969 1290.585938 L 1720.792969 1235.65625 C 1720.792969 1198.21875 1738.382812 1179.476562 1773.566406 1179.476562 L 1820.828125 1179.476562 C 1856.007812 1179.476562 1873.601562 1198.21875 1873.601562 1235.65625 L 1873.601562 1245.910156 C 1873.601562 1251.519531 1869.046875 1256.074219 1863.4375 1256.074219 Z M 1863.390625 1256.121094 " fill-opacity="1" fill-rule="nonzero"/><path fill="#ffffff" d="M 2066 702.507812 C 2066 704.40625 2065.90625 706.300781 2065.71875 708.191406 C 2065.53125 710.082031 2065.253906 711.960938 2064.882812 713.824219 C 2064.511719 715.6875 2064.050781 717.527344 2063.5 719.34375 C 2062.949219 721.160156 2062.308594 722.949219 2061.582031 724.703125 C 2060.855469 726.457031 2060.046875 728.171875 2059.148438 729.847656 C 2058.253906 731.523438 2057.28125 733.148438 2056.222656 734.730469 C 2055.167969 736.308594 2054.039062 737.832031 2052.832031 739.300781 C 2051.628906 740.769531 2050.355469 742.175781 2049.011719 743.519531 C 2047.667969 744.863281 2046.261719 746.136719 2044.792969 747.339844 C 2043.324219 748.546875 2041.800781 749.675781 2040.222656 750.730469 C 2038.644531 751.785156 2037.015625 752.761719 2035.339844 753.65625 C 2033.664062 754.550781 2031.949219 755.363281 2030.195312 756.089844 C 2028.441406 756.816406 2026.652344 757.457031 2024.835938 758.007812 C 2023.019531 758.558594 2021.179688 759.019531 2019.316406 759.390625 C 2017.453125 759.761719 2015.574219 760.039062 2013.6875 760.226562 C 2011.796875 760.414062 2009.898438 760.503906 2008 760.503906 C 2006.101562 760.503906 2004.207031 760.414062 2002.316406 760.226562 C 2000.425781 760.039062 1998.550781 759.761719 1996.6875 759.390625 C 1994.824219 759.019531 1992.984375 758.558594 1991.164062 758.007812 C 1989.347656 757.457031 1987.5625 756.816406 1985.804688 756.089844 C 1984.050781 755.363281 1982.335938 754.550781 1980.660156 753.65625 C 1978.984375 752.761719 1977.359375 751.785156 1975.777344 750.730469 C 1974.199219 749.675781 1972.675781 748.546875 1971.207031 747.339844 C 1969.738281 746.136719 1968.332031 744.863281 1966.992188 743.519531 C 1965.648438 742.175781 1964.375 740.769531 1963.167969 739.300781 C 1961.964844 737.832031 1960.832031 736.308594 1959.777344 734.730469 C 1958.722656 733.148438 1957.746094 731.523438 1956.851562 729.847656 C 1955.957031 728.171875 1955.144531 726.457031 1954.417969 724.703125 C 1953.691406 722.949219 1953.050781 721.160156 1952.5 719.34375 C 1951.949219 717.527344 1951.488281 715.6875 1951.117188 713.824219 C 1950.746094 711.960938 1950.46875 710.082031 1950.28125 708.191406 C 1950.097656 706.300781 1950.003906 704.40625 1950.003906 702.507812 C 1950.003906 700.609375 1950.097656 698.714844 1950.28125 696.824219 C 1950.46875 694.933594 1950.746094 693.054688 1951.117188 691.191406 C 1951.488281 689.332031 1951.949219 687.488281 1952.5 685.671875 C 1953.050781 683.855469 1953.691406 682.066406 1954.417969 680.3125 C 1955.144531 678.558594 1955.957031 676.84375 1956.851562 675.167969 C 1957.746094 673.492188 1958.722656 671.867188 1959.777344 670.285156 C 1960.832031 668.707031 1961.964844 667.183594 1963.167969 665.714844 C 1964.375 664.246094 1965.648438 662.839844 1966.992188 661.496094 C 1968.332031 660.15625 1969.738281 658.878906 1971.207031 657.675781 C 1972.675781 656.46875 1974.199219 655.339844 1975.777344 654.285156 C 1977.359375 653.230469 1978.984375 652.253906 1980.660156 651.359375 C 1982.335938 650.464844 1984.050781 649.652344 1985.804688 648.925781 C 1987.5625 648.199219 1989.347656 647.558594 1991.164062 647.007812 C 1992.984375 646.457031 1994.824219 645.996094 1996.6875 645.625 C 1998.550781 645.253906 2000.425781 644.976562 2002.316406 644.789062 C 2004.207031 644.605469 2006.101562 644.511719 2008 644.511719 C 2009.898438 644.511719 2011.796875 644.605469 2013.6875 644.789062 C 2015.574219 644.976562 2017.453125 645.253906 2019.316406 645.625 C 2021.179688 645.996094 2023.019531 646.457031 2024.835938 647.007812 C 2026.652344 647.558594 2028.441406 648.199219 2030.195312 648.925781 C 2031.949219 649.652344 2033.664062 650.464844 2035.339844 651.359375 C 2037.015625 652.253906 2038.644531 653.230469 2040.222656 654.285156 C 2041.800781 655.339844 2043.324219 656.46875 2044.792969 657.675781 C 2046.261719 658.878906 2047.667969 660.15625 2049.011719 661.496094 C 2050.355469 662.839844 2051.628906 664.246094 2052.832031 665.714844 C 2054.039062 667.183594 2055.167969 668.707031 2056.222656 670.285156 C 2057.28125 671.867188 2058.253906 673.492188 2059.148438 675.167969 C 2060.046875 676.84375 2060.855469 678.558594 2061.582031 680.3125 C 2062.308594 682.066406 2062.949219 683.855469 2063.5 685.671875 C 2064.050781 687.488281 2064.511719 689.332031 2064.882812 691.191406 C 2065.253906 693.054688 2065.53125 694.933594 2065.71875 696.824219 C 2065.90625 698.714844 2066 700.609375 2066 702.507812 Z M 2066 702.507812 " fill-opacity="1" fill-rule="nonzero"/><path fill="#ffffff" d="M 2066 1546.011719 C 2066 1547.914062 2065.90625 1549.808594 2065.71875 1551.699219 C 2065.53125 1553.589844 2065.253906 1555.464844 2064.882812 1557.328125 C 2064.511719 1559.191406 2064.050781 1561.03125 2063.5 1562.847656 C 2062.949219 1564.667969 2062.308594 1566.453125 2061.582031 1568.207031 C 2060.855469 1569.960938 2060.046875 1571.679688 2059.148438 1573.351562 C 2058.253906 1575.027344 2057.28125 1576.65625 2056.222656 1578.234375 C 2055.167969 1579.8125 2054.039062 1581.335938 2052.832031 1582.804688 C 2051.628906 1584.273438 2050.355469 1585.679688 2049.011719 1587.023438 C 2047.667969 1588.367188 2046.261719 1589.640625 2044.792969 1590.847656 C 2043.324219 1592.050781 2041.800781 1593.179688 2040.222656 1594.234375 C 2038.644531 1595.292969 2037.015625 1596.265625 2035.339844 1597.164062 C 2033.664062 1598.058594 2031.949219 1598.867188 2030.195312 1599.597656 C 2028.441406 1600.324219 2026.652344 1600.960938 2024.835938 1601.511719 C 2023.019531 1602.066406 2021.179688 1602.527344 2019.316406 1602.894531 C 2017.453125 1603.265625 2015.574219 1603.546875 2013.6875 1603.730469 C 2011.796875 1603.917969 2009.898438 1604.011719 2008 1604.011719 C 2006.101562 1604.011719 2004.207031 1603.917969 2002.316406 1603.730469 C 2000.425781 1603.546875 1998.550781 1603.265625 1996.6875 1602.894531 C 1994.824219 1602.527344 1992.984375 1602.066406 1991.164062 1601.511719 C 1989.347656 1600.960938 1987.5625 1600.324219 1985.804688 1599.59375 C 1984.050781 1598.867188 1982.335938 1598.058594 1980.660156 1597.164062 C 1978.984375 1596.265625 1977.359375 1595.292969 1975.777344 1594.234375 C 1974.199219 1593.179688 1972.675781 1592.050781 1971.207031 1590.847656 C 1969.738281 1589.640625 1968.332031 1588.367188 1966.992188 1587.023438 C 1965.648438 1585.679688 1964.375 1584.273438 1963.167969 1582.804688 C 1961.964844 1581.335938 1960.832031 1579.8125 1959.777344 1578.234375 C 1958.722656 1576.65625 1957.746094 1575.027344 1956.851562 1573.351562 C 1955.957031 1571.679688 1955.144531 1569.960938 1954.417969 1568.207031 C 1953.691406 1566.453125 1953.050781 1564.667969 1952.5 1562.847656 C 1951.949219 1561.03125 1951.488281 1559.191406 1951.117188 1557.328125 C 1950.746094 1555.464844 1950.46875 1553.589844 1950.28125 1551.699219 C 1950.097656 1549.808594 1950.003906 1547.914062 1950.003906 1546.011719 C 1950.003906 1544.113281 1950.097656 1542.21875 1950.28125 1540.328125 C 1950.46875 1538.4375 1950.746094 1536.5625 1951.117188 1534.699219 C 1951.488281 1532.835938 1951.949219 1530.996094 1952.5 1529.175781 C 1953.050781 1527.359375 1953.691406 1525.574219 1954.417969 1523.816406 C 1955.144531 1522.0625 1955.957031 1520.347656 1956.851562 1518.671875 C 1957.746094 1516.996094 1958.722656 1515.371094 1959.777344 1513.792969 C 1960.832031 1512.210938 1961.964844 1510.6875 1963.167969 1509.21875 C 1964.375 1507.75 1965.648438 1506.34375 1966.992188 1505.003906 C 1968.332031 1503.660156 1969.738281 1502.386719 1971.207031 1501.179688 C 1972.675781 1499.976562 1974.199219 1498.84375 1975.777344 1497.789062 C 1977.359375 1496.734375 1978.984375 1495.757812 1980.660156 1494.863281 C 1982.335938 1493.96875 1984.050781 1493.15625 1985.804688 1492.429688 C 1987.5625 1491.703125 1989.347656 1491.0625 1991.164062 1490.511719 C 1992.984375 1489.960938 1994.824219 1489.5 1996.6875 1489.128906 C 1998.550781 1488.757812 2000.425781 1488.480469 2002.316406 1488.292969 C 2004.207031 1488.109375 2006.101562 1488.015625 2008 1488.015625 C 2009.898438 1488.015625 2011.796875 1488.109375 2013.6875 1488.296875 C 2015.574219 1488.480469 2017.453125 1488.757812 2019.316406 1489.128906 C 2021.179688 1489.5 2023.019531 1489.960938 2024.835938 1490.511719 C 2026.652344 1491.0625 2028.441406 1491.703125 2030.195312 1492.429688 C 2031.949219 1493.15625 2033.664062 1493.96875 2035.339844 1494.863281 C 2037.015625 1495.757812 2038.644531 1496.734375 2040.222656 1497.789062 C 2041.800781 1498.84375 2043.324219 1499.976562 2044.792969 1501.179688 C 2046.261719 1502.386719 2047.667969 1503.660156 2049.011719 1505.003906 C 2050.355469 1506.34375 2051.628906 1507.75 2052.832031 1509.21875 C 2054.039062 1510.6875 2055.167969 1512.210938 2056.222656 1513.792969 C 2057.28125 1515.371094 2058.253906 1516.996094 2059.148438 1518.671875 C 2060.046875 1520.347656 2060.855469 1522.0625 2061.582031 1523.816406 C 2062.308594 1525.574219 2062.949219 1527.359375 2063.5 1529.175781 C 2064.050781 1530.996094 2064.511719 1532.835938 2064.882812 1534.699219 C 2065.253906 1536.5625 2065.53125 1538.4375 2065.71875 1540.328125 C 2065.90625 1542.21875 2066 1544.113281 2066 1546.011719 Z M 2066 1546.011719 " fill-opacity="1" fill-rule="nonzero"/><path fill="#ffffff" d="M 299.996094 702.507812 C 299.996094 704.40625 299.902344 706.300781 299.71875 708.191406 C 299.53125 710.082031 299.253906 711.960938 298.882812 713.824219 C 298.511719 715.6875 298.050781 717.527344 297.5 719.34375 C 296.949219 721.160156 296.308594 722.949219 295.582031 724.703125 C 294.855469 726.457031 294.042969 728.171875 293.148438 729.847656 C 292.253906 731.523438 291.277344 733.148438 290.222656 734.730469 C 289.167969 736.308594 288.035156 737.832031 286.832031 739.300781 C 285.625 740.769531 284.351562 742.175781 283.007812 743.519531 C 281.667969 744.863281 280.261719 746.136719 278.792969 747.339844 C 277.324219 748.546875 275.800781 749.675781 274.21875 750.730469 C 272.640625 751.785156 271.015625 752.761719 269.339844 753.65625 C 267.664062 754.550781 265.949219 755.363281 264.195312 756.089844 C 262.4375 756.816406 260.652344 757.457031 258.835938 758.007812 C 257.015625 758.558594 255.175781 759.019531 253.3125 759.390625 C 251.449219 759.761719 249.574219 760.039062 247.683594 760.226562 C 245.792969 760.414062 243.898438 760.503906 242 760.503906 C 240.097656 760.503906 238.203125 760.414062 236.3125 760.226562 C 234.425781 760.039062 232.546875 759.761719 230.683594 759.390625 C 228.820312 759.019531 226.980469 758.558594 225.164062 758.007812 C 223.34375 757.457031 221.558594 756.816406 219.804688 756.089844 C 218.050781 755.363281 216.335938 754.550781 214.660156 753.65625 C 212.984375 752.761719 211.355469 751.785156 209.777344 750.730469 C 208.199219 749.675781 206.675781 748.546875 205.207031 747.339844 C 203.738281 746.136719 202.332031 744.863281 200.988281 743.519531 C 199.644531 742.175781 198.371094 740.769531 197.167969 739.300781 C 195.960938 737.832031 194.832031 736.308594 193.777344 734.730469 C 192.71875 733.148438 191.746094 731.523438 190.851562 729.847656 C 189.953125 728.171875 189.144531 726.457031 188.417969 724.703125 C 187.6875 722.949219 187.050781 721.160156 186.5 719.34375 C 185.949219 717.527344 185.488281 715.6875 185.117188 713.824219 C 184.746094 711.960938 184.46875 710.082031 184.28125 708.191406 C 184.09375 706.300781 184 704.40625 184 702.507812 C 184 700.609375 184.09375 698.714844 184.28125 696.824219 C 184.46875 694.933594 184.746094 693.054688 185.117188 691.191406 C 185.488281 689.332031 185.949219 687.488281 186.5 685.671875 C 187.050781 683.855469 187.6875 682.066406 188.417969 680.3125 C 189.144531 678.558594 189.953125 676.84375 190.851562 675.167969 C 191.746094 673.492188 192.71875 671.867188 193.777344 670.285156 C 194.832031 668.707031 195.960938 667.183594 197.167969 665.714844 C 198.371094 664.246094 199.644531 662.839844 200.988281 661.496094 C 202.332031 660.15625 203.738281 658.878906 205.207031 657.675781 C 206.675781 656.46875 208.199219 655.339844 209.777344 654.285156 C 211.355469 653.230469 212.984375 652.253906 214.660156 651.359375 C 216.335938 650.464844 218.050781 649.652344 219.804688 648.925781 C 221.558594 648.199219 223.34375 647.558594 225.164062 647.007812 C 226.980469 646.457031 228.820312 645.996094 230.683594 645.625 C 232.546875 645.253906 234.425781 644.976562 236.3125 644.789062 C 238.203125 644.605469 240.097656 644.511719 242 644.511719 C 243.898438 644.511719 245.792969 644.605469 247.683594 644.789062 C 249.574219 644.976562 251.449219 645.253906 253.3125 645.625 C 255.175781 645.996094 257.015625 646.457031 258.835938 647.007812 C 260.652344 647.558594 262.4375 648.199219 264.195312 648.925781 C 265.949219 649.652344 267.664062 650.464844 269.339844 651.359375 C 271.015625 652.253906 272.640625 653.230469 274.21875 654.285156 C 275.800781 655.339844 277.324219 656.46875 278.792969 657.675781 C 280.261719 658.878906 281.667969 660.15625 283.007812 661.496094 C 284.351562 662.839844 285.625 664.246094 286.832031 665.714844 C 288.035156 667.183594 289.167969 668.707031 290.222656 670.285156 C 291.277344 671.867188 292.253906 673.492188 293.148438 675.167969 C 294.042969 676.84375 294.855469 678.558594 295.582031 680.3125 C 296.308594 682.066406 296.949219 683.855469 297.5 685.671875 C 298.050781 687.488281 298.511719 689.332031 298.882812 691.191406 C 299.253906 693.054688 299.53125 694.933594 299.71875 696.824219 C 299.902344 698.714844 299.996094 700.609375 299.996094 702.507812 Z M 299.996094 702.507812 " fill-opacity="1" fill-rule="nonzero"/><path fill="#ffffff" d="M 299.996094 1546.011719 C 299.996094 1547.914062 299.902344 1549.808594 299.71875 1551.699219 C 299.53125 1553.589844 299.253906 1555.464844 298.882812 1557.328125 C 298.511719 1559.191406 298.050781 1561.03125 297.5 1562.847656 C 296.949219 1564.667969 296.308594 1566.453125 295.582031 1568.207031 C 294.855469 1569.960938 294.042969 1571.679688 293.148438 1573.351562 C 292.253906 1575.027344 291.277344 1576.65625 290.222656 1578.234375 C 289.167969 1579.8125 288.035156 1581.335938 286.832031 1582.804688 C 285.625 1584.273438 284.351562 1585.679688 283.007812 1587.023438 C 281.667969 1588.367188 280.261719 1589.640625 278.792969 1590.847656 C 277.324219 1592.050781 275.800781 1593.179688 274.21875 1594.234375 C 272.640625 1595.292969 271.015625 1596.265625 269.339844 1597.164062 C 267.664062 1598.058594 265.949219 1598.867188 264.195312 1599.597656 C 262.4375 1600.324219 260.652344 1600.960938 258.835938 1601.511719 C 257.015625 1602.066406 255.175781 1602.527344 253.3125 1602.894531 C 251.449219 1603.265625 249.574219 1603.546875 247.683594 1603.730469 C 245.792969 1603.917969 243.898438 1604.011719 242 1604.011719 C 240.097656 1604.011719 238.203125 1603.917969 236.3125 1603.730469 C 234.425781 1603.546875 232.546875 1603.265625 230.683594 1602.894531 C 228.820312 1602.527344 226.980469 1602.066406 225.164062 1601.511719 C 223.34375 1600.960938 221.558594 1600.324219 219.804688 1599.59375 C 218.050781 1598.867188 216.335938 1598.058594 214.660156 1597.164062 C 212.984375 1596.265625 211.355469 1595.292969 209.777344 1594.234375 C 208.199219 1593.179688 206.675781 1592.050781 205.207031 1590.847656 C 203.738281 1589.640625 202.332031 1588.367188 200.988281 1587.023438 C 199.644531 1585.679688 198.371094 1584.273438 197.167969 1582.804688 C 195.960938 1581.335938 194.832031 1579.8125 193.777344 1578.234375 C 192.71875 1576.65625 191.746094 1575.027344 190.851562 1573.351562 C 189.953125 1571.679688 189.144531 1569.960938 188.417969 1568.207031 C 187.6875 1566.453125 187.050781 1564.667969 186.5 1562.847656 C 185.949219 1561.03125 185.488281 1559.191406 185.117188 1557.328125 C 184.746094 1555.464844 184.46875 1553.589844 184.28125 1551.699219 C 184.09375 1549.808594 184 1547.914062 184 1546.011719 C 184 1544.113281 184.09375 1542.21875 184.28125 1540.328125 C 184.46875 1538.4375 184.746094 1536.5625 185.117188 1534.699219 C 185.488281 1532.835938 185.949219 1530.996094 186.5 1529.175781 C 187.050781 1527.359375 187.6875 1525.574219 188.417969 1523.816406 C 189.144531 1522.0625 189.953125 1520.347656 190.851562 1518.671875 C 191.746094 1516.996094 192.71875 1515.371094 193.777344 1513.792969 C 194.832031 1512.210938 195.960938 1510.6875 197.167969 1509.21875 C 198.371094 1507.75 199.644531 1506.34375 200.988281 1505.003906 C 202.332031 1503.660156 203.738281 1502.386719 205.207031 1501.179688 C 206.675781 1499.976562 208.199219 1498.84375 209.777344 1497.789062 C 211.355469 1496.734375 212.984375 1495.757812 214.660156 1494.863281 C 216.335938 1493.96875 218.050781 1493.15625 219.804688 1492.429688 C 221.558594 1491.703125 223.34375 1491.0625 225.164062 1490.511719 C 226.980469 1489.960938 228.820312 1489.5 230.683594 1489.128906 C 232.546875 1488.757812 234.425781 1488.480469 236.3125 1488.292969 C 238.203125 1488.109375 240.097656 1488.015625 242 1488.015625 C 243.898438 1488.015625 245.792969 1488.109375 247.683594 1488.296875 C 249.574219 1488.480469 251.449219 1488.757812 253.3125 1489.128906 C 255.175781 1489.5 257.015625 1489.960938 258.835938 1490.511719 C 260.652344 1491.0625 262.4375 1491.703125 264.195312 1492.429688 C 265.949219 1493.15625 267.664062 1493.96875 269.339844 1494.863281 C 271.015625 1495.757812 272.640625 1496.734375 274.21875 1497.789062 C 275.800781 1498.84375 277.324219 1499.976562 278.792969 1501.179688 C 280.261719 1502.386719 281.667969 1503.660156 283.007812 1505.003906 C 284.351562 1506.34375 285.625 1507.75 286.832031 1509.21875 C 288.035156 1510.6875 289.167969 1512.210938 290.222656 1513.792969 C 291.277344 1515.371094 292.253906 1516.996094 293.148438 1518.671875 C 294.042969 1520.347656 294.855469 1522.0625 295.582031 1523.816406 C 296.308594 1525.574219 296.949219 1527.359375 297.5 1529.175781 C 298.050781 1530.996094 298.511719 1532.835938 298.882812 1534.699219 C 299.253906 1536.5625 299.53125 1538.4375 299.71875 1540.328125 C 299.902344 1542.21875 299.996094 1544.113281 299.996094 1546.011719 Z M 299.996094 1546.011719 " fill-opacity="1" fill-rule="nonzero"/></svg>