<svg xmlns="http://www.w3.org/2000/svg" xmlns:xlink="http://www.w3.org/1999/xlink" width="3000" zoomAndPan="magnify" viewBox="0 0 2250 2250.000011" height="3000" preserveAspectRatio="xMidYMid meet" version="1.0"><defs><filter x="0%" y="0%" width="100%" height="100%" id="aee83b7adb"><feColorMatrix values="0 0 0 0 1 0 0 0 0 1 0 0 0 0 1 0 0 0 1 0" color-interpolation-filters="sRGB"/></filter><clipPath id="73738d73db"><path d="M 225.398438 337 L 1970 337 L 1970 2023.757812 L 225.398438 2023.757812 Z M 225.398438 337 " clip-rule="nonzero"/></clipPath><mask id="5562cd23b4"><g filter="url(#aee83b7adb)"><rect x="-225" width="2700" fill="#000000" y="-225.000001" height="2700.000013" fill-opacity="0.3"/></g></mask><clipPath id="126b6135c2"><path d="M 1 2 L 1743 2 L 1743 1686.757812 L 1 1686.757812 Z M 1 2 " clip-rule="nonzero"/></clipPath><clipPath id="f35fb1d585"><rect x="0" width="1745" y="0" height="1687"/></clipPath><clipPath id="cc998fc6e2"><path d="M 282 283.78125 L 2024 283.78125 L 2024 1968 L 282 1968 Z M 282 283.78125 " clip-rule="nonzero"/></clipPath><mask id="a0c05721fb"><g filter="url(#aee83b7adb)"><rect x="-225" width="2700" fill="#000000" y="-225.000001" height="2700.000013" fill-opacity="0.2"/></g></mask><clipPath id="de9831fcfa"><rect x="0" width="1632" y="0" height="1579"/></clipPath><clipPath id="ed322db991"><path d="M 282 283.78125 L 2024 283.78125 L 2024 1968 L 282 1968 Z M 282 283.78125 " clip-rule="nonzero"/></clipPath><mask id="8a61459418"><g filter="url(#aee83b7adb)"><rect x="-225" width="2700" fill="#000000" y="-225.000001" height="2700.000013" fill-opacity="0.3"/></g></mask><clipPath id="dc85ff577f"><rect x="0" width="1574" y="0" height="1579"/></clipPath><mask id="93edaef6d1"><g filter="url(#aee83b7adb)"><rect x="-225" width="2700" fill="#000000" y="-225.000001" height="2700.000013" fill-opacity="0.5"/></g></mask><clipPath id="220932491c"><rect x="0" width="680" y="0" height="1579"/></clipPath></defs><g clip-path="url(#73738d73db)"><g mask="url(#5562cd23b4)"><g transform="matrix(1, 0, 0, 1, 225, 337)"><g clip-path="url(#f35fb1d585)"><g clip-path="url(#126b6135c2)"><path fill="#000000" d="M 1685.90625 620.429688 L 1685.90625 508.152344 L 1629.796875 508.152344 L 1629.796875 508.121094 L 1629.769531 508.121094 L 1629.769531 395.878906 L 1573.632812 395.878906 L 1573.632812 339.742188 L 1517.496094 339.742188 L 1517.496094 283.605469 L 1461.355469 283.605469 L 1461.355469 227.46875 L 1405.21875 227.46875 L 1405.21875 171.332031 L 1349.082031 171.332031 L 1349.082031 115.195312 L 1236.808594 115.195312 L 1236.808594 59.058594 L 1124.535156 59.058594 L 1124.535156 2.921875 L 619.300781 2.921875 L 619.300781 59.058594 L 507.027344 59.058594 L 507.027344 115.195312 L 394.75 115.195312 L 394.75 171.332031 L 338.613281 171.332031 L 338.613281 227.46875 L 282.476562 227.46875 L 282.476562 283.605469 L 226.339844 283.605469 L 226.339844 339.742188 L 170.203125 339.742188 L 170.203125 395.878906 L 114.066406 395.878906 L 114.066406 508.152344 L 57.929688 508.152344 L 57.929688 620.429688 L 1.792969 620.429688 L 1.792969 1069.527344 L 57.929688 1069.527344 L 57.929688 1181.800781 L 114.066406 1181.800781 L 114.066406 1294.074219 L 170.203125 1294.074219 L 170.203125 1350.210938 L 226.339844 1350.210938 L 226.339844 1406.347656 L 282.476562 1406.347656 L 282.476562 1462.484375 L 338.613281 1462.484375 L 338.613281 1518.621094 L 394.75 1518.621094 L 394.75 1574.761719 L 507.027344 1574.761719 L 507.027344 1630.898438 L 619.300781 1630.898438 L 619.300781 1687.035156 L 1124.535156 1687.035156 L 1124.535156 1631.015625 L 1124.585938 1631.015625 L 1124.585938 1630.898438 L 1236.808594 1630.898438 L 1236.808594 1574.761719 L 1349.082031 1574.761719 L 1349.082031 1518.746094 L 1349.140625 1518.746094 L 1349.140625 1518.621094 L 1405.21875 1518.621094 L 1405.21875 1462.484375 L 1461.355469 1462.484375 L 1461.355469 1406.347656 L 1517.496094 1406.347656 L 1517.496094 1350.210938 L 1573.632812 1350.210938 L 1573.632812 1294.074219 L 1629.769531 1294.074219 L 1629.769531 1181.800781 L 1685.90625 1181.800781 L 1685.90625 1069.527344 L 1742.042969 1069.527344 L 1742.042969 620.429688 Z M 1685.90625 620.429688 " fill-opacity="1" fill-rule="nonzero"/></g></g></g></g></g><g clip-path="url(#cc998fc6e2)"><path fill="#000000" d="M 1967.042969 901.292969 L 1967.042969 789.015625 L 1910.933594 789.015625 L 1910.933594 788.984375 L 1910.90625 788.984375 L 1910.90625 676.742188 L 1854.769531 676.742188 L 1854.769531 620.605469 L 1798.632812 620.605469 L 1798.632812 564.46875 L 1742.496094 564.46875 L 1742.496094 508.332031 L 1686.359375 508.332031 L 1686.359375 452.195312 L 1630.222656 452.195312 L 1630.222656 396.058594 L 1517.945312 396.058594 L 1517.945312 339.921875 L 1405.671875 339.921875 L 1405.671875 283.78125 L 900.4375 283.78125 L 900.4375 339.921875 L 788.164062 339.921875 L 788.164062 396.058594 L 675.890625 396.058594 L 675.890625 452.195312 L 619.753906 452.195312 L 619.753906 508.332031 L 563.617188 508.332031 L 563.617188 564.46875 L 507.476562 564.46875 L 507.476562 620.605469 L 451.339844 620.605469 L 451.339844 676.742188 L 395.203125 676.742188 L 395.203125 789.015625 L 339.066406 789.015625 L 339.066406 901.292969 L 282.929688 901.292969 L 282.929688 1350.390625 L 339.066406 1350.390625 L 339.066406 1462.664062 L 395.203125 1462.664062 L 395.203125 1574.9375 L 451.339844 1574.9375 L 451.339844 1631.074219 L 507.476562 1631.074219 L 507.476562 1687.210938 L 563.617188 1687.210938 L 563.617188 1743.347656 L 619.753906 1743.347656 L 619.753906 1799.484375 L 675.890625 1799.484375 L 675.890625 1855.625 L 788.164062 1855.625 L 788.164062 1911.761719 L 900.4375 1911.761719 L 900.4375 1967.898438 L 1405.671875 1967.898438 L 1405.671875 1911.878906 L 1405.722656 1911.878906 L 1405.722656 1911.761719 L 1517.945312 1911.761719 L 1517.945312 1855.625 L 1630.222656 1855.625 L 1630.222656 1799.609375 L 1630.28125 1799.609375 L 1630.28125 1799.484375 L 1686.359375 1799.484375 L 1686.359375 1743.347656 L 1742.496094 1743.347656 L 1742.496094 1687.210938 L 1798.632812 1687.210938 L 1798.632812 1631.074219 L 1854.769531 1631.074219 L 1854.769531 1574.9375 L 1910.90625 1574.9375 L 1910.90625 1462.664062 L 1967.042969 1462.664062 L 1967.042969 1350.390625 L 2023.179688 1350.390625 L 2023.179688 901.292969 Z M 1967.042969 901.292969 " fill-opacity="1" fill-rule="nonzero"/></g><path fill="#0499ea" d="M 1967.042969 901.292969 L 1967.042969 1125.839844 L 1686.359375 1125.839844 L 1686.359375 845.15625 L 1630.222656 845.15625 L 1630.222656 732.878906 L 1854.769531 732.878906 L 1854.769531 789.015625 L 1910.90625 789.015625 L 1910.90625 901.292969 Z M 1854.769531 1181.976562 L 1686.359375 1181.976562 L 1686.359375 1406.527344 L 1630.222656 1406.527344 L 1630.222656 1518.800781 L 1854.769531 1518.800781 L 1854.769531 1462.664062 L 1910.90625 1462.664062 L 1910.90625 1350.390625 L 1967.042969 1350.390625 L 1967.042969 1181.976562 Z M 1686.359375 1574.9375 L 1574.085938 1574.9375 L 1574.085938 1631.074219 L 1517.945312 1631.074219 L 1517.945312 1687.210938 L 1461.808594 1687.210938 L 1461.808594 1743.347656 L 1405.671875 1743.347656 L 1405.671875 1799.484375 L 1349.535156 1799.484375 L 1349.535156 1855.625 L 1293.398438 1855.625 L 1293.398438 1911.761719 L 1405.671875 1911.761719 L 1405.671875 1855.625 L 1517.945312 1855.625 L 1517.945312 1799.484375 L 1630.222656 1799.484375 L 1630.222656 1743.347656 L 1686.359375 1743.347656 L 1686.359375 1687.210938 L 1742.496094 1687.210938 L 1742.496094 1631.074219 L 1798.632812 1631.074219 L 1798.632812 1574.9375 Z M 1630.222656 1294.25 L 1630.222656 1181.976562 L 1181.125 1181.976562 L 1181.125 1518.800781 L 1574.085938 1518.800781 L 1574.085938 1406.527344 L 1630.222656 1406.527344 Z M 1574.085938 789.015625 L 1574.085938 732.878906 L 1181.125 732.878906 L 1181.125 1125.839844 L 1630.222656 1125.839844 L 1630.222656 845.15625 L 1574.085938 845.15625 Z M 1349.535156 452.195312 L 1405.671875 452.195312 L 1405.671875 508.332031 L 1461.808594 508.332031 L 1461.808594 564.46875 L 1517.945312 564.46875 L 1517.945312 620.605469 L 1574.085938 620.605469 L 1574.085938 676.742188 L 1798.632812 676.742188 L 1798.632812 620.605469 L 1742.496094 620.605469 L 1742.496094 564.46875 L 1686.359375 564.46875 L 1686.359375 508.332031 L 1630.222656 508.332031 L 1630.222656 452.195312 L 1517.945312 452.195312 L 1517.945312 396.058594 L 1405.671875 396.058594 L 1405.671875 339.921875 L 1293.398438 339.921875 L 1293.398438 396.058594 L 1349.535156 396.058594 Z M 1349.535156 1799.484375 L 1349.535156 1743.347656 L 1405.671875 1743.347656 L 1405.671875 1687.210938 L 1461.808594 1687.210938 L 1461.808594 1631.074219 L 1517.945312 1631.074219 L 1517.945312 1574.9375 L 1181.125 1574.9375 L 1181.125 1911.761719 L 1237.261719 1911.761719 L 1237.261719 1855.625 L 1293.398438 1855.625 L 1293.398438 1799.484375 Z M 1293.398438 676.742188 L 1517.945312 676.742188 L 1517.945312 620.605469 L 1461.808594 620.605469 L 1461.808594 564.46875 L 1405.671875 564.46875 L 1405.671875 508.332031 L 1349.535156 508.332031 L 1349.535156 452.195312 L 1293.398438 452.195312 L 1293.398438 396.058594 L 1237.261719 396.058594 L 1237.261719 339.921875 L 1181.125 339.921875 L 1181.125 676.742188 Z M 1068.851562 396.058594 L 1012.710938 396.058594 L 1012.710938 452.195312 L 956.574219 452.195312 L 956.574219 508.332031 L 900.4375 508.332031 L 900.4375 564.46875 L 844.300781 564.46875 L 844.300781 620.605469 L 788.164062 620.605469 L 788.164062 676.742188 L 1124.988281 676.742188 L 1124.988281 339.921875 L 1068.851562 339.921875 Z M 1012.710938 1574.9375 L 788.164062 1574.9375 L 788.164062 1631.074219 L 844.300781 1631.074219 L 844.300781 1687.210938 L 900.4375 1687.210938 L 900.4375 1743.347656 L 956.574219 1743.347656 L 956.574219 1799.484375 L 1012.710938 1799.484375 L 1012.710938 1855.625 L 1068.851562 1855.625 L 1068.851562 1911.761719 L 1124.988281 1911.761719 L 1124.988281 1574.9375 Z M 1012.710938 1181.976562 L 675.890625 1181.976562 L 675.890625 1406.527344 L 732.027344 1406.527344 L 732.027344 1518.800781 L 1124.988281 1518.800781 L 1124.988281 1181.976562 Z M 1012.710938 732.878906 L 732.027344 732.878906 L 732.027344 845.15625 L 675.890625 845.15625 L 675.890625 1125.839844 L 1124.988281 1125.839844 L 1124.988281 732.878906 Z M 956.574219 1799.484375 L 900.4375 1799.484375 L 900.4375 1743.347656 L 844.300781 1743.347656 L 844.300781 1687.210938 L 788.164062 1687.210938 L 788.164062 1631.074219 L 732.027344 1631.074219 L 732.027344 1574.9375 L 507.476562 1574.9375 L 507.476562 1631.074219 L 563.617188 1631.074219 L 563.617188 1687.210938 L 619.753906 1687.210938 L 619.753906 1743.347656 L 675.890625 1743.347656 L 675.890625 1799.484375 L 788.164062 1799.484375 L 788.164062 1855.625 L 900.4375 1855.625 L 900.4375 1911.761719 L 1012.710938 1911.761719 L 1012.710938 1855.625 L 956.574219 1855.625 Z M 844.300781 564.46875 L 844.300781 508.332031 L 900.4375 508.332031 L 900.4375 452.195312 L 956.574219 452.195312 L 956.574219 396.058594 L 1012.710938 396.058594 L 1012.710938 339.921875 L 900.4375 339.921875 L 900.4375 396.058594 L 788.164062 396.058594 L 788.164062 452.195312 L 675.890625 452.195312 L 675.890625 508.332031 L 619.753906 508.332031 L 619.753906 564.46875 L 563.617188 564.46875 L 563.617188 620.605469 L 507.476562 620.605469 L 507.476562 676.742188 L 732.027344 676.742188 L 732.027344 620.605469 L 788.164062 620.605469 L 788.164062 564.46875 Z M 675.890625 732.878906 L 451.339844 732.878906 L 451.339844 789.015625 L 395.203125 789.015625 L 395.203125 901.292969 L 339.066406 901.292969 L 339.066406 1125.839844 L 619.753906 1125.839844 L 619.753906 845.15625 L 675.890625 845.15625 Z M 619.753906 1350.390625 L 619.753906 1181.976562 L 339.066406 1181.976562 L 339.066406 1350.390625 L 395.203125 1350.390625 L 395.203125 1462.664062 L 451.339844 1462.664062 L 451.339844 1518.800781 L 675.890625 1518.800781 L 675.890625 1406.527344 L 619.753906 1406.527344 Z M 619.753906 1350.390625 " fill-opacity="1" fill-rule="nonzero"/><g mask="url(#a0c05721fb)"><g transform="matrix(1, 0, 0, 1, 338, 337)"><g clip-path="url(#de9831fcfa)"><path fill="#3c00ff" d="M 674.738281 2.902344 L 618.601562 2.902344 L 618.601562 59.039062 L 674.738281 59.039062 Z M 786.988281 2.902344 L 730.851562 2.902344 L 730.851562 59.039062 L 786.988281 59.039062 Z M 674.738281 115.179688 L 618.601562 115.179688 L 618.601562 171.316406 L 674.738281 171.316406 Z M 787.011719 115.179688 L 730.875 115.179688 L 730.875 171.316406 L 787.011719 171.316406 Z M 730.875 59.058594 L 674.738281 59.058594 L 674.738281 115.195312 L 730.875 115.195312 Z M 899.289062 2.902344 L 843.148438 2.902344 L 843.148438 59.039062 L 899.289062 59.039062 Z M 899.3125 115.179688 L 843.175781 115.179688 L 843.175781 171.316406 L 899.3125 171.316406 Z M 955.425781 59.058594 L 899.289062 59.058594 L 899.289062 115.195312 L 955.425781 115.195312 Z M 1011.585938 2.902344 L 955.449219 2.902344 L 955.449219 59.039062 L 1011.585938 59.039062 Z M 1011.613281 115.179688 L 955.476562 115.179688 L 955.476562 171.316406 L 1011.613281 171.316406 Z M 1067.726562 59.058594 L 1011.585938 59.058594 L 1011.585938 115.195312 L 1067.726562 115.195312 Z M 1123.914062 115.179688 L 1067.777344 115.179688 L 1067.777344 171.316406 L 1123.914062 171.316406 Z M 1180.023438 59.058594 L 1123.886719 59.058594 L 1123.886719 115.195312 L 1180.023438 115.195312 Z M 618.574219 59.058594 L 562.4375 59.058594 L 562.4375 115.195312 L 618.574219 115.195312 Z M 674.738281 227.445312 L 618.601562 227.445312 L 618.601562 283.582031 L 674.738281 283.582031 Z M 787.011719 227.445312 L 730.875 227.445312 L 730.875 283.582031 L 787.011719 283.582031 Z M 730.875 171.324219 L 674.738281 171.324219 L 674.738281 227.460938 L 730.875 227.460938 Z M 899.3125 227.445312 L 843.175781 227.445312 L 843.175781 283.582031 L 899.3125 283.582031 Z M 955.425781 171.324219 L 899.289062 171.324219 L 899.289062 227.460938 L 955.425781 227.460938 Z M 1011.613281 227.445312 L 955.476562 227.445312 L 955.476562 283.582031 L 1011.613281 283.582031 Z M 1067.726562 171.324219 L 1011.585938 171.324219 L 1011.585938 227.460938 L 1067.726562 227.460938 Z M 1123.914062 227.445312 L 1067.777344 227.445312 L 1067.777344 283.582031 L 1123.914062 283.582031 Z M 1180.023438 171.324219 L 1123.886719 171.324219 L 1123.886719 227.460938 L 1180.023438 227.460938 Z M 1236.125 115.179688 L 1179.984375 115.179688 L 1179.984375 171.316406 L 1236.125 171.316406 Z M 1236.125 227.445312 L 1179.984375 227.445312 L 1179.984375 283.582031 L 1236.125 283.582031 Z M 1292.234375 171.324219 L 1236.097656 171.324219 L 1236.097656 227.460938 L 1292.234375 227.460938 Z M 1348.332031 227.445312 L 1292.195312 227.445312 L 1292.195312 283.582031 L 1348.332031 283.582031 Z M 1292.28125 283.605469 L 1236.144531 283.605469 L 1236.144531 339.742188 L 1292.28125 339.742188 Z M 1404.488281 283.605469 L 1348.351562 283.605469 L 1348.351562 339.742188 L 1404.488281 339.742188 Z M 618.574219 171.324219 L 562.4375 171.324219 L 562.4375 227.460938 L 618.574219 227.460938 Z M 730.875 283.589844 L 674.738281 283.589844 L 674.738281 339.726562 L 730.875 339.726562 Z M 955.425781 283.589844 L 899.289062 283.589844 L 899.289062 339.726562 L 955.425781 339.726562 Z M 1067.726562 283.589844 L 1011.585938 283.589844 L 1011.585938 339.726562 L 1067.726562 339.726562 Z M 1180.023438 283.589844 L 1123.886719 283.589844 L 1123.886719 339.726562 L 1180.023438 339.726562 Z M 618.574219 283.589844 L 562.4375 283.589844 L 562.4375 339.726562 L 618.574219 339.726562 Z M 506.328125 59.058594 L 450.191406 59.058594 L 450.191406 115.195312 L 506.328125 115.195312 Z M 562.4375 115.195312 L 506.300781 115.195312 L 506.300781 171.332031 L 562.4375 171.332031 Z M 450.191406 115.195312 L 394.054688 115.195312 L 394.054688 171.332031 L 450.191406 171.332031 Z M 394.027344 171.332031 L 337.890625 171.332031 L 337.890625 227.46875 L 394.027344 227.46875 Z M 506.300781 171.332031 L 450.164062 171.332031 L 450.164062 227.46875 L 506.300781 227.46875 Z M 562.464844 227.445312 L 506.328125 227.445312 L 506.328125 283.582031 L 562.464844 283.582031 Z M 506.300781 283.605469 L 450.164062 283.605469 L 450.164062 339.742188 L 506.300781 339.742188 Z M 337.890625 227.46875 L 281.753906 227.46875 L 281.753906 283.605469 L 337.890625 283.605469 Z M 450.164062 227.46875 L 394.027344 227.46875 L 394.027344 283.605469 L 450.164062 283.605469 Z M 394.027344 283.605469 L 337.890625 283.605469 L 337.890625 339.742188 L 394.027344 339.742188 Z M 281.753906 283.605469 L 225.617188 283.605469 L 225.617188 339.742188 L 281.753906 339.742188 Z M 1404.488281 395.894531 L 1348.351562 395.894531 L 1348.351562 452.03125 L 1404.488281 452.03125 Z M 1516.804688 395.894531 L 1460.667969 395.894531 L 1460.667969 452.03125 L 1516.804688 452.03125 Z M 1516.804688 395.859375 L 1460.667969 395.859375 L 1460.667969 451.996094 L 1516.804688 451.996094 Z M 1460.648438 451.984375 L 1404.511719 451.984375 L 1404.511719 508.121094 L 1460.648438 508.121094 Z M 1516.804688 508.144531 L 1460.667969 508.144531 L 1460.667969 564.28125 L 1516.804688 564.28125 Z M 1516.804688 508.109375 L 1460.667969 508.109375 L 1460.667969 564.246094 L 1516.804688 564.246094 Z M 1460.648438 564.234375 L 1404.511719 564.234375 L 1404.511719 620.371094 L 1460.648438 620.371094 Z M 1572.933594 451.984375 L 1516.796875 451.984375 L 1516.796875 508.121094 L 1572.933594 508.121094 Z M 1572.933594 564.234375 L 1516.796875 564.234375 L 1516.796875 620.371094 L 1572.933594 620.371094 Z M 1516.804688 620.394531 L 1460.667969 620.394531 L 1460.667969 676.53125 L 1516.804688 676.53125 Z M 1516.804688 620.359375 L 1460.667969 620.359375 L 1460.667969 676.5 L 1516.804688 676.5 Z M 1460.648438 676.484375 L 1404.511719 676.484375 L 1404.511719 732.621094 L 1460.648438 732.621094 Z M 1516.804688 732.648438 L 1460.667969 732.648438 L 1460.667969 788.785156 L 1516.804688 788.785156 Z M 1516.804688 732.613281 L 1460.667969 732.613281 L 1460.667969 788.75 L 1516.804688 788.75 Z M 1629.078125 620.394531 L 1572.941406 620.394531 L 1572.941406 676.53125 L 1629.078125 676.53125 Z M 1629.078125 620.359375 L 1572.941406 620.359375 L 1572.941406 676.5 L 1629.078125 676.5 Z M 1572.921875 676.484375 L 1516.785156 676.484375 L 1516.785156 732.621094 L 1572.921875 732.621094 Z M 1629.078125 732.648438 L 1572.941406 732.648438 L 1572.941406 788.785156 L 1629.078125 788.785156 Z M 1629.078125 732.613281 L 1572.941406 732.613281 L 1572.941406 788.75 L 1629.078125 788.75 Z M 1516.804688 844.898438 L 1460.667969 844.898438 L 1460.667969 901.035156 L 1516.804688 901.035156 Z M 1516.804688 844.863281 L 1460.667969 844.863281 L 1460.667969 901 L 1516.804688 901 Z M 1460.648438 900.988281 L 1404.511719 900.988281 L 1404.511719 957.125 L 1460.648438 957.125 Z M 1516.804688 957.152344 L 1460.667969 957.152344 L 1460.667969 1013.289062 L 1516.804688 1013.289062 Z M 1516.804688 957.117188 L 1460.667969 957.117188 L 1460.667969 1013.253906 L 1516.804688 1013.253906 Z M 1629.054688 844.898438 L 1572.917969 844.898438 L 1572.917969 901.035156 L 1629.054688 901.035156 Z M 1629.054688 844.863281 L 1572.917969 844.863281 L 1572.917969 901 L 1629.054688 901 Z M 1572.898438 900.988281 L 1516.761719 900.988281 L 1516.761719 957.125 L 1572.898438 957.125 Z M 1629.054688 957.152344 L 1572.917969 957.152344 L 1572.917969 1013.289062 L 1629.054688 1013.289062 Z M 1629.054688 957.117188 L 1572.917969 957.117188 L 1572.917969 1013.253906 L 1629.054688 1013.253906 Z M 1460.648438 1013.242188 L 1404.511719 1013.242188 L 1404.511719 1069.378906 L 1460.648438 1069.378906 Z M 1572.898438 1013.242188 L 1516.761719 1013.242188 L 1516.761719 1069.378906 L 1572.898438 1069.378906 Z M 1516.804688 1069.402344 L 1460.667969 1069.402344 L 1460.667969 1125.539062 L 1516.804688 1125.539062 Z M 1516.804688 1069.367188 L 1460.667969 1069.367188 L 1460.667969 1125.503906 L 1516.804688 1125.503906 Z M 1460.648438 1125.492188 L 1404.511719 1125.492188 L 1404.511719 1181.628906 L 1460.648438 1181.628906 Z M 730.875 395.875 L 674.738281 395.875 L 674.738281 452.011719 L 730.875 452.011719 Z M 955.425781 395.875 L 899.289062 395.875 L 899.289062 452.011719 L 955.425781 452.011719 Z M 1067.726562 395.875 L 1011.585938 395.875 L 1011.585938 452.011719 L 1067.726562 452.011719 Z M 1180.023438 395.875 L 1123.886719 395.875 L 1123.886719 452.011719 L 1180.023438 452.011719 Z M 618.574219 395.875 L 562.4375 395.875 L 562.4375 452.011719 L 618.574219 452.011719 Z M 506.300781 395.894531 L 450.164062 395.894531 L 450.164062 452.03125 L 506.300781 452.03125 Z M 281.753906 395.894531 L 225.617188 395.894531 L 225.617188 452.03125 L 281.753906 452.03125 Z M 674.738281 452.015625 L 618.601562 452.015625 L 618.601562 508.15625 L 674.738281 508.15625 Z M 787.011719 452.015625 L 730.875 452.015625 L 730.875 508.15625 L 787.011719 508.15625 Z M 899.3125 452.015625 L 843.175781 452.015625 L 843.175781 508.15625 L 899.3125 508.15625 Z M 1011.613281 452.015625 L 955.476562 452.015625 L 955.476562 508.15625 L 1011.613281 508.15625 Z M 1123.914062 452.015625 L 1067.777344 452.015625 L 1067.777344 508.15625 L 1123.914062 508.15625 Z M 1236.125 452.015625 L 1179.984375 452.015625 L 1179.984375 508.15625 L 1236.125 508.15625 Z M 1348.332031 452.015625 L 1292.195312 452.015625 L 1292.195312 508.15625 L 1348.332031 508.15625 Z M 1292.28125 508.179688 L 1236.144531 508.179688 L 1236.144531 564.316406 L 1292.28125 564.316406 Z M 1404.488281 508.179688 L 1348.351562 508.179688 L 1348.351562 564.316406 L 1404.488281 564.316406 Z M 730.875 508.164062 L 674.738281 508.164062 L 674.738281 564.300781 L 730.875 564.300781 Z M 955.425781 508.164062 L 899.289062 508.164062 L 899.289062 564.300781 L 955.425781 564.300781 Z M 1067.726562 508.164062 L 1011.585938 508.164062 L 1011.585938 564.300781 L 1067.726562 564.300781 Z M 1180.023438 508.164062 L 1123.886719 508.164062 L 1123.886719 564.300781 L 1180.023438 564.300781 Z M 618.574219 508.164062 L 562.4375 508.164062 L 562.4375 564.300781 L 618.574219 564.300781 Z M 562.464844 452.015625 L 506.328125 452.015625 L 506.328125 508.15625 L 562.464844 508.15625 Z M 506.300781 508.179688 L 450.164062 508.179688 L 450.164062 564.316406 L 506.300781 564.316406 Z M 337.890625 452.042969 L 281.753906 452.042969 L 281.753906 508.179688 L 337.890625 508.179688 Z M 450.164062 452.042969 L 394.027344 452.042969 L 394.027344 508.179688 L 450.164062 508.179688 Z M 394.027344 508.179688 L 337.890625 508.179688 L 337.890625 564.316406 L 394.027344 564.316406 Z M 281.753906 508.179688 L 225.617188 508.179688 L 225.617188 564.316406 L 281.753906 564.316406 Z M 169.503906 395.894531 L 113.367188 395.894531 L 113.367188 452.03125 L 169.503906 452.03125 Z M 225.640625 452.042969 L 169.503906 452.042969 L 169.503906 508.179688 L 225.640625 508.179688 Z M 169.503906 508.179688 L 113.367188 508.179688 L 113.367188 564.316406 L 169.503906 564.316406 Z M 113.394531 452.042969 L 57.257812 452.042969 L 57.257812 508.179688 L 113.394531 508.179688 Z M 225.640625 564.328125 L 169.503906 564.328125 L 169.503906 620.464844 L 225.640625 620.464844 Z M 169.503906 620.464844 L 113.367188 620.464844 L 113.367188 676.601562 L 169.503906 676.601562 Z M 113.394531 564.328125 L 57.257812 564.328125 L 57.257812 620.464844 L 113.394531 620.464844 Z M 57.257812 620.464844 L 1.117188 620.464844 L 1.117188 676.601562 L 57.257812 676.601562 Z M 225.640625 676.617188 L 169.503906 676.617188 L 169.503906 732.753906 L 225.640625 732.753906 Z M 169.503906 732.753906 L 113.367188 732.753906 L 113.367188 788.890625 L 169.503906 788.890625 Z M 113.394531 676.617188 L 57.257812 676.617188 L 57.257812 732.753906 L 113.394531 732.753906 Z M 57.257812 732.753906 L 1.117188 732.753906 L 1.117188 788.890625 L 57.257812 788.890625 Z M 169.503906 845.039062 L 113.367188 845.039062 L 113.367188 901.175781 L 169.503906 901.175781 Z M 57.257812 845.039062 L 1.117188 845.039062 L 1.117188 901.175781 L 57.257812 901.175781 Z M 225.640625 901.1875 L 169.503906 901.1875 L 169.503906 957.324219 L 225.640625 957.324219 Z M 169.503906 957.324219 L 113.367188 957.324219 L 113.367188 1013.460938 L 169.503906 1013.460938 Z M 113.394531 901.1875 L 57.257812 901.1875 L 57.257812 957.324219 L 113.394531 957.324219 Z M 57.257812 957.324219 L 1.117188 957.324219 L 1.117188 1013.460938 L 57.257812 1013.460938 Z M 225.640625 1013.476562 L 169.503906 1013.476562 L 169.503906 1069.613281 L 225.640625 1069.613281 Z M 169.503906 1069.613281 L 113.367188 1069.613281 L 113.367188 1125.75 L 169.503906 1125.75 Z M 113.394531 1013.476562 L 57.257812 1013.476562 L 57.257812 1069.613281 L 113.394531 1069.613281 Z M 225.640625 1125.761719 L 169.503906 1125.761719 L 169.503906 1181.898438 L 225.640625 1181.898438 Z M 674.738281 564.304688 L 618.601562 564.304688 L 618.601562 620.441406 L 674.738281 620.441406 Z M 787.011719 564.304688 L 730.875 564.304688 L 730.875 620.441406 L 787.011719 620.441406 Z M 899.3125 564.304688 L 843.175781 564.304688 L 843.175781 620.441406 L 899.3125 620.441406 Z M 1011.613281 564.304688 L 955.476562 564.304688 L 955.476562 620.441406 L 1011.613281 620.441406 Z M 1123.914062 564.304688 L 1067.777344 564.304688 L 1067.777344 620.441406 L 1123.914062 620.441406 Z M 1236.125 564.304688 L 1179.984375 564.304688 L 1179.984375 620.441406 L 1236.125 620.441406 Z M 1292.28125 620.464844 L 1236.144531 620.464844 L 1236.144531 676.601562 L 1292.28125 676.601562 Z M 1404.488281 620.464844 L 1348.351562 620.464844 L 1348.351562 676.601562 L 1404.488281 676.601562 Z M 730.875 620.449219 L 674.738281 620.449219 L 674.738281 676.585938 L 730.875 676.585938 Z M 955.425781 620.449219 L 899.289062 620.449219 L 899.289062 676.585938 L 955.425781 676.585938 Z M 1067.726562 620.449219 L 1011.585938 620.449219 L 1011.585938 676.585938 L 1067.726562 676.585938 Z M 1180.023438 620.449219 L 1123.886719 620.449219 L 1123.886719 676.585938 L 1180.023438 676.585938 Z M 618.574219 620.449219 L 562.4375 620.449219 L 562.4375 676.585938 L 618.574219 676.585938 Z M 562.464844 564.304688 L 506.328125 564.304688 L 506.328125 620.441406 L 562.464844 620.441406 Z M 506.300781 620.464844 L 450.164062 620.464844 L 450.164062 676.601562 L 506.300781 676.601562 Z M 450.164062 564.328125 L 394.027344 564.328125 L 394.027344 620.464844 L 450.164062 620.464844 Z M 394.027344 620.464844 L 337.890625 620.464844 L 337.890625 676.601562 L 394.027344 676.601562 Z M 281.753906 620.464844 L 225.617188 620.464844 L 225.617188 676.601562 L 281.753906 676.601562 Z M 674.738281 676.589844 L 618.601562 676.589844 L 618.601562 732.726562 L 674.738281 732.726562 Z M 787.011719 676.589844 L 730.875 676.589844 L 730.875 732.726562 L 787.011719 732.726562 Z M 899.3125 676.589844 L 843.175781 676.589844 L 843.175781 732.726562 L 899.3125 732.726562 Z M 1011.613281 676.589844 L 955.476562 676.589844 L 955.476562 732.726562 L 1011.613281 732.726562 Z M 1123.914062 676.589844 L 1067.777344 676.589844 L 1067.777344 732.726562 L 1123.914062 732.726562 Z M 1236.125 676.589844 L 1179.984375 676.589844 L 1179.984375 732.726562 L 1236.125 732.726562 Z M 1292.28125 732.753906 L 1236.144531 732.753906 L 1236.144531 788.890625 L 1292.28125 788.890625 Z M 1404.488281 732.753906 L 1348.351562 732.753906 L 1348.351562 788.890625 L 1404.488281 788.890625 Z M 730.875 732.734375 L 674.738281 732.734375 L 674.738281 788.875 L 730.875 788.875 Z M 955.425781 732.734375 L 899.289062 732.734375 L 899.289062 788.875 L 955.425781 788.875 Z M 1067.726562 732.734375 L 1011.585938 732.734375 L 1011.585938 788.875 L 1067.726562 788.875 Z M 1180.023438 732.734375 L 1123.886719 732.734375 L 1123.886719 788.875 L 1180.023438 788.875 Z M 618.574219 732.734375 L 562.4375 732.734375 L 562.4375 788.875 L 618.574219 788.875 Z M 562.464844 676.589844 L 506.328125 676.589844 L 506.328125 732.726562 L 562.464844 732.726562 Z M 506.300781 732.753906 L 450.164062 732.753906 L 450.164062 788.890625 L 506.300781 788.890625 Z M 450.164062 676.617188 L 394.027344 676.617188 L 394.027344 732.753906 L 450.164062 732.753906 Z M 394.027344 732.753906 L 337.890625 732.753906 L 337.890625 788.890625 L 394.027344 788.890625 Z M 281.753906 732.753906 L 225.617188 732.753906 L 225.617188 788.890625 L 281.753906 788.890625 Z M 1292.28125 845.039062 L 1236.144531 845.039062 L 1236.144531 901.175781 L 1292.28125 901.175781 Z M 1404.488281 845.039062 L 1348.351562 845.039062 L 1348.351562 901.175781 L 1404.488281 901.175781 Z M 730.875 845.023438 L 674.738281 845.023438 L 674.738281 901.160156 L 730.875 901.160156 Z M 955.425781 845.023438 L 899.289062 845.023438 L 899.289062 901.160156 L 955.425781 901.160156 Z M 1067.726562 845.023438 L 1011.585938 845.023438 L 1011.585938 901.160156 L 1067.726562 901.160156 Z M 1180.023438 845.023438 L 1123.886719 845.023438 L 1123.886719 901.160156 L 1180.023438 901.160156 Z M 618.574219 845.023438 L 562.4375 845.023438 L 562.4375 901.160156 L 618.574219 901.160156 Z M 506.300781 845.039062 L 450.164062 845.039062 L 450.164062 901.175781 L 506.300781 901.175781 Z M 394.027344 845.039062 L 337.890625 845.039062 L 337.890625 901.175781 L 394.027344 901.175781 Z M 281.753906 845.039062 L 225.617188 845.039062 L 225.617188 901.175781 L 281.753906 901.175781 Z M 674.738281 901.164062 L 618.601562 901.164062 L 618.601562 957.300781 L 674.738281 957.300781 Z M 787.011719 901.164062 L 730.875 901.164062 L 730.875 957.300781 L 787.011719 957.300781 Z M 899.3125 901.164062 L 843.175781 901.164062 L 843.175781 957.300781 L 899.3125 957.300781 Z M 1011.613281 901.164062 L 955.476562 901.164062 L 955.476562 957.300781 L 1011.613281 957.300781 Z M 1123.914062 901.164062 L 1067.777344 901.164062 L 1067.777344 957.300781 L 1123.914062 957.300781 Z M 1236.125 901.164062 L 1179.984375 901.164062 L 1179.984375 957.300781 L 1236.125 957.300781 Z M 1292.28125 957.324219 L 1236.144531 957.324219 L 1236.144531 1013.460938 L 1292.28125 1013.460938 Z M 1404.488281 957.324219 L 1348.351562 957.324219 L 1348.351562 1013.460938 L 1404.488281 1013.460938 Z M 730.875 957.308594 L 674.738281 957.308594 L 674.738281 1013.445312 L 730.875 1013.445312 Z M 955.425781 957.308594 L 899.289062 957.308594 L 899.289062 1013.445312 L 955.425781 1013.445312 Z M 1067.726562 957.308594 L 1011.585938 957.308594 L 1011.585938 1013.445312 L 1067.726562 1013.445312 Z M 1180.023438 957.308594 L 1123.886719 957.308594 L 1123.886719 1013.445312 L 1180.023438 1013.445312 Z M 618.574219 957.308594 L 562.4375 957.308594 L 562.4375 1013.445312 L 618.574219 1013.445312 Z M 562.464844 901.164062 L 506.328125 901.164062 L 506.328125 957.300781 L 562.464844 957.300781 Z M 506.300781 957.324219 L 450.164062 957.324219 L 450.164062 1013.460938 L 506.300781 1013.460938 Z M 450.164062 901.1875 L 394.027344 901.1875 L 394.027344 957.324219 L 450.164062 957.324219 Z M 394.027344 957.324219 L 337.890625 957.324219 L 337.890625 1013.460938 L 394.027344 1013.460938 Z M 281.753906 957.324219 L 225.617188 957.324219 L 225.617188 1013.460938 L 281.753906 1013.460938 Z M 674.738281 1013.449219 L 618.601562 1013.449219 L 618.601562 1069.585938 L 674.738281 1069.585938 Z M 787.011719 1013.449219 L 730.875 1013.449219 L 730.875 1069.585938 L 787.011719 1069.585938 Z M 899.3125 1013.449219 L 843.175781 1013.449219 L 843.175781 1069.585938 L 899.3125 1069.585938 Z M 1011.613281 1013.449219 L 955.476562 1013.449219 L 955.476562 1069.585938 L 1011.613281 1069.585938 Z M 1123.914062 1013.449219 L 1067.777344 1013.449219 L 1067.777344 1069.585938 L 1123.914062 1069.585938 Z M 1236.125 1013.449219 L 1179.984375 1013.449219 L 1179.984375 1069.585938 L 1236.125 1069.585938 Z M 1404.488281 1069.613281 L 1348.351562 1069.613281 L 1348.351562 1125.75 L 1404.488281 1125.75 Z M 730.875 1069.597656 L 674.738281 1069.597656 L 674.738281 1125.734375 L 730.875 1125.734375 Z M 955.425781 1069.597656 L 899.289062 1069.597656 L 899.289062 1125.734375 L 955.425781 1125.734375 Z M 1067.726562 1069.597656 L 1011.585938 1069.597656 L 1011.585938 1125.734375 L 1067.726562 1125.734375 Z M 1180.023438 1069.597656 L 1123.886719 1069.597656 L 1123.886719 1125.734375 L 1180.023438 1125.734375 Z M 618.574219 1069.597656 L 562.4375 1069.597656 L 562.4375 1125.734375 L 618.574219 1125.734375 Z M 562.464844 1013.449219 L 506.328125 1013.449219 L 506.328125 1069.585938 L 562.464844 1069.585938 Z M 506.300781 1069.613281 L 450.164062 1069.613281 L 450.164062 1125.75 L 506.300781 1125.75 Z M 450.164062 1013.476562 L 394.027344 1013.476562 L 394.027344 1069.613281 L 450.164062 1069.613281 Z M 281.753906 1069.613281 L 225.617188 1069.613281 L 225.617188 1125.75 L 281.753906 1125.75 Z M 674.738281 1125.738281 L 618.601562 1125.738281 L 618.601562 1181.875 L 674.738281 1181.875 Z M 787.011719 1125.738281 L 730.875 1125.738281 L 730.875 1181.875 L 787.011719 1181.875 Z M 899.3125 1125.738281 L 843.175781 1125.738281 L 843.175781 1181.875 L 899.3125 1181.875 Z M 1011.613281 1125.738281 L 955.476562 1125.738281 L 955.476562 1181.875 L 1011.613281 1181.875 Z M 1123.914062 1125.738281 L 1067.777344 1125.738281 L 1067.777344 1181.875 L 1123.914062 1181.875 Z M 1236.125 1125.738281 L 1179.984375 1125.738281 L 1179.984375 1181.875 L 1236.125 1181.875 Z M 1348.332031 1125.738281 L 1292.195312 1125.738281 L 1292.195312 1181.875 L 1348.332031 1181.875 Z M 562.464844 1125.738281 L 506.328125 1125.738281 L 506.328125 1181.875 L 562.464844 1181.875 Z M 337.890625 1125.761719 L 281.753906 1125.761719 L 281.753906 1181.898438 L 337.890625 1181.898438 Z M 450.164062 1125.761719 L 394.027344 1125.761719 L 394.027344 1181.898438 L 450.164062 1181.898438 Z M 674.738281 1238.023438 L 618.601562 1238.023438 L 618.601562 1294.160156 L 674.738281 1294.160156 Z M 787.011719 1238.023438 L 730.875 1238.023438 L 730.875 1294.160156 L 787.011719 1294.160156 Z M 899.3125 1238.023438 L 843.175781 1238.023438 L 843.175781 1294.160156 L 899.3125 1294.160156 Z M 1011.613281 1238.023438 L 955.476562 1238.023438 L 955.476562 1294.160156 L 1011.613281 1294.160156 Z M 1123.914062 1238.023438 L 1067.777344 1238.023438 L 1067.777344 1294.160156 L 1123.914062 1294.160156 Z M 1348.332031 1238.023438 L 1292.195312 1238.023438 L 1292.195312 1294.160156 L 1348.332031 1294.160156 Z M 1292.28125 1294.1875 L 1236.144531 1294.1875 L 1236.144531 1350.324219 L 1292.28125 1350.324219 Z M 1404.488281 1294.1875 L 1348.351562 1294.1875 L 1348.351562 1350.324219 L 1404.488281 1350.324219 Z M 730.875 1294.167969 L 674.738281 1294.167969 L 674.738281 1350.304688 L 730.875 1350.304688 Z M 955.425781 1294.167969 L 899.289062 1294.167969 L 899.289062 1350.304688 L 955.425781 1350.304688 Z M 1067.726562 1294.167969 L 1011.585938 1294.167969 L 1011.585938 1350.304688 L 1067.726562 1350.304688 Z M 618.574219 1294.167969 L 562.4375 1294.167969 L 562.4375 1350.304688 L 618.574219 1350.304688 Z M 562.464844 1238.023438 L 506.328125 1238.023438 L 506.328125 1294.160156 L 562.464844 1294.160156 Z M 337.890625 1238.046875 L 281.753906 1238.046875 L 281.753906 1294.1875 L 337.890625 1294.1875 Z M 394.027344 1294.1875 L 337.890625 1294.1875 L 337.890625 1350.324219 L 394.027344 1350.324219 Z M 281.753906 1294.1875 L 225.617188 1294.1875 L 225.617188 1350.324219 L 281.753906 1350.324219 Z M 674.738281 1350.308594 L 618.601562 1350.308594 L 618.601562 1406.449219 L 674.738281 1406.449219 Z M 787.011719 1350.308594 L 730.875 1350.308594 L 730.875 1406.449219 L 787.011719 1406.449219 Z M 899.3125 1350.308594 L 843.175781 1350.308594 L 843.175781 1406.449219 L 899.3125 1406.449219 Z M 1011.613281 1350.308594 L 955.476562 1350.308594 L 955.476562 1406.449219 L 1011.613281 1406.449219 Z M 1236.125 1350.308594 L 1179.984375 1350.308594 L 1179.984375 1406.449219 L 1236.125 1406.449219 Z M 1348.332031 1350.308594 L 1292.195312 1350.308594 L 1292.195312 1406.449219 L 1348.332031 1406.449219 Z M 1292.28125 1406.472656 L 1236.144531 1406.472656 L 1236.144531 1462.609375 L 1292.28125 1462.609375 Z M 730.875 1406.457031 L 674.738281 1406.457031 L 674.738281 1462.59375 L 730.875 1462.59375 Z M 955.425781 1406.457031 L 899.289062 1406.457031 L 899.289062 1462.59375 L 955.425781 1462.59375 Z M 1180.023438 1406.457031 L 1123.886719 1406.457031 L 1123.886719 1462.59375 L 1180.023438 1462.59375 Z M 506.300781 1406.472656 L 450.164062 1406.472656 L 450.164062 1462.609375 L 506.300781 1462.609375 Z M 337.890625 1350.335938 L 281.753906 1350.335938 L 281.753906 1406.472656 L 337.890625 1406.472656 Z M 450.164062 1350.335938 L 394.027344 1350.335938 L 394.027344 1406.472656 L 450.164062 1406.472656 Z M 394.027344 1406.472656 L 337.890625 1406.472656 L 337.890625 1462.609375 L 394.027344 1462.609375 Z M 787.011719 1462.597656 L 730.875 1462.597656 L 730.875 1518.734375 L 787.011719 1518.734375 Z M 899.3125 1462.597656 L 843.175781 1462.597656 L 843.175781 1518.734375 L 899.3125 1518.734375 Z M 1123.914062 1462.597656 L 1067.777344 1462.597656 L 1067.777344 1518.734375 L 1123.914062 1518.734375 Z M 1067.726562 1518.742188 L 1011.585938 1518.742188 L 1011.585938 1574.878906 L 1067.726562 1574.878906 Z M 618.574219 1518.742188 L 562.4375 1518.742188 L 562.4375 1574.878906 L 618.574219 1574.878906 Z M 562.464844 1462.597656 L 506.328125 1462.597656 L 506.328125 1518.734375 L 562.464844 1518.734375 Z M 562.464844 1462.597656 " fill-opacity="1" fill-rule="nonzero"/></g></g></g><g clip-path="url(#ed322db991)"><path fill="#000000" d="M 2023.179688 901.292969 L 2023.179688 1350.390625 L 1967.042969 1350.390625 L 1967.042969 1181.976562 L 1686.359375 1181.976562 L 1686.359375 1406.527344 L 1630.222656 1406.527344 L 1630.222656 1181.976562 L 1181.125 1181.976562 L 1181.125 1518.800781 L 1574.085938 1518.800781 L 1574.085938 1406.527344 L 1630.222656 1406.527344 L 1630.222656 1518.800781 L 1854.769531 1518.800781 L 1854.769531 1462.664062 L 1910.90625 1462.664062 L 1910.90625 1574.9375 L 1854.769531 1574.9375 L 1854.769531 1631.074219 L 1798.632812 1631.074219 L 1798.632812 1574.9375 L 1574.085938 1574.9375 L 1574.085938 1631.074219 L 1517.945312 1631.074219 L 1517.945312 1574.9375 L 1181.125 1574.9375 L 1181.125 1911.761719 L 1237.261719 1911.761719 L 1237.261719 1855.625 L 1293.398438 1855.625 L 1293.398438 1911.761719 L 1405.671875 1911.761719 L 1405.671875 1967.898438 L 900.4375 1967.898438 L 900.4375 1911.761719 L 1012.710938 1911.761719 L 1012.710938 1855.625 L 1068.851562 1855.625 L 1068.851562 1911.761719 L 1124.988281 1911.761719 L 1124.988281 1574.9375 L 788.164062 1574.9375 L 788.164062 1631.074219 L 732.027344 1631.074219 L 732.027344 1574.9375 L 507.476562 1574.9375 L 507.476562 1631.074219 L 451.339844 1631.074219 L 451.339844 1574.9375 L 395.203125 1574.9375 L 395.203125 1462.664062 L 451.339844 1462.664062 L 451.339844 1518.800781 L 675.890625 1518.800781 L 675.890625 1406.527344 L 732.027344 1406.527344 L 732.027344 1518.800781 L 1124.988281 1518.800781 L 1124.988281 1181.976562 L 675.890625 1181.976562 L 675.890625 1406.527344 L 619.753906 1406.527344 L 619.753906 1181.976562 L 339.066406 1181.976562 L 339.066406 1350.390625 L 282.929688 1350.390625 L 282.929688 901.292969 L 339.066406 901.292969 L 339.066406 1125.839844 L 619.753906 1125.839844 L 619.753906 845.15625 L 675.890625 845.15625 L 675.890625 1125.839844 L 1124.988281 1125.839844 L 1124.988281 732.878906 L 732.027344 732.878906 L 732.027344 845.15625 L 675.890625 845.15625 L 675.890625 732.878906 L 451.339844 732.878906 L 451.339844 789.015625 L 395.203125 789.015625 L 395.203125 676.742188 L 451.339844 676.742188 L 451.339844 620.605469 L 507.476562 620.605469 L 507.476562 676.742188 L 732.027344 676.742188 L 732.027344 620.605469 L 788.164062 620.605469 L 788.164062 676.742188 L 1124.988281 676.742188 L 1124.988281 339.921875 L 1068.851562 339.921875 L 1068.851562 396.058594 L 1012.710938 396.058594 L 1012.710938 339.921875 L 900.4375 339.921875 L 900.4375 283.78125 L 1405.671875 283.78125 L 1405.671875 339.921875 L 1293.398438 339.921875 L 1293.398438 396.058594 L 1237.261719 396.058594 L 1237.261719 339.921875 L 1181.125 339.921875 L 1181.125 676.742188 L 1517.945312 676.742188 L 1517.945312 620.605469 L 1574.085938 620.605469 L 1574.085938 676.742188 L 1798.632812 676.742188 L 1798.632812 620.605469 L 1854.769531 620.605469 L 1854.769531 676.742188 L 1910.90625 676.742188 L 1910.90625 789.015625 L 1854.769531 789.015625 L 1854.769531 732.878906 L 1630.222656 732.878906 L 1630.222656 845.15625 L 1574.085938 845.15625 L 1574.085938 732.878906 L 1181.125 732.878906 L 1181.125 1125.839844 L 1630.222656 1125.839844 L 1630.222656 845.15625 L 1686.359375 845.15625 L 1686.359375 1125.839844 L 1967.042969 1125.839844 L 1967.042969 901.292969 Z M 1910.90625 1406.527344 L 1910.90625 1462.664062 L 1967.042969 1462.664062 L 1967.042969 1350.390625 L 1910.90625 1350.390625 Z M 1910.90625 901.292969 L 1967.042969 901.292969 L 1967.042969 789.015625 L 1910.90625 789.015625 Z M 1742.496094 1687.210938 L 1798.632812 1687.210938 L 1798.632812 1631.074219 L 1742.496094 1631.074219 Z M 1798.632812 620.605469 L 1798.632812 564.46875 L 1742.496094 564.46875 L 1742.496094 620.605469 Z M 1686.359375 1743.347656 L 1742.496094 1743.347656 L 1742.496094 1687.210938 L 1686.359375 1687.210938 Z M 1742.496094 564.46875 L 1742.496094 508.332031 L 1686.359375 508.332031 L 1686.359375 564.46875 Z M 1630.222656 1799.484375 L 1686.359375 1799.484375 L 1686.359375 1743.347656 L 1630.222656 1743.347656 Z M 1686.359375 508.332031 L 1686.359375 452.195312 L 1630.222656 452.195312 L 1630.222656 508.332031 Z M 1517.945312 1799.484375 L 1517.945312 1855.625 L 1630.222656 1855.625 L 1630.222656 1799.484375 Z M 1574.085938 452.195312 L 1630.222656 452.195312 L 1630.222656 396.058594 L 1517.945312 396.058594 L 1517.945312 452.195312 Z M 1461.808594 1687.210938 L 1517.945312 1687.210938 L 1517.945312 1631.074219 L 1461.808594 1631.074219 Z M 1461.808594 564.46875 L 1461.808594 620.605469 L 1517.945312 620.605469 L 1517.945312 564.46875 Z M 1405.671875 1855.625 L 1405.671875 1911.761719 L 1517.945312 1911.761719 L 1517.945312 1855.625 Z M 1405.671875 1743.347656 L 1461.808594 1743.347656 L 1461.808594 1687.210938 L 1405.671875 1687.210938 Z M 1461.808594 564.46875 L 1461.808594 508.332031 L 1405.671875 508.332031 L 1405.671875 564.46875 Z M 1461.808594 396.058594 L 1517.945312 396.058594 L 1517.945312 339.921875 L 1405.671875 339.921875 L 1405.671875 396.058594 Z M 1349.535156 1799.484375 L 1405.671875 1799.484375 L 1405.671875 1743.347656 L 1349.535156 1743.347656 Z M 1405.671875 508.332031 L 1405.671875 452.195312 L 1349.535156 452.195312 L 1349.535156 508.332031 Z M 1349.535156 1799.484375 L 1293.398438 1799.484375 L 1293.398438 1855.625 L 1349.535156 1855.625 Z M 1349.535156 452.195312 L 1349.535156 396.058594 L 1293.398438 396.058594 L 1293.398438 452.195312 Z M 956.574219 1799.484375 L 956.574219 1855.625 L 1012.710938 1855.625 L 1012.710938 1799.484375 Z M 956.574219 452.195312 L 1012.710938 452.195312 L 1012.710938 396.058594 L 956.574219 396.058594 Z M 900.4375 1743.347656 L 900.4375 1799.484375 L 956.574219 1799.484375 L 956.574219 1743.347656 Z M 956.574219 452.195312 L 900.4375 452.195312 L 900.4375 508.332031 L 956.574219 508.332031 Z M 844.300781 1855.625 L 788.164062 1855.625 L 788.164062 1911.761719 L 900.4375 1911.761719 L 900.4375 1855.625 Z M 844.300781 1687.210938 L 844.300781 1743.347656 L 900.4375 1743.347656 L 900.4375 1687.210938 Z M 900.4375 508.332031 L 844.300781 508.332031 L 844.300781 564.46875 L 900.4375 564.46875 Z M 900.4375 396.058594 L 900.4375 339.921875 L 788.164062 339.921875 L 788.164062 396.058594 Z M 844.300781 1687.210938 L 844.300781 1631.074219 L 788.164062 1631.074219 L 788.164062 1687.210938 Z M 844.300781 564.46875 L 788.164062 564.46875 L 788.164062 620.605469 L 844.300781 620.605469 Z M 732.027344 1799.484375 L 675.890625 1799.484375 L 675.890625 1855.625 L 788.164062 1855.625 L 788.164062 1799.484375 Z M 788.164062 452.195312 L 788.164062 396.058594 L 675.890625 396.058594 L 675.890625 452.195312 Z M 619.753906 1743.347656 L 619.753906 1799.484375 L 675.890625 1799.484375 L 675.890625 1743.347656 Z M 675.890625 452.195312 L 619.753906 452.195312 L 619.753906 508.332031 L 675.890625 508.332031 Z M 563.617188 1687.210938 L 563.617188 1743.347656 L 619.753906 1743.347656 L 619.753906 1687.210938 Z M 619.753906 508.332031 L 563.617188 508.332031 L 563.617188 564.46875 L 619.753906 564.46875 Z M 507.476562 1631.074219 L 507.476562 1687.210938 L 563.617188 1687.210938 L 563.617188 1631.074219 Z M 563.617188 564.46875 L 507.476562 564.46875 L 507.476562 620.605469 L 563.617188 620.605469 Z M 395.203125 1350.390625 L 339.066406 1350.390625 L 339.066406 1462.664062 L 395.203125 1462.664062 Z M 395.203125 845.15625 L 395.203125 789.015625 L 339.066406 789.015625 L 339.066406 901.292969 L 395.203125 901.292969 Z M 395.203125 845.15625 " fill-opacity="1" fill-rule="nonzero"/></g><g mask="url(#8a61459418)"><g transform="matrix(1, 0, 0, 1, 338, 337)"><g clip-path="url(#dc85ff577f)"><path fill="#000000" d="M 1572.90625 844.976562 L 1572.90625 901.113281 L 1348.359375 901.113281 L 1348.359375 844.976562 Z M 1404.496094 452.015625 L 1460.632812 452.015625 L 1460.632812 395.878906 L 1292.222656 395.878906 L 1292.222656 452.015625 Z M 1292.222656 1237.9375 L 1236.085938 1237.9375 L 1236.085938 1294.074219 L 1404.496094 1294.074219 L 1404.496094 1237.9375 Z M 1236.085938 1013.390625 L 1236.085938 1069.527344 L 1292.222656 1069.527344 L 1292.222656 844.976562 L 843.125 844.976562 L 843.125 901.113281 L 1236.085938 901.113281 Z M 1236.085938 620.429688 L 1236.085938 788.839844 L 1292.222656 788.839844 L 1292.222656 508.15625 L 1236.085938 508.15625 Z M 1179.945312 1125.664062 L 1179.945312 1181.800781 L 1236.085938 1181.800781 L 1236.085938 1069.527344 L 1179.945312 1069.527344 Z M 1179.945312 339.742188 L 1179.945312 283.605469 L 1123.808594 283.605469 L 1123.808594 339.742188 Z M 1067.671875 1237.9375 L 843.125 1237.9375 L 843.125 1294.074219 L 1067.671875 1294.074219 L 1067.671875 1350.210938 L 1123.808594 1350.210938 L 1123.808594 1294.074219 L 1179.945312 1294.074219 L 1179.945312 1237.9375 Z M 1123.808594 283.605469 L 1123.808594 227.46875 L 1067.671875 227.46875 L 1067.671875 283.605469 Z M 1011.535156 1406.347656 L 1067.671875 1406.347656 L 1067.671875 1350.210938 L 1011.535156 1350.210938 Z M 1067.671875 227.46875 L 1067.671875 171.332031 L 1011.535156 171.332031 L 1011.535156 227.46875 Z M 1011.535156 1574.761719 L 1011.535156 1518.625 L 955.398438 1518.625 L 955.398438 1574.761719 Z M 955.398438 1462.484375 L 1011.535156 1462.484375 L 1011.535156 1406.347656 L 955.398438 1406.347656 Z M 1011.535156 171.332031 L 1011.535156 115.195312 L 955.398438 115.195312 L 955.398438 171.332031 Z M 899.261719 1518.625 L 955.398438 1518.625 L 955.398438 1462.484375 L 899.261719 1462.484375 Z M 955.398438 452.015625 L 1179.945312 452.015625 L 1179.945312 508.15625 L 1236.085938 508.15625 L 1236.085938 395.878906 L 843.125 395.878906 L 843.125 452.015625 Z M 955.398438 115.195312 L 955.398438 59.058594 L 899.261719 59.058594 L 899.261719 115.195312 Z M 843.125 1574.761719 L 899.261719 1574.761719 L 899.261719 1518.625 L 843.125 1518.625 Z M 899.261719 2.921875 L 843.125 2.921875 L 843.125 59.058594 L 899.261719 59.058594 Z M 730.851562 59.058594 L 730.851562 339.742188 L 786.988281 339.742188 L 786.988281 2.921875 L 730.851562 2.921875 Z M 674.710938 1237.9375 L 450.164062 1237.9375 L 450.164062 1294.074219 L 730.851562 1294.074219 L 730.851562 1574.761719 L 786.988281 1574.761719 L 786.988281 1237.9375 Z M 674.710938 844.976562 L 337.890625 844.976562 L 337.890625 901.113281 L 730.851562 901.113281 L 730.851562 1181.800781 L 786.988281 1181.800781 L 786.988281 844.976562 Z M 674.710938 395.878906 L 394.027344 395.878906 L 394.027344 452.015625 L 730.851562 452.015625 L 730.851562 788.839844 L 786.988281 788.839844 L 786.988281 395.878906 Z M 674.710938 2.921875 L 618.574219 2.921875 L 618.574219 59.058594 L 674.710938 59.058594 Z M 562.4375 1574.761719 L 674.710938 1574.761719 L 674.710938 1518.625 L 618.574219 1518.625 L 618.574219 1462.484375 L 562.4375 1462.484375 Z M 618.574219 59.058594 L 562.4375 59.058594 L 562.4375 115.195312 L 618.574219 115.195312 Z M 562.4375 1462.484375 L 562.4375 1406.347656 L 506.300781 1406.347656 L 506.300781 1462.484375 Z M 562.4375 115.195312 L 506.300781 115.195312 L 506.300781 171.332031 L 562.4375 171.332031 Z M 506.300781 1406.347656 L 506.300781 1350.210938 L 450.164062 1350.210938 L 450.164062 1406.347656 Z M 506.300781 171.332031 L 450.164062 171.332031 L 450.164062 227.46875 L 506.300781 227.46875 Z M 394.027344 1350.210938 L 450.164062 1350.210938 L 450.164062 1294.074219 L 394.027344 1294.074219 Z M 450.164062 227.46875 L 394.027344 227.46875 L 394.027344 283.605469 L 450.164062 283.605469 Z M 337.890625 1237.9375 L 169.476562 1237.9375 L 169.476562 1294.074219 L 394.027344 1294.074219 L 394.027344 1237.9375 Z M 394.027344 283.605469 L 337.890625 283.605469 L 337.890625 339.742188 L 394.027344 339.742188 Z M 281.753906 1181.800781 L 337.890625 1181.800781 L 337.890625 1069.527344 L 281.753906 1069.527344 Z M 225.617188 564.292969 L 225.617188 788.839844 L 281.753906 788.839844 L 281.753906 508.15625 L 225.617188 508.15625 Z M 225.617188 901.113281 L 225.617188 1069.527344 L 281.753906 1069.527344 L 281.753906 844.976562 L 1.066406 844.976562 L 1.066406 901.113281 Z M 225.617188 452.015625 L 281.753906 452.015625 L 281.753906 508.15625 L 337.890625 508.15625 L 337.890625 395.878906 L 113.339844 395.878906 L 113.339844 452.015625 Z M 225.617188 452.015625 " fill-opacity="1" fill-rule="nonzero"/></g></g></g><g mask="url(#93edaef6d1)"><g transform="matrix(1, 0, 0, 1, 1290, 337)"><g clip-path="url(#220932491c)"><path fill="#ffffff" d="M 620.90625 844.976562 L 677.042969 844.976562 L 677.042969 1013.390625 L 620.90625 1013.390625 Z M 620.90625 564.292969 L 620.90625 788.839844 L 677.042969 788.839844 L 677.042969 564.292969 Z M 564.769531 1069.527344 L 564.769531 1125.664062 L 620.90625 1125.664062 L 620.90625 1013.390625 L 564.769531 1013.390625 Z M 620.90625 452.015625 L 564.769531 452.015625 L 564.769531 564.292969 L 620.90625 564.292969 Z M 508.632812 1181.800781 L 564.769531 1181.800781 L 564.769531 1125.664062 L 508.632812 1125.664062 Z M 508.632812 395.878906 L 508.632812 452.015625 L 564.769531 452.015625 L 564.769531 395.878906 Z M 452.496094 1294.074219 L 508.632812 1294.074219 L 508.632812 1237.9375 L 452.496094 1237.9375 Z M 508.632812 339.742188 L 508.632812 283.605469 L 452.496094 283.605469 L 452.496094 339.742188 Z M 396.359375 1350.210938 L 452.496094 1350.210938 L 452.496094 1294.074219 L 396.359375 1294.074219 Z M 452.496094 283.605469 L 452.496094 227.46875 L 396.359375 227.46875 L 396.359375 283.605469 Z M 340.222656 1406.347656 L 396.359375 1406.347656 L 396.359375 1350.210938 L 340.222656 1350.210938 Z M 396.359375 227.46875 L 396.359375 171.332031 L 340.222656 171.332031 L 340.222656 227.46875 Z M 227.945312 1406.347656 L 227.945312 1462.484375 L 340.222656 1462.484375 L 340.222656 1406.347656 Z M 284.085938 171.332031 L 340.222656 171.332031 L 340.222656 115.195312 L 227.945312 115.195312 L 227.945312 171.332031 Z M 115.671875 1462.484375 L 115.671875 1518.625 L 227.945312 1518.625 L 227.945312 1462.484375 Z M 171.808594 115.195312 L 227.945312 115.195312 L 227.945312 59.058594 L 115.671875 59.058594 L 115.671875 115.195312 Z M 59.535156 1574.761719 L 115.671875 1574.761719 L 115.671875 1518.625 L 59.535156 1518.625 Z M 115.671875 59.058594 L 115.671875 2.921875 L 3.398438 2.921875 L 3.398438 59.058594 Z M 115.671875 59.058594 " fill-opacity="1" fill-rule="nonzero"/></g></g></g></svg>